<svg width="53" height="53" viewBox="0 0 53 53" fill="none" xmlns="http://www.w3.org/2000/svg">
<circle cx="26.1658" cy="26.1658" r="26.1658" fill="#4EAF4E"/>
<path d="M21.8767 35.4189L26.7387 27.9959C27.3367 27.0772 27.8264 26.2842 28.2077 25.6169C28.5977 24.9496 28.8837 24.3516 29.0657 23.8229C29.2564 23.2856 29.3517 22.7699 29.3517 22.2759C29.3517 21.4699 29.1264 20.8372 28.6757 20.3779C28.2251 19.9186 27.5967 19.6889 26.7907 19.6889C25.8981 19.6889 25.0877 19.9012 24.3597 20.3259C23.6404 20.7419 22.9861 21.2446 22.3967 21.8339L22.0197 18.7529C22.7304 18.1809 23.5191 17.7216 24.3857 17.3749C25.2524 17.0282 26.2317 16.8549 27.3237 16.8549C28.4244 16.8549 29.3431 17.0802 30.0797 17.5309C30.8251 17.9816 31.3797 18.5796 31.7437 19.3249C32.1164 20.0702 32.3027 20.8936 32.3027 21.7949C32.3027 22.5316 32.2031 23.2509 32.0037 23.9529C31.8044 24.6462 31.4881 25.4046 31.0547 26.2279C30.6214 27.0426 30.0537 27.9829 29.3517 29.0489L26.9857 32.6239H32.9787V35.4189H21.8767Z" fill="white"/>
</svg>
