<svg width="53" height="53" viewBox="0 0 53 53" fill="none" xmlns="http://www.w3.org/2000/svg">
<circle cx="26.1658" cy="26.1658" r="26.1658" fill="#181818"/>
<path d="M26.7127 35.7959C25.6554 35.7959 24.6847 35.6702 23.8007 35.4189C22.9167 35.1589 22.1671 34.8686 21.5517 34.5479L22.2927 31.9349C22.9254 32.2729 23.6101 32.5632 24.3467 32.8059C25.0834 33.0399 25.8721 33.1569 26.7127 33.1569C27.7354 33.1569 28.5414 32.9186 29.1307 32.4419C29.7287 31.9566 30.0277 31.2589 30.0277 30.3489C30.0277 29.4042 29.7244 28.6762 29.1177 28.1649C28.5111 27.6449 27.5837 27.3849 26.3357 27.3849H24.7497V24.5899H26.3227C27.3281 24.5899 28.1037 24.3559 28.6497 23.8879C29.2044 23.4199 29.4817 22.7742 29.4817 21.9509C29.4817 21.1709 29.2434 20.5686 28.7667 20.1439C28.2987 19.7192 27.6227 19.5069 26.7387 19.5069C26.0021 19.5069 25.3087 19.6326 24.6587 19.8839C24.0087 20.1266 23.3674 20.4386 22.7347 20.8199L22.2667 18.0249C22.8907 17.6956 23.6057 17.4226 24.4117 17.2059C25.2264 16.9806 26.1147 16.8679 27.0767 16.8679C28.2381 16.8679 29.2217 17.0716 30.0277 17.4789C30.8337 17.8776 31.4447 18.4322 31.8607 19.1429C32.2767 19.8536 32.4847 20.6639 32.4847 21.5739C32.4847 22.7526 32.1597 23.7492 31.5097 24.5639C30.8597 25.3699 29.9584 25.9116 28.8057 26.1889L28.7927 25.5909C30.1014 25.8162 31.1457 26.3276 31.9257 27.1249C32.7144 27.9222 33.1087 28.9882 33.1087 30.3229C33.1087 31.4842 32.8357 32.4722 32.2897 33.2869C31.7437 34.1016 30.9897 34.7256 30.0277 35.1589C29.0657 35.5836 27.9607 35.7959 26.7127 35.7959Z" fill="white"/>
</svg>
