<svg width="95" height="95" viewBox="0 0 95 95" fill="none" xmlns="http://www.w3.org/2000/svg">
<path d="M33.3195 55.1405C32.3229 55.1405 31.4085 55.0105 30.5765 54.7505C29.7445 54.4905 28.9949 54.1352 28.3275 53.6845L29.1075 50.6685C29.7489 51.0672 30.3989 51.3922 31.0575 51.6435C31.7249 51.8948 32.4615 52.0205 33.2675 52.0205C34.2555 52.0205 35.0399 51.7605 35.6205 51.2405C36.2012 50.7205 36.4915 50.0185 36.4915 49.1345C36.4915 48.1812 36.1622 47.4358 35.5035 46.8985C34.8449 46.3612 33.8915 46.0925 32.6435 46.0925C32.0715 46.0925 31.4995 46.1272 30.9275 46.1965C30.3642 46.2658 29.8009 46.3525 29.2375 46.4565L30.4075 36.6025H38.9875L38.7795 39.8265H32.9035L32.2795 44.8705L31.0315 43.7265C31.4475 43.6052 31.8809 43.5142 32.3315 43.4535C32.7909 43.3928 33.2849 43.3625 33.8135 43.3625C34.9749 43.3625 35.9975 43.5922 36.8815 44.0515C37.7742 44.5022 38.4675 45.1608 38.9615 46.0275C39.4642 46.8855 39.7155 47.9212 39.7155 49.1345C39.7155 50.3825 39.4382 51.4572 38.8835 52.3585C38.3375 53.2512 37.5835 53.9402 36.6215 54.4255C35.6595 54.9022 34.5589 55.1405 33.3195 55.1405ZM50.1964 55.1665C48.6624 55.1665 47.319 54.7678 46.1664 53.9705C45.0224 53.1645 44.1297 52.0422 43.4884 50.6035C42.847 49.1562 42.5264 47.4705 42.5264 45.5465C42.5264 43.7092 42.847 42.0928 43.4884 40.6975C44.1297 39.2935 45.0224 38.2015 46.1664 37.4215C47.319 36.6328 48.6624 36.2385 50.1964 36.2385C51.739 36.2385 53.0824 36.6328 54.2264 37.4215C55.379 38.2102 56.2717 39.3065 56.9044 40.7105C57.5457 42.1058 57.8664 43.7178 57.8664 45.5465C57.8664 47.4705 57.5457 49.1562 56.9044 50.6035C56.2717 52.0422 55.379 53.1645 54.2264 53.9705C53.0824 54.7678 51.739 55.1665 50.1964 55.1665ZM50.1964 52.1765C51.0197 52.1765 51.7564 51.9512 52.4064 51.5005C53.065 51.0498 53.585 50.3392 53.9664 49.3685C54.3477 48.3892 54.5384 47.1152 54.5384 45.5465C54.5384 43.3885 54.1224 41.7895 53.2904 40.7495C52.467 39.7008 51.4357 39.1765 50.1964 39.1765C48.9657 39.1765 47.9344 39.6965 47.1024 40.7365C46.2704 41.7678 45.8544 43.3712 45.8544 45.5465C45.8544 47.0978 46.045 48.3632 46.4264 49.3425C46.8077 50.3132 47.3234 51.0282 47.9734 51.4875C48.632 51.9468 49.373 52.1765 50.1964 52.1765ZM63.8998 52.3065V48.8225H60.4158V46.3785H63.8998V42.8945H66.5518V46.3785H70.0358V48.8225H66.5518V52.3065H63.8998Z" fill="#181818"/>
<path d="M94.9384 47.4056C94.9384 73.4204 73.8492 94.5096 47.8343 94.5096C21.8195 94.5096 0.730286 73.4204 0.730286 47.4056C0.730286 21.3907 21.8195 0.301514 47.8343 0.301514C73.8492 0.301514 94.9384 21.3907 94.9384 47.4056ZM5.44069 47.4056C5.44069 70.8189 24.421 89.7992 47.8343 89.7992C71.2477 89.7992 90.228 70.8189 90.228 47.4056C90.228 23.9922 71.2477 5.01192 47.8343 5.01192C24.421 5.01192 5.44069 23.9922 5.44069 47.4056Z" fill="#F1F1F1"/>
<path d="M47.8343 2.65672C47.8343 1.35597 48.8897 0.295371 50.1888 0.360364C59.9845 0.850428 69.4055 4.38878 77.1184 10.5106C85.4475 17.1216 91.2947 26.3564 93.7086 36.7126C96.1226 47.0689 94.9613 57.9373 90.4137 67.5497C85.8661 77.1621 78.1998 84.953 68.6619 89.6549C59.124 94.3568 48.2757 95.693 37.8819 93.4462C27.4881 91.1994 18.1603 85.5018 11.416 77.2803C4.67171 69.0587 0.90773 58.797 0.7364 48.1645C0.577746 38.3186 3.50844 28.6913 9.08523 20.6231C9.82482 19.5531 11.3088 19.3619 12.3405 20.154C13.3722 20.9462 13.5604 22.4214 12.8268 23.4955C7.89432 30.7169 5.30468 39.3062 5.4462 48.0886C5.60039 57.6579 8.98797 66.8934 15.0578 74.2928C21.1277 81.6922 29.5227 86.82 38.8771 88.8421C48.2316 90.8643 57.995 89.6616 66.5791 85.4299C75.1633 81.1982 82.063 74.1865 86.1558 65.5353C90.2486 56.8841 91.2938 47.1026 89.1212 37.7819C86.9486 28.4613 81.6862 20.15 74.19 14.2001C67.3101 8.73947 58.9202 5.56278 50.1885 5.07731C48.8898 5.0051 47.8343 3.95746 47.8343 2.65672Z" fill="#4EAF4E"/>
<circle cx="12.9148" cy="19.7604" r="6.18981" fill="white" stroke="#4EAF4E" stroke-width="4"/>
</svg>
