<svg width="1200" height="252" viewBox="0 0 1200 252" fill="none" xmlns="http://www.w3.org/2000/svg">
<path d="M0 20C0 8.9543 8.95431 0 20 0H1180C1191.05 0 1200 8.95431 1200 20V232C1200 243.046 1191.05 252 1180 252H20C8.95429 252 0 243.046 0 232V20Z" fill="#181818"/>
<mask id="mask0_1_1781" style="mask-type:alpha" maskUnits="userSpaceOnUse" x="0" y="0" width="1200" height="252">
<path d="M0 20C0 8.9543 8.95431 0 20 0H1180C1191.05 0 1200 8.95431 1200 20V232C1200 243.046 1191.05 252 1180 252H20C8.95429 252 0 243.046 0 232V20Z" fill="#181818"/>
</mask>
<g mask="url(#mask0_1_1781)">
<g opacity="0.51">
<path d="M1196.95 3.02007C1196.95 3.0054 1196.95 2.99372 1196.95 2.97905C1196.92 1.46604 1196.88 -0.0528097 1196.85 -1.56581C1196.84 -1.9981 1196.46 -2.36054 1196.02 -2.35063C1194.51 -2.31594 1192.99 -2.28111 1191.48 -2.24642C1191.47 -2.24615 1191.45 -2.2429 1191.44 -2.23965C1191.02 -2.20677 1190.69 -1.84537 1190.69 -1.42477C1190.73 0.088234 1190.76 1.60707 1190.8 3.12007C1190.81 3.55236 1191.19 3.9148 1191.62 3.90489C1193.13 3.8702 1194.65 3.83539 1196.17 3.8007C1196.4 3.79534 1196.58 3.70356 1196.7 3.57209C1196.71 3.56313 1196.72 3.55716 1196.73 3.54819C1196.73 3.54222 1196.74 3.53325 1196.75 3.52728C1196.87 3.40763 1196.94 3.23635 1196.95 3.02007ZM1192.39 2.27994C1192.37 1.29853 1192.35 0.322974 1192.32 -0.658433C1192.57 -0.664193 1192.83 -0.670086 1193.08 -0.675845C1193.81 -0.692453 1194.54 -0.709204 1195.26 -0.725812C1195.28 -0.0014402 1195.29 0.72879 1195.31 1.45316C1195.32 1.70436 1195.32 1.96138 1195.33 2.21258C1194.35 2.23508 1193.37 2.25757 1192.39 2.27994Z" fill="url(#paint0_linear_1_1781)"/>
<path d="M1174.23 3.50078C1174.2 1.98777 1174.16 0.468928 1174.13 -1.04408C1174.12 -1.47636 1173.74 -1.83881 1173.31 -1.8289C1171.79 -1.79421 1170.27 -1.75938 1168.76 -1.72469C1168.33 -1.71478 1167.97 -1.33533 1167.98 -0.903041C1168.01 0.609962 1168.05 2.12881 1168.08 3.64181C1168.09 4.0741 1168.47 4.43654 1168.9 4.42663C1170.42 4.39194 1171.93 4.35712 1173.45 4.32243C1173.68 4.31707 1173.86 4.2253 1173.99 4.09383C1173.99 4.08487 1174 4.0789 1174.01 4.06993C1174.01 4.06396 1174.02 4.05499 1174.03 4.04902C1174.16 3.92041 1174.24 3.74029 1174.23 3.50078ZM1169.67 2.80169C1169.65 1.82028 1169.63 0.844712 1169.6 -0.136696C1170.59 -0.159197 1171.56 -0.181574 1172.54 -0.204075C1172.57 0.777333 1172.59 1.75291 1172.61 2.73432C1171.63 2.75682 1170.65 2.77932 1169.67 2.80169Z" fill="url(#paint1_linear_1_1781)"/>
<path d="M1197.47 25.6976C1197.43 24.1845 1197.4 22.6657 1197.36 21.1527C1197.35 20.7204 1196.98 20.358 1196.54 20.3679C1195.03 20.4026 1193.51 20.4374 1192 20.4721C1191.57 20.482 1191.2 20.8614 1191.21 21.2937C1191.25 22.8067 1191.28 24.3256 1191.32 25.8386C1191.33 26.2709 1191.71 26.6333 1192.14 26.6234C1193.65 26.5887 1195.17 26.5539 1196.68 26.5192C1196.92 26.5138 1197.1 26.4221 1197.22 26.2906C1197.23 26.2816 1197.24 26.2757 1197.25 26.2667C1197.25 26.2607 1197.26 26.2518 1197.27 26.2458C1197.39 26.1172 1197.47 25.9371 1197.47 25.6976ZM1192.91 24.9985C1192.89 24.017 1192.86 23.0415 1192.84 22.0601C1193.82 22.0376 1194.8 22.0152 1195.78 21.9927C1195.8 22.9741 1195.82 23.9497 1195.85 24.9311C1194.87 24.9536 1193.88 24.9761 1192.91 24.9985Z" fill="url(#paint2_linear_1_1781)"/>
<path d="M1151.51 4.02119C1151.48 2.50819 1151.44 0.989354 1151.41 -0.523649C1151.4 -0.926728 1151.07 -1.26117 1150.68 -1.30192C1150.65 -1.3041 1150.62 -1.30927 1150.59 -1.30847C1149.07 -1.27378 1147.55 -1.23896 1146.04 -1.20428C1145.61 -1.19436 1145.25 -0.81491 1145.26 -0.382623C1145.29 1.13038 1145.33 2.64923 1145.36 4.16224C1145.36 4.19729 1145.37 4.22637 1145.37 4.25843C1145.43 4.64577 1145.78 4.9563 1146.18 4.94706C1147.7 4.91237 1149.21 4.87754 1150.73 4.84285C1150.96 4.83749 1151.14 4.74571 1151.27 4.61425C1151.27 4.60529 1151.28 4.59932 1151.29 4.59036C1151.29 4.58438 1151.3 4.57542 1151.31 4.56944C1151.43 4.43798 1151.51 4.25785 1151.51 4.02119ZM1146.95 3.32509C1146.94 3.09143 1146.94 2.85775 1146.93 2.62408C1146.92 1.87634 1146.9 1.1286 1146.88 0.386703C1147.63 0.369559 1148.38 0.352416 1149.12 0.335406C1149.35 0.330049 1149.59 0.3247 1149.82 0.319343C1149.84 1.30075 1149.86 2.27631 1149.89 3.25771C1148.91 3.27723 1147.93 3.29974 1146.95 3.32509Z" fill="url(#paint3_linear_1_1781)"/>
<path d="M1174.75 26.218C1174.72 24.705 1174.68 23.1862 1174.65 21.6732C1174.64 21.2409 1174.26 20.8785 1173.83 20.8884C1172.31 20.9231 1170.79 20.9579 1169.28 20.9926C1168.85 21.0025 1168.49 21.3819 1168.5 21.8142C1168.53 23.3272 1168.57 24.8461 1168.6 26.3591C1168.61 26.7914 1168.99 27.1538 1169.42 27.1439C1170.94 27.1092 1172.45 27.0744 1173.97 27.0397C1174.2 27.0343 1174.38 26.9426 1174.51 26.8111C1174.51 26.8021 1174.52 26.7962 1174.53 26.7872C1174.53 26.7812 1174.54 26.7723 1174.55 26.7663C1174.68 26.6377 1174.76 26.4576 1174.75 26.218ZM1170.19 25.5219C1170.17 24.5405 1170.14 23.565 1170.12 22.5836C1171.1 22.5611 1172.08 22.5387 1173.06 22.5162C1173.08 23.4976 1173.1 24.4732 1173.13 25.4546C1172.15 25.4741 1171.17 25.4966 1170.19 25.5219Z" fill="url(#paint4_linear_1_1781)"/>
<path d="M1197.99 48.4153C1197.95 46.9023 1197.92 45.3835 1197.88 43.8705C1197.87 43.4382 1197.49 43.0757 1197.06 43.0857C1195.55 43.1203 1194.03 43.1552 1192.52 43.1898C1192.09 43.1998 1191.72 43.5792 1191.73 44.0115C1191.77 45.5245 1191.8 47.0434 1191.84 48.5564C1191.85 48.9887 1192.23 49.3511 1192.66 49.3412C1194.17 49.3065 1195.69 49.2717 1197.2 49.237C1197.44 49.2316 1197.62 49.1399 1197.74 49.0084C1197.75 48.9994 1197.76 48.9935 1197.76 48.9845C1197.77 48.9785 1197.78 48.9696 1197.78 48.9636C1197.91 48.835 1197.99 48.6548 1197.99 48.4153ZM1193.43 47.7192C1193.4 46.7378 1193.38 45.7622 1193.36 44.7808C1194.34 44.7583 1195.31 44.736 1196.3 44.7135C1196.32 45.6949 1196.34 46.6704 1196.36 47.6518C1195.38 47.6713 1194.4 47.6939 1193.43 47.7192Z" fill="url(#paint5_linear_1_1781)"/>
<path d="M1152.03 26.7398C1152 25.2268 1151.96 23.7079 1151.93 22.1949C1151.92 21.7626 1151.54 21.4002 1151.11 21.4101C1149.59 21.4448 1148.08 21.4796 1146.56 21.5143C1146.13 21.5242 1145.77 21.9037 1145.78 22.336C1145.81 23.849 1145.85 25.3678 1145.88 26.8808C1145.89 27.3131 1146.27 27.6755 1146.7 27.6656C1148.22 27.6309 1149.74 27.5961 1151.25 27.5614C1151.48 27.5561 1151.66 27.4643 1151.79 27.3328C1151.8 27.3239 1151.8 27.3179 1151.81 27.3089C1151.82 27.3029 1151.82 27.294 1151.83 27.288C1151.96 27.1594 1152.04 26.9793 1152.03 26.7398ZM1147.47 26.0437C1147.45 25.0623 1147.43 24.0867 1147.4 23.1053C1148.38 23.0828 1149.36 23.0604 1150.34 23.0379C1150.36 24.0193 1150.39 24.9949 1150.41 25.9763C1149.43 25.9958 1148.45 26.0183 1147.47 26.0437Z" fill="url(#paint6_linear_1_1781)"/>
<path d="M1175.27 48.9366C1175.24 47.4236 1175.2 45.9047 1175.17 44.3917C1175.16 43.9594 1174.78 43.597 1174.35 43.6069C1172.83 43.6416 1171.32 43.6764 1169.8 43.7111C1169.37 43.721 1169.01 44.1004 1169.02 44.5327C1169.05 46.0457 1169.09 47.5646 1169.12 49.0776C1169.13 49.5099 1169.51 49.8723 1169.94 49.8624C1171.46 49.8277 1172.98 49.7929 1174.49 49.7582C1174.72 49.7528 1174.9 49.6611 1175.03 49.5296C1175.04 49.5206 1175.04 49.5147 1175.05 49.5057C1175.06 49.4997 1175.06 49.4908 1175.07 49.4848C1175.2 49.3562 1175.28 49.1761 1175.27 48.9366ZM1170.71 48.2404C1170.69 47.259 1170.67 46.2835 1170.64 45.3021C1171.62 45.2796 1172.6 45.2572 1173.58 45.2347C1173.6 46.2161 1173.63 47.1917 1173.65 48.1731C1172.67 48.1926 1171.69 48.2151 1170.71 48.2404Z" fill="url(#paint7_linear_1_1781)"/>
<path d="M1198.51 71.1341C1198.48 69.6211 1198.44 68.1022 1198.41 66.5892C1198.4 66.157 1198.02 65.7945 1197.58 65.8044C1196.07 65.8391 1194.55 65.8739 1193.04 65.9086C1192.61 65.9185 1192.24 66.298 1192.25 66.7303C1192.29 68.2433 1192.32 69.7621 1192.36 71.2751C1192.37 71.7074 1192.75 72.0699 1193.18 72.06C1194.69 72.0253 1196.21 71.9904 1197.73 71.9557C1197.96 71.9504 1198.14 71.8586 1198.26 71.7271C1198.27 71.7182 1198.28 71.7122 1198.29 71.7032C1198.29 71.6973 1198.3 71.6883 1198.31 71.6823C1198.43 71.5537 1198.52 71.3736 1198.51 71.1341ZM1193.95 70.438C1193.92 69.4566 1193.9 68.481 1193.88 67.4996C1194.86 67.4771 1195.84 67.4547 1196.82 67.4322C1196.84 68.4136 1196.86 69.3892 1196.89 70.3706C1195.91 70.3901 1194.93 70.4126 1193.95 70.438Z" fill="url(#paint8_linear_1_1781)"/>
<path d="M1129.31 27.2605C1129.28 25.7475 1129.24 24.2286 1129.21 22.7156C1129.2 22.3125 1128.87 21.9781 1128.48 21.9373C1128.45 21.9352 1128.42 21.93 1128.39 21.9308C1126.87 21.9655 1125.36 22.0003 1123.84 22.035C1123.41 22.0449 1123.05 22.4244 1123.06 22.8567C1123.09 24.3697 1123.13 25.8885 1123.16 27.4015C1123.16 27.4365 1123.17 27.4656 1123.17 27.4977C1123.23 27.885 1123.58 28.1956 1123.98 28.1863C1125.5 28.1516 1127.02 28.1168 1128.53 28.0821C1128.76 28.0768 1128.94 27.985 1129.07 27.8535C1129.07 27.8446 1129.08 27.8386 1129.09 27.8296C1129.09 27.8236 1129.1 27.8147 1129.11 27.8087C1129.23 27.6772 1129.32 27.4971 1129.31 27.2605ZM1124.75 26.5644C1124.74 26.3307 1124.74 26.097 1124.73 25.8634C1124.72 25.1156 1124.7 24.3679 1124.68 23.626C1125.43 23.6088 1126.18 23.5917 1126.92 23.5747C1127.15 23.5693 1127.39 23.564 1127.62 23.5586C1127.64 24.54 1127.67 25.5156 1127.69 26.497C1126.71 26.5165 1125.73 26.539 1124.75 26.5644Z" fill="url(#paint9_linear_1_1781)"/>
<path d="M1152.55 49.4571C1152.52 47.9441 1152.48 46.4252 1152.45 44.9122C1152.44 44.4799 1152.06 44.1175 1151.63 44.1274C1150.11 44.1621 1148.6 44.1969 1147.08 44.2316C1146.65 44.2415 1146.29 44.621 1146.3 45.0533C1146.33 46.5663 1146.37 48.0851 1146.4 49.5981C1146.41 50.0304 1146.79 50.3928 1147.22 50.3829C1148.74 50.3482 1150.25 50.3134 1151.77 50.2787C1152 50.2734 1152.18 50.1816 1152.31 50.0501C1152.31 50.0412 1152.32 50.0352 1152.33 50.0262C1152.33 50.0203 1152.34 50.0113 1152.35 50.0053C1152.48 49.8767 1152.56 49.6966 1152.55 49.4571ZM1147.99 48.761C1147.97 47.7795 1147.94 46.804 1147.92 45.8226C1148.9 45.8001 1149.88 45.7777 1150.86 45.7552C1150.88 46.7366 1150.91 47.7122 1150.93 48.6936C1149.95 48.7131 1148.97 48.7356 1147.99 48.761Z" fill="url(#paint10_linear_1_1781)"/>
<path d="M1175.79 71.6548C1175.76 70.1418 1175.72 68.623 1175.69 67.11C1175.68 66.6777 1175.3 66.3153 1174.87 66.3252C1173.35 66.3599 1171.84 66.3947 1170.32 66.4294C1169.89 66.4393 1169.53 66.8187 1169.54 67.251C1169.57 68.764 1169.61 70.2829 1169.64 71.7959C1169.65 72.2282 1170.03 72.5906 1170.46 72.5807C1171.98 72.546 1173.5 72.5112 1175.01 72.4765C1175.24 72.4711 1175.42 72.3794 1175.55 72.2479C1175.56 72.2389 1175.56 72.233 1175.57 72.224C1175.58 72.218 1175.58 72.2091 1175.59 72.2031C1175.72 72.0745 1175.8 71.8944 1175.79 71.6548ZM1171.23 70.9587C1171.21 69.9773 1171.18 69.0018 1171.16 68.0203C1172.14 67.9978 1173.12 67.9755 1174.1 67.953C1174.12 68.9344 1174.15 69.91 1174.17 70.8914C1173.19 70.9109 1172.21 70.9334 1171.23 70.9587Z" fill="url(#paint11_linear_1_1781)"/>
<path d="M1199.03 93.8526C1199 92.3396 1198.96 90.8207 1198.93 89.3077C1198.92 88.8754 1198.54 88.513 1198.11 88.5229C1196.59 88.5576 1195.07 88.5924 1193.56 88.6271C1193.13 88.637 1192.77 89.0165 1192.78 89.4488C1192.81 90.9618 1192.85 92.4806 1192.88 93.9936C1192.89 94.4259 1193.27 94.7884 1193.7 94.7784C1195.21 94.7437 1196.73 94.7089 1198.25 94.6743C1198.48 94.6689 1198.66 94.5771 1198.78 94.4457C1198.79 94.4367 1198.8 94.4307 1198.81 94.4218C1198.81 94.4158 1198.82 94.4068 1198.83 94.4008C1198.96 94.2722 1199.04 94.0921 1199.03 93.8526ZM1194.47 93.1565C1194.45 92.1751 1194.42 91.1995 1194.4 90.2181C1195.38 90.1956 1196.36 90.1732 1197.34 90.1507C1197.36 91.1321 1197.38 92.1077 1197.41 93.0891C1196.43 93.1086 1195.45 93.134 1194.47 93.1565Z" fill="url(#paint12_linear_1_1781)"/>
<path d="M1129.84 49.9793C1129.8 48.4663 1129.77 46.9475 1129.73 45.4345C1129.72 45.0022 1129.34 44.6397 1128.91 44.6496C1127.4 44.6843 1125.88 44.7192 1124.37 44.7538C1123.93 44.7638 1123.57 45.1432 1123.58 45.5755C1123.62 47.0885 1123.65 48.6073 1123.68 50.1203C1123.69 50.5526 1124.07 50.9151 1124.51 50.9052C1126.02 50.8705 1127.54 50.8357 1129.05 50.801C1129.28 50.7956 1129.46 50.7038 1129.59 50.5724C1129.6 50.5634 1129.6 50.5574 1129.61 50.5485C1129.62 50.5425 1129.63 50.5335 1129.63 50.5275C1129.76 50.4019 1129.84 50.2188 1129.84 49.9793ZM1125.27 49.2832C1125.25 48.3018 1125.23 47.3262 1125.21 46.3448C1126.19 46.3223 1127.16 46.2999 1128.14 46.2774C1128.17 47.2589 1128.19 48.2344 1128.21 49.2158C1127.23 49.2354 1126.25 49.2578 1125.27 49.2832Z" fill="url(#paint13_linear_1_1781)"/>
<path d="M1153.07 72.1761C1153.04 70.6631 1153 69.1442 1152.97 67.6312C1152.96 67.1989 1152.58 66.8365 1152.15 66.8464C1150.64 66.8811 1149.12 66.9159 1147.6 66.9506C1147.17 66.9605 1146.81 67.34 1146.82 67.7723C1146.85 69.2853 1146.89 70.8041 1146.92 72.3171C1146.93 72.7494 1147.31 73.1118 1147.74 73.1019C1149.26 73.0672 1150.78 73.0324 1152.29 72.9977C1152.52 72.9924 1152.7 72.9006 1152.83 72.7692C1152.84 72.7602 1152.84 72.7542 1152.85 72.7452C1152.86 72.7393 1152.86 72.7303 1152.87 72.7243C1153 72.5987 1153.08 72.4156 1153.07 72.1761ZM1148.51 71.48C1148.49 70.4986 1148.47 69.523 1148.44 68.5416C1149.43 68.5191 1150.4 68.4967 1151.38 68.4742C1151.4 69.4556 1151.43 70.4312 1151.45 71.4126C1150.47 71.4321 1149.49 71.4546 1148.51 71.48Z" fill="url(#paint14_linear_1_1781)"/>
<path d="M1176.31 94.3736C1176.28 92.8606 1176.25 91.3418 1176.21 89.8288C1176.2 89.3965 1175.82 89.034 1175.39 89.0439C1173.88 89.0786 1172.36 89.1134 1170.84 89.1481C1170.41 89.158 1170.05 89.5375 1170.06 89.9698C1170.09 91.4828 1170.13 93.0016 1170.16 94.5146C1170.17 94.9469 1170.55 95.3094 1170.98 95.2995C1172.5 95.2648 1174.02 95.2299 1175.53 95.1953C1175.76 95.1899 1175.94 95.0981 1176.07 94.9667C1176.08 94.9577 1176.08 94.9517 1176.09 94.9428C1176.1 94.9368 1176.11 94.9278 1176.11 94.9218C1176.24 94.7962 1176.32 94.6131 1176.31 94.3736ZM1171.75 93.6775C1171.73 92.6961 1171.71 91.7205 1171.68 90.7391C1172.67 90.7166 1173.64 90.6942 1174.62 90.6717C1174.64 91.6532 1174.67 92.6287 1174.69 93.6101C1173.71 93.6296 1172.73 93.6521 1171.75 93.6775Z" fill="url(#paint15_linear_1_1781)"/>
<path d="M1199.55 116.571C1199.52 115.058 1199.48 113.54 1199.45 112.026C1199.44 111.594 1199.06 111.232 1198.63 111.242C1197.11 111.276 1195.6 111.311 1194.08 111.346C1193.65 111.356 1193.29 111.735 1193.3 112.168C1193.33 113.681 1193.37 115.199 1193.4 116.712C1193.41 117.145 1193.79 117.507 1194.22 117.497C1195.74 117.463 1197.25 117.428 1198.77 117.393C1199 117.388 1199.18 117.296 1199.31 117.164C1199.31 117.155 1199.32 117.149 1199.33 117.141C1199.33 117.135 1199.34 117.126 1199.35 117.12C1199.47 116.994 1199.56 116.811 1199.55 116.571ZM1194.99 115.875C1194.97 114.894 1194.94 113.918 1194.92 112.937C1195.9 112.914 1196.88 112.892 1197.86 112.869C1197.88 113.851 1197.91 114.826 1197.93 115.808C1196.95 115.827 1195.97 115.853 1194.99 115.875Z" fill="url(#paint16_linear_1_1781)"/>
<path d="M1107.12 50.4995C1107.08 48.9865 1107.05 47.4676 1107.01 45.9546C1107 45.5516 1106.68 45.2171 1106.29 45.1764C1106.26 45.1742 1106.23 45.169 1106.19 45.1698C1104.68 45.2045 1103.16 45.2393 1101.65 45.274C1101.21 45.2839 1100.85 45.6634 1100.86 46.0957C1100.9 47.6087 1100.93 49.1275 1100.97 50.6405C1100.97 50.6756 1100.97 50.7047 1100.98 50.7367C1101.04 51.1241 1101.38 51.4346 1101.79 51.4253C1103.3 51.3907 1104.82 51.3558 1106.33 51.3211C1106.57 51.3158 1106.75 51.224 1106.87 51.0925C1106.88 51.0836 1106.89 51.0776 1106.89 51.0687C1106.9 51.0627 1106.91 51.0537 1106.91 51.0477C1107.04 50.9193 1107.12 50.7361 1107.12 50.4995ZM1102.55 49.8034C1102.55 49.5697 1102.54 49.336 1102.54 49.1024C1102.52 48.3546 1102.5 47.6069 1102.49 46.865C1103.23 46.8479 1103.98 46.8307 1104.72 46.8137C1104.96 46.8083 1105.19 46.803 1105.43 46.7976C1105.45 47.779 1105.47 48.7546 1105.49 49.736C1104.51 49.7585 1103.53 49.778 1102.55 49.8034Z" fill="url(#paint17_linear_1_1781)"/>
<path d="M1130.35 72.6966C1130.32 71.1836 1130.28 69.6647 1130.25 68.1517C1130.24 67.7194 1129.86 67.357 1129.43 67.3669C1127.91 67.4016 1126.4 67.4364 1124.88 67.4711C1124.45 67.481 1124.09 67.8605 1124.1 68.2928C1124.13 69.8058 1124.17 71.3246 1124.2 72.8376C1124.21 73.2699 1124.59 73.6324 1125.02 73.6224C1126.54 73.5878 1128.06 73.5529 1129.57 73.5182C1129.8 73.5129 1129.98 73.4211 1130.11 73.2896C1130.12 73.2807 1130.12 73.2747 1130.13 73.2658C1130.14 73.2598 1130.14 73.2508 1130.15 73.2448C1130.28 73.1192 1130.36 72.9361 1130.35 72.6966ZM1125.79 72.0005C1125.77 71.0191 1125.75 70.0435 1125.72 69.0621C1126.7 69.0396 1127.68 69.0172 1128.66 68.9947C1128.68 69.9761 1128.71 70.9517 1128.73 71.9331C1127.75 71.9556 1126.77 71.9751 1125.79 72.0005Z" fill="url(#paint18_linear_1_1781)"/>
<path d="M1153.59 94.894C1153.56 93.381 1153.52 91.8621 1153.49 90.3491C1153.48 89.9168 1153.1 89.5544 1152.67 89.5643C1151.15 89.599 1149.64 89.6338 1148.12 89.6685C1147.69 89.6784 1147.33 90.0579 1147.34 90.4902C1147.37 92.0032 1147.41 93.522 1147.44 95.035C1147.45 95.4673 1147.83 95.8298 1148.26 95.8198C1149.78 95.7852 1151.3 95.7503 1152.81 95.7156C1153.04 95.7103 1153.22 95.6185 1153.35 95.487C1153.36 95.4781 1153.36 95.4721 1153.37 95.4632C1153.38 95.4572 1153.38 95.4482 1153.39 95.4422C1153.52 95.3166 1153.6 95.1335 1153.59 94.894ZM1149.03 94.1979C1149.01 93.2165 1148.99 92.2409 1148.96 91.2595C1149.94 91.237 1150.92 91.2146 1151.9 91.1921C1151.92 92.1735 1151.95 93.1491 1151.97 94.1305C1150.99 94.153 1150.01 94.1725 1149.03 94.1979Z" fill="url(#paint19_linear_1_1781)"/>
<path d="M1176.83 117.092C1176.8 115.579 1176.76 114.06 1176.73 112.547C1176.72 112.115 1176.34 111.752 1175.91 111.762C1174.4 111.797 1172.88 111.832 1171.36 111.866C1170.93 111.876 1170.57 112.256 1170.58 112.688C1170.61 114.201 1170.65 115.72 1170.68 117.233C1170.69 117.665 1171.07 118.028 1171.5 118.018C1173.02 117.983 1174.54 117.948 1176.05 117.914C1176.28 117.908 1176.46 117.816 1176.59 117.685C1176.6 117.676 1176.6 117.67 1176.61 117.661C1176.62 117.655 1176.62 117.646 1176.63 117.64C1176.76 117.515 1176.84 117.331 1176.83 117.092ZM1172.27 116.396C1172.25 115.414 1172.23 114.439 1172.2 113.457C1173.18 113.435 1174.16 113.413 1175.14 113.39C1175.16 114.372 1175.19 115.347 1175.21 116.328C1174.23 116.351 1173.25 116.373 1172.27 116.396Z" fill="url(#paint20_linear_1_1781)"/>
<path d="M1200.07 139.289C1200.04 137.776 1200 136.257 1199.97 134.744C1199.96 134.312 1199.58 133.949 1199.15 133.959C1197.63 133.994 1196.11 134.029 1194.6 134.063C1194.17 134.073 1193.81 134.453 1193.82 134.885C1193.85 136.398 1193.89 137.917 1193.92 139.43C1193.93 139.862 1194.31 140.225 1194.74 140.215C1196.26 140.18 1197.77 140.145 1199.29 140.11C1199.52 140.105 1199.7 140.013 1199.83 139.882C1199.83 139.873 1199.84 139.867 1199.85 139.858C1199.85 139.852 1199.86 139.843 1199.87 139.837C1199.99 139.711 1200.08 139.528 1200.07 139.289ZM1195.51 138.593C1195.49 137.611 1195.46 136.636 1195.44 135.654C1196.42 135.632 1197.4 135.609 1198.38 135.587C1198.4 136.568 1198.43 137.544 1198.45 138.525C1197.47 138.548 1196.49 138.57 1195.51 138.593Z" fill="url(#paint21_linear_1_1781)"/>
<path d="M1107.8 72.8742C1107.77 71.3612 1107.73 69.8424 1107.7 68.3294C1107.69 67.8971 1107.31 67.5346 1106.88 67.5445C1105.36 67.5792 1103.84 67.614 1102.33 67.6487C1101.9 67.6586 1101.54 68.0381 1101.55 68.4704C1101.58 69.9834 1101.61 71.5022 1101.65 73.0152C1101.66 73.4475 1102.04 73.81 1102.47 73.8001C1103.98 73.7654 1105.5 73.7305 1107.02 73.6959C1107.25 73.6905 1107.43 73.5987 1107.55 73.4673C1107.56 73.4583 1107.57 73.4523 1107.58 73.4433C1107.58 73.4374 1107.59 73.4284 1107.6 73.4224C1107.72 73.2968 1107.81 73.1137 1107.8 72.8742ZM1103.24 72.1781C1103.22 71.1967 1103.19 70.2211 1103.17 69.2397C1104.15 69.2172 1105.13 69.1949 1106.11 69.1723C1106.13 70.1538 1106.15 71.1293 1106.18 72.1107C1105.19 72.1332 1104.22 72.1527 1103.24 72.1781Z" fill="url(#paint22_linear_1_1781)"/>
<path d="M1130.88 95.4151C1130.84 93.9021 1130.81 92.3832 1130.77 90.8702C1130.76 90.4379 1130.38 90.0755 1129.95 90.0854C1128.44 90.1201 1126.92 90.1549 1125.4 90.1896C1124.97 90.1995 1124.61 90.579 1124.62 91.0113C1124.65 92.5243 1124.69 94.0431 1124.72 95.5561C1124.73 95.9884 1125.11 96.3508 1125.55 96.3409C1127.06 96.3062 1128.58 96.2714 1130.09 96.2367C1130.32 96.2314 1130.5 96.1396 1130.63 96.0081C1130.64 95.9992 1130.64 95.9932 1130.65 95.9842C1130.66 95.9783 1130.67 95.9693 1130.67 95.9633C1130.8 95.8377 1130.88 95.6546 1130.88 95.4151ZM1126.31 94.719C1126.29 93.7376 1126.27 92.762 1126.24 91.7806C1127.23 91.7581 1128.2 91.7357 1129.18 91.7132C1129.21 92.6946 1129.23 93.6702 1129.25 94.6516C1128.27 94.6741 1127.29 94.6936 1126.31 94.719Z" fill="url(#paint23_linear_1_1781)"/>
<path d="M1154.12 117.613C1154.08 116.1 1154.05 114.581 1154.01 113.068C1154 112.635 1153.62 112.273 1153.19 112.283C1151.68 112.318 1150.16 112.352 1148.64 112.387C1148.21 112.397 1147.85 112.776 1147.86 113.209C1147.89 114.722 1147.93 116.241 1147.96 117.754C1147.97 118.186 1148.35 118.548 1148.79 118.538C1150.3 118.504 1151.82 118.469 1153.33 118.434C1153.56 118.429 1153.74 118.337 1153.87 118.206C1153.88 118.197 1153.88 118.191 1153.89 118.182C1153.9 118.176 1153.91 118.167 1153.91 118.161C1154.04 118.035 1154.12 117.852 1154.12 117.613ZM1149.55 116.917C1149.53 115.935 1149.51 114.96 1149.48 113.978C1150.47 113.956 1151.44 113.933 1152.42 113.911C1152.45 114.892 1152.47 115.868 1152.49 116.849C1151.51 116.872 1150.53 116.891 1149.55 116.917Z" fill="url(#paint24_linear_1_1781)"/>
<path d="M1177.36 139.81C1177.32 138.297 1177.29 136.779 1177.25 135.266C1177.24 134.833 1176.86 134.471 1176.43 134.481C1174.92 134.516 1173.4 134.55 1171.88 134.585C1171.45 134.595 1171.09 134.974 1171.1 135.407C1171.13 136.92 1171.17 138.439 1171.2 139.952C1171.21 140.384 1171.59 140.746 1172.03 140.736C1173.54 140.702 1175.06 140.667 1176.57 140.632C1176.8 140.627 1176.98 140.535 1177.11 140.404C1177.12 140.395 1177.12 140.389 1177.13 140.38C1177.14 140.374 1177.15 140.365 1177.15 140.359C1177.28 140.233 1177.36 140.05 1177.36 139.81ZM1172.79 139.114C1172.77 138.133 1172.75 137.157 1172.72 136.176C1173.71 136.154 1174.68 136.131 1175.66 136.109C1175.69 137.09 1175.71 138.066 1175.73 139.047C1174.75 139.07 1173.77 139.092 1172.79 139.114Z" fill="url(#paint25_linear_1_1781)"/>
<path d="M1200.59 162.008C1200.56 160.495 1200.52 158.976 1200.49 157.463C1200.48 157.031 1200.1 156.668 1199.67 156.678C1198.15 156.713 1196.64 156.748 1195.12 156.783C1194.69 156.792 1194.33 157.172 1194.34 157.604C1194.37 159.117 1194.41 160.636 1194.44 162.149C1194.45 162.581 1194.83 162.944 1195.26 162.934C1196.78 162.899 1198.3 162.864 1199.81 162.83C1200.04 162.824 1200.22 162.733 1200.35 162.601C1200.36 162.592 1200.36 162.586 1200.37 162.577C1200.38 162.571 1200.38 162.562 1200.39 162.556C1200.52 162.431 1200.6 162.248 1200.59 162.008ZM1196.03 161.312C1196.01 160.33 1195.99 159.355 1195.96 158.374C1196.94 158.351 1197.92 158.329 1198.9 158.306C1198.92 159.288 1198.95 160.263 1198.97 161.245C1197.99 161.267 1197.01 161.289 1196.03 161.312Z" fill="url(#paint26_linear_1_1781)"/>
<path d="M1084.92 73.7419C1084.88 72.2289 1084.85 70.7101 1084.81 69.1971C1084.8 68.794 1084.48 68.4595 1084.09 68.4188C1084.05 68.4166 1084.03 68.4114 1083.99 68.4122C1082.48 68.4469 1080.96 68.4818 1079.45 68.5165C1079.01 68.5264 1078.65 68.9058 1078.66 69.3381C1078.7 70.8511 1078.73 72.3699 1078.77 73.8829C1078.77 73.918 1078.77 73.9471 1078.78 73.9791C1078.83 74.3665 1079.18 74.677 1079.59 74.6678C1081.1 74.6331 1082.62 74.5983 1084.13 74.5636C1084.37 74.5582 1084.54 74.4664 1084.67 74.335C1084.68 74.326 1084.68 74.32 1084.69 74.3111C1084.7 74.3051 1084.71 74.2961 1084.71 74.2902C1084.84 74.1587 1084.92 73.9756 1084.92 73.7419ZM1080.36 73.0428C1080.35 72.8091 1080.35 72.5755 1080.34 72.3418C1080.32 71.5941 1080.31 70.8463 1080.29 70.1044C1081.04 70.0873 1081.78 70.0701 1082.53 70.0531C1082.76 70.0478 1082.99 70.0424 1083.23 70.0371C1083.25 71.0185 1083.27 71.994 1083.29 72.9755C1082.31 72.998 1081.33 73.0175 1080.36 73.0428Z" fill="url(#paint27_linear_1_1781)"/>
<path d="M1108.16 95.9388C1108.12 94.4258 1108.09 92.9069 1108.05 91.3939C1108.04 90.9616 1107.66 90.5992 1107.23 90.6091C1105.72 90.6438 1104.2 90.6786 1102.69 90.7133C1102.25 90.7232 1101.89 91.1027 1101.9 91.535C1101.94 93.048 1101.97 94.5668 1102 96.0798C1102.01 96.5121 1102.39 96.8745 1102.83 96.8646C1104.34 96.8299 1105.86 96.7951 1107.37 96.7604C1107.61 96.7551 1107.78 96.6633 1107.91 96.5318C1107.92 96.5229 1107.92 96.5169 1107.93 96.5079C1107.94 96.502 1107.95 96.493 1107.95 96.487C1108.08 96.3584 1108.16 96.1753 1108.16 95.9388ZM1103.6 95.2397C1103.57 94.2583 1103.55 93.2827 1103.53 92.3013C1104.51 92.2788 1105.49 92.2564 1106.47 92.2339C1106.49 93.2153 1106.51 94.1909 1106.53 95.1723C1105.55 95.1948 1104.57 95.2143 1103.6 95.2397Z" fill="url(#paint28_linear_1_1781)"/>
<path d="M1131.39 118.136C1131.36 116.623 1131.32 115.105 1131.29 113.592C1131.28 113.159 1130.9 112.797 1130.47 112.807C1128.95 112.841 1127.43 112.876 1125.92 112.911C1125.49 112.921 1125.13 113.3 1125.14 113.733C1125.17 115.246 1125.21 116.764 1125.24 118.277C1125.25 118.71 1125.63 119.072 1126.06 119.062C1127.58 119.028 1129.09 118.993 1130.61 118.958C1130.84 118.953 1131.02 118.861 1131.15 118.729C1131.15 118.721 1131.16 118.715 1131.17 118.706C1131.17 118.7 1131.18 118.691 1131.19 118.685C1131.32 118.556 1131.4 118.373 1131.39 118.136ZM1126.83 117.437C1126.81 116.456 1126.79 115.48 1126.76 114.499C1127.75 114.476 1128.72 114.454 1129.7 114.432C1129.73 115.413 1129.75 116.389 1129.77 117.37C1128.79 117.392 1127.81 117.412 1126.83 117.437Z" fill="url(#paint29_linear_1_1781)"/>
<path d="M1154.63 140.334C1154.6 138.821 1154.56 137.302 1154.53 135.789C1154.52 135.357 1154.14 134.995 1153.71 135.004C1152.19 135.039 1150.68 135.074 1149.16 135.109C1148.73 135.119 1148.37 135.498 1148.38 135.93C1148.41 137.443 1148.45 138.962 1148.48 140.475C1148.49 140.907 1148.87 141.27 1149.3 141.26C1150.82 141.225 1152.34 141.191 1153.85 141.156C1154.08 141.15 1154.26 141.059 1154.39 140.927C1154.39 140.918 1154.4 140.912 1154.41 140.903C1154.41 140.897 1154.42 140.888 1154.43 140.882C1154.56 140.754 1154.64 140.571 1154.63 140.334ZM1150.07 139.635C1150.05 138.654 1150.03 137.678 1150.01 136.697C1150.99 136.674 1151.96 136.652 1152.94 136.629C1152.97 137.611 1152.99 138.586 1153.01 139.568C1152.03 139.59 1151.05 139.613 1150.07 139.635Z" fill="url(#paint30_linear_1_1781)"/>
<path d="M1177.87 162.531C1177.84 161.018 1177.8 159.499 1177.77 157.986C1177.76 157.554 1177.38 157.191 1176.95 157.201C1175.43 157.236 1173.91 157.271 1172.4 157.305C1171.97 157.315 1171.61 157.695 1171.62 158.127C1171.65 159.64 1171.69 161.159 1171.72 162.672C1171.73 163.104 1172.11 163.467 1172.54 163.457C1174.05 163.422 1175.57 163.387 1177.09 163.352C1177.32 163.347 1177.5 163.255 1177.62 163.124C1177.63 163.115 1177.64 163.109 1177.65 163.1C1177.65 163.094 1177.66 163.085 1177.67 163.079C1177.8 162.95 1177.88 162.767 1177.87 162.531ZM1173.31 161.832C1173.29 160.85 1173.27 159.875 1173.24 158.893C1174.22 158.871 1175.2 158.848 1176.18 158.826C1176.2 159.807 1176.23 160.783 1176.25 161.764C1175.27 161.787 1174.29 161.809 1173.31 161.832Z" fill="url(#paint31_linear_1_1781)"/>
<path d="M1201.11 184.728C1201.07 183.215 1201.04 181.696 1201.01 180.183C1201 179.751 1200.62 179.389 1200.18 179.399C1198.67 179.433 1197.15 179.468 1195.64 179.503C1195.21 179.513 1194.84 179.892 1194.85 180.325C1194.89 181.838 1194.92 183.356 1194.96 184.869C1194.97 185.302 1195.35 185.664 1195.78 185.654C1197.29 185.619 1198.81 185.585 1200.32 185.55C1200.56 185.545 1200.74 185.453 1200.86 185.321C1200.87 185.312 1200.88 185.306 1200.89 185.297C1200.89 185.291 1200.9 185.283 1200.91 185.277C1201.03 185.148 1201.12 184.965 1201.11 184.728ZM1196.55 184.029C1196.53 183.048 1196.5 182.072 1196.48 181.091C1197.46 181.068 1198.44 181.046 1199.42 181.023C1199.44 182.005 1199.46 182.98 1199.49 183.962C1198.51 183.984 1197.53 184.007 1196.55 184.029Z" fill="url(#paint32_linear_1_1781)"/>
<path d="M1085.44 96.4609C1085.4 94.9479 1085.37 93.429 1085.33 91.916C1085.32 91.4837 1084.94 91.1213 1084.51 91.1312C1083 91.1659 1081.48 91.2007 1079.97 91.2354C1079.53 91.2453 1079.17 91.6248 1079.18 92.0571C1079.22 93.5701 1079.25 95.0889 1079.29 96.6019C1079.3 97.0342 1079.68 97.3966 1080.11 97.3867C1081.62 97.352 1083.14 97.3172 1084.65 97.2825C1084.89 97.2772 1085.07 97.1854 1085.19 97.0539C1085.2 97.0449 1085.21 97.039 1085.21 97.03C1085.22 97.024 1085.23 97.0151 1085.23 97.0091C1085.36 96.8805 1085.45 96.6974 1085.44 96.4609ZM1080.88 95.7618C1080.85 94.7804 1080.83 93.8048 1080.81 92.8234C1081.79 92.8009 1082.77 92.7785 1083.75 92.756C1083.77 93.7374 1083.79 94.713 1083.82 95.6944C1082.83 95.7169 1081.86 95.7364 1080.88 95.7618Z" fill="url(#paint33_linear_1_1781)"/>
<path d="M1108.68 118.658C1108.64 117.145 1108.61 115.626 1108.57 114.113C1108.56 113.681 1108.18 113.318 1107.75 113.328C1106.24 113.363 1104.72 113.397 1103.21 113.432C1102.77 113.442 1102.41 113.822 1102.42 114.254C1102.46 115.767 1102.49 117.286 1102.52 118.799C1102.53 119.231 1102.91 119.593 1103.35 119.583C1104.86 119.549 1106.38 119.514 1107.89 119.479C1108.12 119.474 1108.3 119.382 1108.43 119.251C1108.44 119.242 1108.44 119.236 1108.45 119.227C1108.46 119.221 1108.47 119.212 1108.47 119.206C1108.6 119.077 1108.68 118.894 1108.68 118.658ZM1104.12 117.959C1104.09 116.977 1104.07 116.002 1104.05 115.02C1105.03 114.998 1106.01 114.975 1106.99 114.953C1107.01 115.934 1107.03 116.91 1107.05 117.891C1106.07 117.914 1105.09 117.933 1104.12 117.959Z" fill="url(#paint34_linear_1_1781)"/>
<path d="M1131.91 140.855C1131.88 139.342 1131.84 137.823 1131.81 136.31C1131.8 135.878 1131.42 135.516 1130.99 135.526C1129.48 135.56 1127.96 135.595 1126.44 135.63C1126.01 135.64 1125.65 136.019 1125.66 136.451C1125.69 137.964 1125.73 139.483 1125.76 140.996C1125.77 141.428 1126.15 141.791 1126.58 141.781C1128.1 141.746 1129.62 141.712 1131.13 141.677C1131.36 141.671 1131.54 141.58 1131.67 141.448C1131.68 141.439 1131.68 141.433 1131.69 141.424C1131.7 141.418 1131.7 141.409 1131.71 141.403C1131.84 141.275 1131.92 141.092 1131.91 140.855ZM1127.35 140.156C1127.33 139.175 1127.31 138.199 1127.29 137.218C1128.27 137.195 1129.24 137.173 1130.22 137.15C1130.25 138.132 1130.27 139.107 1130.29 140.089C1129.31 140.111 1128.33 140.131 1127.35 140.156Z" fill="url(#paint35_linear_1_1781)"/>
<path d="M1155.15 163.053C1155.12 161.54 1155.08 160.021 1155.05 158.508C1155.04 158.076 1154.66 157.713 1154.23 157.723C1152.72 157.758 1151.2 157.793 1149.68 157.828C1149.25 157.837 1148.89 158.217 1148.9 158.649C1148.93 160.162 1148.97 161.681 1149 163.194C1149.01 163.626 1149.39 163.989 1149.82 163.979C1151.34 163.944 1152.86 163.909 1154.37 163.875C1154.6 163.869 1154.78 163.778 1154.91 163.646C1154.92 163.637 1154.92 163.631 1154.93 163.622C1154.94 163.616 1154.94 163.607 1154.95 163.601C1155.08 163.473 1155.16 163.29 1155.15 163.053ZM1150.59 162.354C1150.57 161.373 1150.55 160.397 1150.53 159.416C1151.51 159.393 1152.48 159.371 1153.47 159.348C1153.49 160.33 1153.51 161.305 1153.53 162.287C1152.55 162.309 1151.58 162.331 1150.59 162.354Z" fill="url(#paint36_linear_1_1781)"/>
<path d="M1178.39 185.251C1178.36 183.738 1178.32 182.219 1178.29 180.706C1178.28 180.273 1177.9 179.911 1177.47 179.921C1175.95 179.956 1174.43 179.99 1172.92 180.025C1172.49 180.035 1172.13 180.414 1172.14 180.847C1172.17 182.36 1172.21 183.879 1172.24 185.392C1172.25 185.824 1172.63 186.186 1173.06 186.176C1174.58 186.142 1176.09 186.107 1177.61 186.072C1177.84 186.067 1178.02 185.975 1178.15 185.844C1178.15 185.835 1178.16 185.829 1178.17 185.82C1178.17 185.814 1178.18 185.805 1178.19 185.799C1178.32 185.67 1178.4 185.487 1178.39 185.251ZM1173.83 184.551C1173.81 183.57 1173.79 182.594 1173.76 181.613C1174.75 181.591 1175.72 181.568 1176.7 181.546C1176.73 182.527 1176.75 183.503 1176.77 184.484C1175.79 184.507 1174.81 184.529 1173.83 184.551Z" fill="url(#paint37_linear_1_1781)"/>
<path d="M1201.63 207.447C1201.6 205.934 1201.56 204.415 1201.53 202.902C1201.52 202.47 1201.14 202.108 1200.71 202.118C1199.19 202.152 1197.67 202.187 1196.16 202.222C1195.73 202.232 1195.37 202.611 1195.38 203.044C1195.41 204.557 1195.44 206.075 1195.48 207.588C1195.49 208.021 1195.87 208.383 1196.3 208.373C1197.81 208.338 1199.33 208.304 1200.85 208.269C1201.08 208.264 1201.26 208.172 1201.38 208.04C1201.39 208.031 1201.4 208.025 1201.41 208.016C1201.41 208.011 1201.42 208.002 1201.43 207.996C1201.56 207.867 1201.64 207.684 1201.63 207.447ZM1197.07 206.748C1197.05 205.767 1197.03 204.791 1197 203.81C1197.98 203.787 1198.96 203.765 1199.94 203.742C1199.96 204.724 1199.99 205.699 1200.01 206.681C1199.03 206.703 1198.05 206.726 1197.07 206.748Z" fill="url(#paint38_linear_1_1781)"/>
<path d="M1062.72 96.9812C1062.68 95.4682 1062.65 93.9493 1062.61 92.4363C1062.6 92.0333 1062.28 91.6988 1061.89 91.6581C1061.86 91.6559 1061.83 91.6507 1061.79 91.6515C1060.28 91.6862 1058.76 91.721 1057.25 91.7557C1056.81 91.7656 1056.45 92.1451 1056.46 92.5774C1056.5 94.0904 1056.53 95.6092 1056.57 97.1222C1056.57 97.1573 1056.57 97.1863 1056.58 97.2184C1056.64 97.6057 1056.98 97.9163 1057.39 97.907C1058.9 97.8724 1060.42 97.8375 1061.93 97.8028C1062.17 97.7975 1062.35 97.7057 1062.47 97.5742C1062.48 97.5653 1062.48 97.5593 1062.49 97.5503C1062.5 97.5444 1062.51 97.5354 1062.51 97.5294C1062.64 97.398 1062.72 97.2148 1062.72 96.9812ZM1058.16 96.2821C1058.15 96.0484 1058.15 95.8147 1058.14 95.5811C1058.12 94.8333 1058.11 94.0856 1058.09 93.3437C1058.84 93.3266 1059.58 93.3094 1060.33 93.2924C1060.56 93.2871 1060.79 93.2817 1061.03 93.2763C1061.05 94.2577 1061.07 95.2333 1061.1 96.2147C1060.11 96.2372 1059.14 96.2567 1058.16 96.2821Z" fill="url(#paint39_linear_1_1781)"/>
<path d="M1085.96 119.178C1085.92 117.665 1085.89 116.146 1085.85 114.633C1085.84 114.201 1085.46 113.839 1085.03 113.848C1083.52 113.883 1082 113.918 1080.49 113.953C1080.05 113.963 1079.69 114.342 1079.7 114.774C1079.74 116.287 1079.77 117.806 1079.81 119.319C1079.82 119.751 1080.2 120.114 1080.63 120.104C1082.14 120.069 1083.66 120.034 1085.17 120C1085.41 119.994 1085.58 119.903 1085.71 119.771C1085.72 119.762 1085.72 119.756 1085.73 119.747C1085.74 119.741 1085.75 119.732 1085.75 119.726C1085.88 119.598 1085.97 119.415 1085.96 119.178ZM1081.4 118.479C1081.37 117.498 1081.35 116.522 1081.33 115.541C1082.31 115.518 1083.29 115.496 1084.27 115.473C1084.29 116.455 1084.31 117.43 1084.34 118.412C1083.35 118.434 1082.38 118.454 1081.4 118.479Z" fill="url(#paint40_linear_1_1781)"/>
<path d="M1109.2 141.376C1109.16 139.863 1109.13 138.344 1109.09 136.831C1109.08 136.398 1108.7 136.036 1108.27 136.046C1106.76 136.081 1105.24 136.115 1103.73 136.15C1103.29 136.16 1102.93 136.539 1102.94 136.972C1102.98 138.485 1103.01 140.004 1103.05 141.517C1103.06 141.949 1103.44 142.311 1103.87 142.301C1105.38 142.267 1106.9 142.232 1108.41 142.197C1108.65 142.192 1108.83 142.1 1108.95 141.969C1108.96 141.96 1108.97 141.954 1108.97 141.945C1108.98 141.939 1108.99 141.93 1108.99 141.924C1109.12 141.795 1109.21 141.612 1109.2 141.376ZM1104.64 140.676C1104.61 139.695 1104.59 138.719 1104.57 137.738C1105.55 137.716 1106.53 137.693 1107.51 137.671C1107.53 138.652 1107.55 139.628 1107.58 140.609C1106.59 140.632 1105.62 140.651 1104.64 140.676Z" fill="url(#paint41_linear_1_1781)"/>
<path d="M1132.44 163.573C1132.4 162.06 1132.37 160.542 1132.33 159.029C1132.32 158.596 1131.94 158.234 1131.51 158.244C1130 158.278 1128.48 158.313 1126.96 158.348C1126.53 158.358 1126.17 158.737 1126.18 159.17C1126.21 160.683 1126.25 162.201 1126.28 163.714C1126.29 164.147 1126.67 164.509 1127.11 164.499C1128.62 164.465 1130.14 164.43 1131.65 164.395C1131.88 164.39 1132.06 164.298 1132.19 164.166C1132.2 164.158 1132.2 164.152 1132.21 164.143C1132.22 164.137 1132.23 164.128 1132.23 164.122C1132.36 163.993 1132.44 163.81 1132.44 163.573ZM1127.88 162.874C1127.85 161.893 1127.83 160.917 1127.81 159.936C1128.79 159.913 1129.76 159.891 1130.75 159.869C1130.77 160.85 1130.79 161.826 1130.81 162.807C1129.83 162.829 1128.86 162.852 1127.88 162.874Z" fill="url(#paint42_linear_1_1781)"/>
<path d="M1155.67 185.77C1155.64 184.257 1155.6 182.738 1155.57 181.225C1155.56 180.793 1155.18 180.431 1154.75 180.441C1153.24 180.475 1151.72 180.51 1150.2 180.545C1149.77 180.555 1149.41 180.934 1149.42 181.366C1149.45 182.879 1149.49 184.398 1149.52 185.911C1149.53 186.344 1149.91 186.706 1150.34 186.696C1151.86 186.661 1153.38 186.627 1154.89 186.592C1155.12 186.587 1155.3 186.495 1155.43 186.363C1155.44 186.354 1155.44 186.348 1155.45 186.339C1155.46 186.333 1155.46 186.324 1155.47 186.318C1155.6 186.19 1155.68 186.007 1155.67 185.77ZM1151.11 185.071C1151.09 184.09 1151.07 183.114 1151.05 182.133C1152.03 182.11 1153 182.088 1153.98 182.065C1154.01 183.047 1154.03 184.022 1154.05 185.004C1153.07 185.026 1152.09 185.049 1151.11 185.071Z" fill="url(#paint43_linear_1_1781)"/>
<path d="M1178.91 207.968C1178.88 206.455 1178.84 204.936 1178.81 203.423C1178.8 202.991 1178.42 202.628 1177.99 202.638C1176.47 202.673 1174.95 202.708 1173.44 202.742C1173.01 202.752 1172.65 203.132 1172.66 203.564C1172.69 205.077 1172.73 206.596 1172.76 208.109C1172.77 208.541 1173.15 208.903 1173.58 208.894C1175.1 208.859 1176.61 208.824 1178.13 208.789C1178.36 208.784 1178.54 208.692 1178.67 208.561C1178.67 208.552 1178.68 208.546 1178.69 208.537C1178.69 208.531 1178.7 208.522 1178.71 208.516C1178.84 208.387 1178.92 208.204 1178.91 207.968ZM1174.35 207.269C1174.33 206.287 1174.31 205.312 1174.28 204.33C1175.27 204.308 1176.24 204.285 1177.22 204.263C1177.25 205.244 1177.27 206.22 1177.29 207.201C1176.31 207.224 1175.33 207.246 1174.35 207.269Z" fill="url(#paint44_linear_1_1781)"/>
<path d="M1063.24 119.7C1063.2 118.187 1063.17 116.668 1063.13 115.155C1063.12 114.723 1062.74 114.361 1062.31 114.371C1060.8 114.405 1059.28 114.44 1057.77 114.475C1057.34 114.485 1056.97 114.864 1056.98 115.296C1057.02 116.809 1057.05 118.328 1057.09 119.841C1057.1 120.274 1057.48 120.636 1057.91 120.626C1059.42 120.591 1060.94 120.557 1062.45 120.522C1062.69 120.517 1062.87 120.425 1062.99 120.293C1063 120.284 1063.01 120.278 1063.01 120.269C1063.02 120.263 1063.03 120.254 1063.03 120.248C1063.16 120.12 1063.25 119.937 1063.24 119.7ZM1058.68 119.001C1058.66 118.02 1058.63 117.044 1058.61 116.063C1059.59 116.04 1060.57 116.018 1061.55 115.995C1061.57 116.977 1061.59 117.952 1061.62 118.934C1060.63 118.956 1059.66 118.976 1058.68 119.001Z" fill="url(#paint45_linear_1_1781)"/>
<path d="M1086.48 141.897C1086.44 140.384 1086.41 138.865 1086.37 137.352C1086.36 136.92 1085.99 136.557 1085.55 136.567C1084.04 136.602 1082.52 136.637 1081.01 136.672C1080.58 136.681 1080.21 137.061 1080.22 137.493C1080.26 139.006 1080.29 140.525 1080.33 142.038C1080.34 142.47 1080.72 142.833 1081.15 142.823C1082.66 142.788 1084.18 142.753 1085.69 142.719C1085.93 142.713 1086.11 142.622 1086.23 142.49C1086.24 142.481 1086.25 142.475 1086.25 142.466C1086.26 142.46 1086.27 142.451 1086.27 142.445C1086.4 142.317 1086.49 142.134 1086.48 141.897ZM1081.92 141.198C1081.9 140.216 1081.87 139.241 1081.85 138.26C1082.83 138.237 1083.81 138.215 1084.79 138.192C1084.81 139.174 1084.83 140.149 1084.86 141.131C1083.88 141.153 1082.9 141.173 1081.92 141.198Z" fill="url(#paint46_linear_1_1781)"/>
<path d="M1109.72 164.094C1109.68 162.581 1109.65 161.063 1109.61 159.55C1109.6 159.117 1109.23 158.755 1108.79 158.765C1107.28 158.799 1105.76 158.834 1104.25 158.869C1103.82 158.879 1103.45 159.258 1103.46 159.691C1103.5 161.204 1103.53 162.722 1103.57 164.235C1103.58 164.668 1103.96 165.03 1104.39 165.02C1105.9 164.986 1107.42 164.951 1108.93 164.916C1109.17 164.911 1109.35 164.819 1109.47 164.687C1109.48 164.679 1109.49 164.673 1109.5 164.664C1109.5 164.658 1109.51 164.649 1109.52 164.643C1109.64 164.514 1109.73 164.331 1109.72 164.094ZM1105.16 163.395C1105.14 162.414 1105.11 161.438 1105.09 160.457C1106.07 160.434 1107.05 160.412 1108.03 160.39C1108.05 161.371 1108.07 162.347 1108.1 163.328C1107.12 163.35 1106.14 163.37 1105.16 163.395Z" fill="url(#paint47_linear_1_1781)"/>
<path d="M1132.96 186.292C1132.92 184.779 1132.89 183.26 1132.85 181.747C1132.84 181.315 1132.46 180.953 1132.03 180.963C1130.52 180.997 1129 181.032 1127.48 181.067C1127.05 181.077 1126.69 181.456 1126.7 181.888C1126.73 183.401 1126.77 184.92 1126.8 186.433C1126.81 186.865 1127.19 187.228 1127.63 187.218C1129.14 187.183 1130.66 187.149 1132.17 187.114C1132.4 187.108 1132.58 187.017 1132.71 186.885C1132.72 186.876 1132.72 186.87 1132.73 186.861C1132.74 186.855 1132.75 186.846 1132.75 186.84C1132.88 186.712 1132.96 186.529 1132.96 186.292ZM1128.39 185.593C1128.37 184.612 1128.35 183.636 1128.33 182.655C1129.31 182.632 1130.28 182.61 1131.27 182.587C1131.29 183.569 1131.31 184.544 1131.33 185.526C1130.35 185.548 1129.38 185.571 1128.39 185.593Z" fill="url(#paint48_linear_1_1781)"/>
<path d="M1156.2 208.49C1156.16 206.977 1156.13 205.458 1156.09 203.945C1156.08 203.513 1155.7 203.15 1155.27 203.16C1153.76 203.195 1152.24 203.23 1150.72 203.264C1150.29 203.274 1149.93 203.654 1149.94 204.086C1149.97 205.599 1150.01 207.118 1150.04 208.631C1150.05 209.063 1150.43 209.426 1150.87 209.416C1152.38 209.381 1153.9 209.346 1155.41 209.312C1155.64 209.306 1155.82 209.214 1155.95 209.083C1155.96 209.074 1155.96 209.068 1155.97 209.059C1155.98 209.053 1155.99 209.044 1155.99 209.038C1156.12 208.91 1156.2 208.726 1156.2 208.49ZM1151.64 207.791C1151.61 206.809 1151.59 205.834 1151.57 204.852C1152.55 204.83 1153.52 204.808 1154.51 204.785C1154.53 205.767 1154.55 206.742 1154.57 207.723C1153.59 207.746 1152.62 207.768 1151.64 207.791Z" fill="url(#paint49_linear_1_1781)"/>
<path d="M1179.43 230.687C1179.4 229.174 1179.36 227.655 1179.33 226.142C1179.32 225.709 1178.94 225.347 1178.51 225.357C1176.99 225.392 1175.48 225.426 1173.96 225.461C1173.53 225.471 1173.17 225.85 1173.18 226.283C1173.21 227.796 1173.25 229.315 1173.28 230.828C1173.29 231.26 1173.67 231.622 1174.1 231.612C1175.62 231.578 1177.14 231.543 1178.65 231.508C1178.88 231.503 1179.06 231.411 1179.19 231.28C1179.2 231.271 1179.2 231.265 1179.21 231.256C1179.22 231.25 1179.22 231.241 1179.23 231.235C1179.36 231.106 1179.44 230.923 1179.43 230.687ZM1174.87 229.987C1174.85 229.006 1174.83 228.031 1174.81 227.049C1175.79 227.027 1176.76 227.004 1177.74 226.982C1177.77 227.963 1177.79 228.939 1177.81 229.92C1176.83 229.943 1175.85 229.965 1174.87 229.987Z" fill="url(#paint50_linear_1_1781)"/>
<path d="M1128.79 4.54129C1128.76 3.02828 1128.73 1.50945 1128.69 -0.00355698C1128.68 -0.435844 1128.3 -0.798288 1127.87 -0.788376C1126.36 -0.753687 1124.84 -0.718872 1123.32 -0.684183C1122.89 -0.674271 1122.53 -0.294818 1122.54 0.137469C1122.57 1.65047 1122.61 3.16933 1122.64 4.68233C1122.65 5.11462 1123.03 5.47706 1123.47 5.46715C1124.98 5.43246 1126.5 5.39763 1128.01 5.36294C1128.24 5.35758 1128.42 5.26581 1128.55 5.13434C1128.56 5.12538 1128.56 5.1194 1128.57 5.11043C1128.58 5.10446 1128.59 5.09549 1128.59 5.08952C1128.72 4.95805 1128.8 4.77794 1128.79 4.54129ZM1124.23 3.84519C1124.21 2.86378 1124.19 1.8882 1124.16 0.906796C1125.15 0.884295 1126.12 0.861936 1127.1 0.839435C1127.13 1.82084 1127.15 2.7964 1127.17 3.77781C1126.19 3.79732 1125.21 3.81983 1124.23 3.84519Z" fill="url(#paint51_linear_1_1781)"/>
<path d="M1106.08 5.0628C1106.04 3.54979 1106.01 2.03094 1105.97 0.517935C1105.96 0.0856483 1105.58 -0.276796 1105.15 -0.266884C1103.64 -0.232195 1102.12 -0.197362 1100.61 -0.162673C1100.17 -0.152761 1099.81 0.226693 1099.82 0.65898C1099.86 2.17198 1099.89 3.69082 1099.92 5.20382C1099.93 5.63611 1100.31 5.99855 1100.75 5.98864C1102.26 5.95395 1103.78 5.91914 1105.29 5.88445C1105.53 5.87909 1105.7 5.78732 1105.83 5.65585C1105.84 5.64689 1105.84 5.64091 1105.85 5.63194C1105.86 5.62597 1105.87 5.617 1105.87 5.61103C1106 5.47956 1106.08 5.29945 1106.08 5.0628ZM1101.51 4.36668C1101.49 3.38527 1101.47 2.40971 1101.45 1.42831C1102.43 1.4058 1103.4 1.38343 1104.38 1.36093C1104.41 2.34233 1104.43 3.31791 1104.45 4.29932C1103.47 4.31883 1102.49 4.34132 1101.51 4.36668Z" fill="url(#paint52_linear_1_1781)"/>
<path d="M1083.36 5.58332C1083.32 4.07032 1083.29 2.55146 1083.25 1.03846C1083.24 0.606171 1082.86 0.243727 1082.43 0.253639C1080.92 0.288328 1079.4 0.323161 1077.88 0.357851C1077.45 0.367762 1077.09 0.747216 1077.1 1.1795C1077.13 2.69251 1077.17 4.21134 1077.2 5.72435C1077.21 6.15663 1077.59 6.51908 1078.03 6.50916C1079.54 6.47448 1081.06 6.43966 1082.57 6.40497C1082.8 6.39961 1082.98 6.30784 1083.11 6.17638C1083.12 6.16741 1083.12 6.16143 1083.13 6.15247C1083.14 6.14649 1083.15 6.13753 1083.15 6.13155C1083.27 6.00307 1083.36 5.81998 1083.36 5.58332ZM1078.79 4.88434C1078.77 3.90294 1078.74 2.92738 1078.72 1.94597C1079.7 1.92347 1080.68 1.90109 1081.66 1.87859C1081.68 2.86 1081.71 3.83558 1081.73 4.81698C1080.75 4.83935 1079.77 4.86184 1078.79 4.88434Z" fill="url(#paint53_linear_1_1781)"/>
<path d="M1106.6 27.7808C1106.56 26.2678 1106.53 24.749 1106.49 23.236C1106.48 22.8037 1106.1 22.4412 1105.67 22.4512C1104.16 22.4858 1102.64 22.5207 1101.13 22.5554C1100.69 22.5653 1100.33 22.9447 1100.34 23.377C1100.37 24.89 1100.41 26.4089 1100.44 27.9219C1100.45 28.3541 1100.83 28.7166 1101.27 28.7067C1102.78 28.672 1104.3 28.6372 1105.81 28.6025C1106.04 28.5971 1106.22 28.5054 1106.35 28.3739C1106.36 28.3649 1106.36 28.3589 1106.37 28.35C1106.38 28.344 1106.39 28.335 1106.39 28.3291C1106.51 28.2006 1106.6 28.0175 1106.6 27.7808ZM1102.03 27.0847C1102.01 26.1033 1101.99 25.1278 1101.97 24.1463C1102.95 24.1238 1103.92 24.1015 1104.9 24.079C1104.93 25.0604 1104.95 26.0359 1104.97 27.0174C1103.99 27.0369 1103.01 27.0594 1102.03 27.0847Z" fill="url(#paint54_linear_1_1781)"/>
<path d="M1060.64 6.1038C1060.6 4.5908 1060.57 3.07196 1060.53 1.55896C1060.52 1.12667 1060.15 0.764228 1059.71 0.774139C1058.2 0.808829 1056.68 0.843643 1055.17 0.878333C1054.74 0.888244 1054.37 1.2677 1054.38 1.69998C1054.42 3.21299 1054.45 4.73184 1054.49 6.24485C1054.5 6.67713 1054.88 7.03958 1055.31 7.02967C1056.82 6.99498 1058.34 6.96014 1059.85 6.92545C1060.09 6.9201 1060.27 6.82832 1060.39 6.69686C1060.4 6.68789 1060.41 6.68193 1060.42 6.67297C1060.42 6.66699 1060.43 6.65803 1060.44 6.65205C1060.56 6.52357 1060.64 6.34046 1060.64 6.1038ZM1056.07 5.40484C1056.05 4.42344 1056.03 3.44786 1056.01 2.46645C1056.99 2.44395 1057.96 2.42159 1058.94 2.39909C1058.97 3.3805 1058.99 4.35606 1059.01 5.33747C1058.03 5.36282 1057.05 5.38234 1056.07 5.40484Z" fill="url(#paint55_linear_1_1781)"/>
<path d="M1083.88 28.3021C1083.84 26.7891 1083.81 25.2702 1083.77 23.7572C1083.76 23.3249 1083.38 22.9625 1082.95 22.9724C1081.44 23.0071 1079.92 23.0419 1078.41 23.0766C1077.97 23.0865 1077.61 23.466 1077.62 23.8982C1077.66 25.4112 1077.69 26.9301 1077.73 28.4431C1077.74 28.8754 1078.12 29.2378 1078.55 29.2279C1080.06 29.1932 1081.58 29.1584 1083.09 29.1237C1083.33 29.1183 1083.5 29.0266 1083.63 28.8951C1083.64 28.8861 1083.64 28.8802 1083.65 28.8712C1083.66 28.8652 1083.67 28.8563 1083.67 28.8503C1083.8 28.7218 1083.88 28.5387 1083.88 28.3021ZM1079.31 27.606C1079.29 26.6245 1079.27 25.649 1079.25 24.6676C1080.23 24.6451 1081.2 24.6227 1082.18 24.6002C1082.21 25.5816 1082.23 26.5572 1082.25 27.5386C1081.27 27.5611 1080.29 27.5806 1079.31 27.606Z" fill="url(#paint56_linear_1_1781)"/>
<path d="M1037.92 6.62383C1037.89 5.11082 1037.85 3.59198 1037.82 2.07898C1037.81 1.64669 1037.43 1.28425 1036.99 1.29416C1035.48 1.32885 1033.96 1.36366 1032.45 1.39835C1032.02 1.40826 1031.65 1.78772 1031.66 2.22C1031.7 3.73301 1031.73 5.25186 1031.77 6.76487C1031.78 7.19715 1032.16 7.5596 1032.59 7.54968C1034.1 7.51499 1035.62 7.48017 1037.14 7.44548C1037.37 7.44012 1037.55 7.34834 1037.67 7.21688C1037.68 7.20792 1037.69 7.20194 1037.7 7.19297C1037.7 7.187 1037.71 7.17803 1037.72 7.17206C1037.84 7.04358 1037.92 6.86048 1037.92 6.62383ZM1033.35 5.92487C1033.33 4.94346 1033.31 3.96789 1033.29 2.98648C1034.27 2.96398 1035.24 2.94162 1036.22 2.91912C1036.25 3.90052 1036.27 4.87608 1036.29 5.85749C1035.31 5.88284 1034.34 5.90237 1033.35 5.92487Z" fill="url(#paint57_linear_1_1781)"/>
<path d="M1061.16 28.8223C1061.13 27.3093 1061.09 25.7905 1061.06 24.2775C1061.05 23.8452 1060.67 23.4827 1060.23 23.4926C1058.72 23.5273 1057.2 23.5621 1055.69 23.5968C1055.26 23.6067 1054.89 23.9862 1054.9 24.4185C1054.94 25.9315 1054.97 27.4503 1055.01 28.9633C1055.02 29.3956 1055.4 29.7581 1055.83 29.7482C1057.34 29.7135 1058.86 29.6786 1060.38 29.644C1060.61 29.6386 1060.79 29.5468 1060.91 29.4154C1060.92 29.4064 1060.93 29.4004 1060.94 29.3915C1060.94 29.3855 1060.95 29.3765 1060.96 29.3705C1061.08 29.2421 1061.16 29.059 1061.16 28.8223ZM1056.59 28.1233C1056.57 27.1419 1056.55 26.1664 1056.53 25.185C1057.51 25.1625 1058.48 25.1401 1059.47 25.1176C1059.49 26.099 1059.51 27.0746 1059.53 28.056C1058.55 28.0813 1057.58 28.1008 1056.59 28.1233Z" fill="url(#paint58_linear_1_1781)"/>
<path d="M1084.4 51.0198C1084.36 49.5068 1084.33 47.988 1084.29 46.475C1084.28 46.0427 1083.9 45.6803 1083.47 45.6902C1081.96 45.7249 1080.44 45.7597 1078.93 45.7944C1078.5 45.8043 1078.13 46.1837 1078.14 46.616C1078.18 48.129 1078.21 49.6479 1078.25 51.1609C1078.26 51.5932 1078.64 51.9556 1079.07 51.9457C1080.58 51.911 1082.1 51.8762 1083.61 51.8415C1083.85 51.8361 1084.03 51.7443 1084.15 51.6129C1084.16 51.6039 1084.17 51.5979 1084.17 51.589C1084.18 51.583 1084.19 51.574 1084.19 51.5681C1084.32 51.4396 1084.4 51.2565 1084.4 51.0198ZM1079.84 50.3237C1079.81 49.3423 1079.79 48.3667 1079.77 47.3853C1080.75 47.3628 1081.72 47.3405 1082.71 47.318C1082.73 48.2994 1082.75 49.2749 1082.77 50.2563C1081.79 50.2789 1080.81 50.2984 1079.84 50.3237Z" fill="url(#paint59_linear_1_1781)"/>
<path d="M1015.2 7.14849C1015.16 5.63549 1015.13 4.11663 1015.09 2.60363C1015.08 2.17134 1014.7 1.8089 1014.27 1.81881C1012.76 1.8535 1011.24 1.88833 1009.73 1.92302C1009.29 1.93293 1008.93 2.31239 1008.94 2.74467C1008.98 4.25768 1009.01 5.77651 1009.05 7.28952C1009.06 7.7218 1009.44 8.08425 1009.87 8.07433C1011.38 8.03965 1012.9 8.00484 1014.41 7.97015C1014.65 7.96479 1014.83 7.87301 1014.95 7.74155C1014.96 7.73259 1014.97 7.72661 1014.97 7.71764C1014.98 7.71167 1014.99 7.7027 1014.99 7.69672C1015.12 7.56526 1015.2 7.38216 1015.2 7.14849ZM1010.63 6.44653C1010.61 5.46512 1010.59 4.48956 1010.57 3.50816C1011.55 3.48565 1012.52 3.46328 1013.51 3.44078C1013.53 4.42218 1013.55 5.39776 1013.57 6.37917C1012.59 6.40452 1011.62 6.42403 1010.63 6.44653Z" fill="url(#paint60_linear_1_1781)"/>
<path d="M1038.44 29.346C1038.4 27.833 1038.37 26.3142 1038.33 24.8012C1038.32 24.3689 1037.94 24.0064 1037.51 24.0163C1036 24.051 1034.48 24.0859 1032.97 24.1205C1032.53 24.1305 1032.17 24.5099 1032.18 24.9422C1032.22 26.4552 1032.25 27.974 1032.29 29.487C1032.3 29.9193 1032.68 30.2818 1033.11 30.2719C1034.62 30.2372 1036.14 30.2024 1037.65 30.1677C1037.89 30.1623 1038.07 30.0705 1038.19 29.9391C1038.2 29.9301 1038.21 29.9241 1038.21 29.9152C1038.22 29.9092 1038.23 29.9002 1038.23 29.8942C1038.36 29.7628 1038.44 29.5797 1038.44 29.346ZM1033.87 28.6441C1033.85 27.6626 1033.83 26.6871 1033.81 25.7057C1034.79 25.6832 1035.76 25.6608 1036.75 25.6383C1036.77 26.6197 1036.79 27.5953 1036.81 28.5767C1035.83 28.602 1034.86 28.6216 1033.87 28.6441Z" fill="url(#paint61_linear_1_1781)"/>
<path d="M1061.68 51.5442C1061.64 50.0312 1061.61 48.5124 1061.57 46.9994C1061.56 46.5671 1061.18 46.2047 1060.75 46.2146C1059.24 46.2493 1057.72 46.2841 1056.21 46.3188C1055.77 46.3287 1055.41 46.7081 1055.42 47.1404C1055.45 48.6534 1055.49 50.1723 1055.52 51.6853C1055.53 52.1176 1055.91 52.48 1056.35 52.4701C1057.86 52.4354 1059.38 52.4006 1060.89 52.3659C1061.12 52.3605 1061.3 52.2688 1061.43 52.1373C1061.44 52.1283 1061.44 52.1224 1061.45 52.1134C1061.46 52.1074 1061.47 52.0985 1061.47 52.0925C1061.6 51.961 1061.68 51.7779 1061.68 51.5442ZM1057.12 50.8451C1057.09 49.8637 1057.07 48.8882 1057.05 47.9068C1058.03 47.8843 1059.01 47.8619 1059.99 47.8394C1060.01 48.8208 1060.03 49.7964 1060.05 50.7778C1059.07 50.8003 1058.09 50.8198 1057.12 50.8451Z" fill="url(#paint62_linear_1_1781)"/>
<path d="M992.482 7.67023C992.448 6.15723 992.413 4.63838 992.378 3.12537C992.368 2.69309 991.989 2.33064 991.557 2.34055C990.044 2.37524 988.525 2.41008 987.012 2.44476C986.58 2.45468 986.217 2.83413 986.227 3.26642C986.262 4.77942 986.296 6.29826 986.331 7.81126C986.341 8.24355 986.72 8.60599 987.153 8.59608C988.666 8.56139 990.185 8.52658 991.698 8.49189C991.931 8.48653 992.11 8.39474 992.236 8.26327C992.245 8.25431 992.25 8.24835 992.259 8.23939C992.264 8.23341 992.273 8.22444 992.279 8.21847C992.404 8.087 992.488 7.9039 992.482 7.67023ZM987.919 6.96827C987.897 5.98686 987.874 5.01131 987.852 4.0299C988.833 4.0074 989.809 3.98502 990.79 3.96252C990.813 4.94393 990.835 5.9195 990.857 6.90091C989.876 6.92341 988.901 6.94577 987.919 6.96827Z" fill="url(#paint63_linear_1_1781)"/>
<path d="M1015.72 29.8665C1015.68 28.3535 1015.65 26.8347 1015.61 25.3216C1015.6 24.8894 1015.23 24.5269 1014.79 24.5368C1013.28 24.5715 1011.76 24.6064 1010.25 24.641C1009.82 24.651 1009.45 25.0304 1009.46 25.4627C1009.5 26.9757 1009.53 28.4945 1009.57 30.0075C1009.58 30.4398 1009.96 30.8023 1010.39 30.7924C1011.9 30.7577 1013.42 30.7229 1014.93 30.6882C1015.17 30.6828 1015.35 30.591 1015.47 30.4596C1015.48 30.4506 1015.49 30.4446 1015.5 30.4357C1015.5 30.4297 1015.51 30.4207 1015.52 30.4147C1015.64 30.2833 1015.72 30.1002 1015.72 29.8665ZM1011.16 29.1646C1011.13 28.1831 1011.11 27.2076 1011.09 26.2262C1012.07 26.2037 1013.05 26.1813 1014.03 26.1588C1014.05 27.1402 1014.07 28.1158 1014.09 29.0972C1013.12 29.1225 1012.14 29.142 1011.16 29.1646Z" fill="url(#paint64_linear_1_1781)"/>
<path d="M1038.96 52.0648C1038.92 50.5518 1038.89 49.0329 1038.85 47.5199C1038.84 47.0876 1038.47 46.7252 1038.03 46.7351C1036.52 46.7698 1035 46.8046 1033.49 46.8393C1033.06 46.8492 1032.69 47.2287 1032.7 47.661C1032.74 49.174 1032.77 50.6928 1032.81 52.2058C1032.82 52.6381 1033.2 53.0005 1033.63 52.9906C1035.14 52.9559 1036.66 52.9211 1038.17 52.8864C1038.41 52.8811 1038.59 52.7893 1038.71 52.6578C1038.72 52.6488 1038.73 52.6429 1038.74 52.6339C1038.74 52.6279 1038.75 52.619 1038.76 52.613C1038.88 52.4815 1038.96 52.2984 1038.96 52.0648ZM1034.4 51.3628C1034.37 50.3814 1034.35 49.4058 1034.33 48.4244C1035.31 48.4019 1036.29 48.3796 1037.27 48.3571C1037.29 49.3385 1037.31 50.314 1037.33 51.2954C1036.36 51.3208 1035.38 51.3403 1034.4 51.3628Z" fill="url(#paint65_linear_1_1781)"/>
<path d="M1062.2 74.2625C1062.16 72.7495 1062.13 71.2307 1062.09 69.7177C1062.08 69.2854 1061.7 68.9229 1061.27 68.9328C1059.76 68.9675 1058.24 69.0024 1056.73 69.0371C1056.29 69.047 1055.93 69.4264 1055.94 69.8587C1055.98 71.3717 1056.01 72.8905 1056.05 74.4035C1056.06 74.8358 1056.44 75.1983 1056.87 75.1884C1058.38 75.1537 1059.9 75.1189 1061.41 75.0842C1061.65 75.0788 1061.83 74.987 1061.95 74.8556C1061.96 74.8466 1061.97 74.8406 1061.97 74.8317C1061.98 74.8257 1061.99 74.8167 1061.99 74.8108C1062.12 74.6793 1062.2 74.4962 1062.2 74.2625ZM1057.64 73.5634C1057.61 72.582 1057.59 71.6064 1057.57 70.625C1058.55 70.6025 1059.53 70.5802 1060.51 70.5577C1060.53 71.5391 1060.55 72.5146 1060.58 73.4961C1059.59 73.5186 1058.62 73.5381 1057.64 73.5634Z" fill="url(#paint66_linear_1_1781)"/>
<path d="M969.762 8.18998C969.727 6.67698 969.692 5.15814 969.658 3.64514C969.648 3.21285 969.268 2.85041 968.836 2.86032C967.323 2.89501 965.804 2.92982 964.291 2.96451C963.859 2.97443 963.496 3.35388 963.506 3.78617C963.541 5.29917 963.576 6.81802 963.61 8.33103C963.62 8.76331 964 9.12576 964.432 9.11585C965.945 9.08116 967.464 9.04632 968.977 9.01163C969.211 9.00628 969.39 8.91451 969.515 8.78304C969.524 8.77408 969.53 8.7681 969.538 8.75913C969.544 8.75316 969.552 8.74421 969.558 8.73823C969.684 8.60677 969.767 8.42365 969.762 8.18998ZM965.198 7.48804C965.176 6.50663 965.154 5.53105 965.131 4.54965C966.113 4.52714 967.088 4.50479 968.069 4.48228C968.092 5.46369 968.114 6.43925 968.137 7.42066C967.155 7.44316 966.18 7.46553 965.198 7.48804Z" fill="url(#paint67_linear_1_1781)"/>
<path d="M993.002 30.3877C992.967 28.8747 992.932 27.3559 992.898 25.8429C992.888 25.4106 992.508 25.0482 992.076 25.0581C990.563 25.0928 989.044 25.1276 987.531 25.1623C987.099 25.1722 986.737 25.5516 986.747 25.9839C986.781 27.4969 986.816 29.0158 986.851 30.5288C986.861 30.9611 987.24 31.3235 987.672 31.3136C989.185 31.2789 990.704 31.2441 992.217 31.2094C992.451 31.204 992.63 31.1123 992.755 30.9808C992.764 30.9718 992.77 30.9659 992.778 30.9569C992.784 30.9509 992.793 30.942 992.798 30.936C992.924 30.8045 993.007 30.6214 993.002 30.3877ZM988.439 29.6858C988.416 28.7044 988.394 27.7288 988.371 26.7474C989.353 26.7249 990.328 26.7025 991.31 26.68C991.332 27.6615 991.355 28.637 991.377 29.6184C990.399 29.6438 989.42 29.6633 988.439 29.6858Z" fill="url(#paint68_linear_1_1781)"/>
<path d="M1016.24 52.5852C1016.21 51.0722 1016.17 49.5534 1016.14 48.0404C1016.13 47.6081 1015.75 47.2457 1015.31 47.2556C1013.8 47.2903 1012.28 47.3251 1010.77 47.3598C1010.34 47.3697 1009.97 47.7491 1009.98 48.1814C1010.02 49.6944 1010.05 51.2133 1010.09 52.7263C1010.1 53.1586 1010.48 53.521 1010.91 53.5111C1012.42 53.4764 1013.94 53.4416 1015.46 53.4069C1015.69 53.4015 1015.87 53.3098 1015.99 53.1783C1016 53.1693 1016.01 53.1634 1016.02 53.1544C1016.02 53.1484 1016.03 53.1395 1016.04 53.1335C1016.16 53.002 1016.25 52.8189 1016.24 52.5852ZM1011.68 51.8833C1011.65 50.9019 1011.63 49.9263 1011.61 48.9449C1012.59 48.9224 1013.57 48.9 1014.55 48.8775C1014.57 49.859 1014.59 50.8345 1014.62 51.8159C1013.64 51.8413 1012.66 51.8608 1011.68 51.8833Z" fill="url(#paint69_linear_1_1781)"/>
<path d="M1039.48 74.7837C1039.45 73.2707 1039.41 71.7519 1039.38 70.2389C1039.37 69.8066 1038.99 69.4441 1038.55 69.4541C1037.04 69.4887 1035.52 69.5236 1034.01 69.5583C1033.58 69.5682 1033.22 69.9476 1033.23 70.3799C1033.26 71.8929 1033.29 73.4118 1033.33 74.9248C1033.34 75.3571 1033.72 75.7195 1034.15 75.7096C1035.66 75.6749 1037.18 75.6401 1038.7 75.6054C1038.93 75.6 1039.11 75.5082 1039.23 75.3768C1039.24 75.3678 1039.25 75.3618 1039.26 75.3529C1039.26 75.3469 1039.27 75.3379 1039.28 75.332C1039.4 75.2005 1039.49 75.0174 1039.48 74.7837ZM1034.92 74.0846C1034.9 73.1032 1034.88 72.1276 1034.85 71.1462C1035.83 71.1237 1036.81 71.1014 1037.79 71.0789C1037.81 72.0603 1037.84 73.0358 1037.86 74.0173C1036.88 74.0398 1035.9 74.0593 1034.92 74.0846Z" fill="url(#paint70_linear_1_1781)"/>
<path d="M947.039 8.70805C947.004 7.19505 946.97 5.67621 946.935 4.16321C946.925 3.73092 946.546 3.36848 946.113 3.37839C944.6 3.41308 943.081 3.44789 941.568 3.48258C941.136 3.49249 940.774 3.87195 940.784 4.30423C940.818 5.81724 940.853 7.33609 940.888 8.84909C940.898 9.28138 941.277 9.64383 941.709 9.63391C943.222 9.59922 944.741 9.56439 946.254 9.5297C946.488 9.52434 946.667 9.43257 946.793 9.30111C946.801 9.29214 946.807 9.28616 946.815 9.2772C946.821 9.27122 946.83 9.26226 946.835 9.25628C946.964 9.12767 947.047 8.94457 947.039 8.70805ZM942.479 8.00896C942.456 7.02755 942.434 6.05197 942.411 5.07057C943.393 5.04807 944.368 5.02571 945.35 5.00321C945.372 5.98461 945.395 6.96017 945.417 7.94158C944.436 7.96408 943.46 7.98646 942.479 8.00896Z" fill="url(#paint71_linear_1_1781)"/>
<path d="M970.283 30.9095C970.249 29.3965 970.214 27.8776 970.179 26.3646C970.169 25.9323 969.79 25.5699 969.357 25.5798C967.844 25.6145 966.326 25.6493 964.813 25.684C964.38 25.6939 964.018 26.0734 964.028 26.5056C964.062 28.0186 964.097 29.5375 964.132 31.0505C964.142 31.4828 964.521 31.8452 964.954 31.8353C966.467 31.8006 967.985 31.7658 969.498 31.7311C969.732 31.7257 969.911 31.634 970.037 31.5025C970.045 31.4936 970.051 31.4876 970.06 31.4786C970.065 31.4726 970.074 31.4637 970.08 31.4577C970.205 31.3262 970.289 31.1431 970.283 30.9095ZM965.72 30.2075C965.697 29.2261 965.675 28.2505 965.653 27.2691C966.634 27.2466 967.61 27.2243 968.591 27.2018C968.613 28.1832 968.636 29.1587 968.658 30.1401C967.677 30.1626 966.701 30.185 965.72 30.2075Z" fill="url(#paint72_linear_1_1781)"/>
<path d="M993.52 53.1058C993.485 51.5928 993.45 50.0739 993.415 48.5609C993.405 48.1286 993.026 47.7662 992.594 47.7761C991.081 47.8108 989.562 47.8456 988.049 47.8803C987.617 47.8902 987.254 48.2697 987.264 48.7019C987.299 50.2149 987.334 51.7338 987.368 53.2468C987.378 53.6791 987.758 54.0415 988.19 54.0316C989.703 53.9969 991.222 53.9621 992.735 53.9274C992.968 53.9221 993.147 53.8303 993.273 53.6988C993.282 53.6899 993.287 53.6839 993.296 53.6749C993.302 53.6689 993.31 53.66 993.316 53.654C993.441 53.5225 993.525 53.3394 993.52 53.1058ZM988.956 52.4038C988.934 51.4224 988.911 50.4468 988.889 49.4654C989.87 49.4429 990.846 49.4206 991.827 49.3981C991.85 50.3795 991.872 51.355 991.895 52.3364C990.916 52.3618 989.938 52.3813 988.956 52.4038Z" fill="url(#paint73_linear_1_1781)"/>
<path d="M1016.76 75.3042C1016.73 73.7912 1016.69 72.2724 1016.66 70.7594C1016.65 70.3271 1016.27 69.9647 1015.83 69.9746C1014.32 70.0093 1012.8 70.0441 1011.29 70.0788C1010.86 70.0887 1010.49 70.4681 1010.5 70.9004C1010.54 72.4134 1010.57 73.9323 1010.61 75.4453C1010.62 75.8776 1011 76.24 1011.43 76.2301C1012.94 76.1954 1014.46 76.1606 1015.97 76.1259C1016.21 76.1205 1016.39 76.0288 1016.51 75.8973C1016.52 75.8883 1016.53 75.8823 1016.54 75.8734C1016.54 75.8674 1016.55 75.8584 1016.56 75.8525C1016.68 75.721 1016.77 75.5379 1016.76 75.3042ZM1012.2 74.6023C1012.17 73.6209 1012.15 72.6453 1012.13 71.6639C1013.11 71.6414 1014.09 71.619 1015.07 71.5965C1015.09 72.5779 1015.11 73.5535 1015.13 74.5349C1014.16 74.5603 1013.18 74.5798 1012.2 74.6023Z" fill="url(#paint74_linear_1_1781)"/>
<path d="M1040 97.5016C1039.97 95.9886 1039.93 94.4698 1039.9 92.9568C1039.89 92.5245 1039.51 92.162 1039.07 92.172C1037.56 92.2066 1036.04 92.2415 1034.53 92.2761C1034.1 92.2861 1033.73 92.6655 1033.74 93.0978C1033.78 94.6108 1033.81 96.1297 1033.85 97.6427C1033.86 98.0749 1034.24 98.4374 1034.67 98.4275C1036.18 98.3928 1037.7 98.358 1039.22 98.3233C1039.45 98.3179 1039.63 98.2261 1039.75 98.0947C1039.76 98.0857 1039.77 98.0797 1039.78 98.0708C1039.78 98.0648 1039.79 98.0558 1039.8 98.0498C1039.92 97.9184 1040.01 97.7353 1040 97.5016ZM1035.44 96.8025C1035.42 95.8211 1035.39 94.8455 1035.37 93.8641C1036.35 93.8416 1037.33 93.8193 1038.31 93.7968C1038.33 94.7782 1038.36 95.7537 1038.38 96.7351C1037.4 96.7576 1036.42 96.7772 1035.44 96.8025Z" fill="url(#paint75_linear_1_1781)"/>
</g>
<rect x="1361.72" y="339.488" width="226.607" height="284.947" rx="20" transform="rotate(135 1361.72 339.488)" fill="#4EAF4E"/>
</g>
<defs>
<linearGradient id="paint0_linear_1_1781" x1="1184.92" y1="-291.478" x2="1201.41" y2="249.642" gradientUnits="userSpaceOnUse">
<stop stop-color="#BE965D"/>
<stop offset="0.2784" stop-color="#976F40"/>
<stop offset="0.4259" stop-color="#C99B61"/>
<stop offset="0.5584" stop-color="#F0BE7B"/>
<stop offset="0.6275" stop-color="#FFCB85"/>
<stop offset="0.7085" stop-color="#EEBC79"/>
<stop offset="0.8693" stop-color="#C0935B"/>
<stop offset="1" stop-color="#976F40"/>
</linearGradient>
<linearGradient id="paint1_linear_1_1781" x1="1162.2" y1="-290.784" x2="1178.7" y2="250.335" gradientUnits="userSpaceOnUse">
<stop stop-color="#BE965D"/>
<stop offset="0.2784" stop-color="#976F40"/>
<stop offset="0.4259" stop-color="#C99B61"/>
<stop offset="0.5584" stop-color="#F0BE7B"/>
<stop offset="0.6275" stop-color="#FFCB85"/>
<stop offset="0.7085" stop-color="#EEBC79"/>
<stop offset="0.8693" stop-color="#C0935B"/>
<stop offset="1" stop-color="#976F40"/>
</linearGradient>
<linearGradient id="paint2_linear_1_1781" x1="1184.74" y1="-291.472" x2="1201.24" y2="249.647" gradientUnits="userSpaceOnUse">
<stop stop-color="#BE965D"/>
<stop offset="0.2784" stop-color="#976F40"/>
<stop offset="0.4259" stop-color="#C99B61"/>
<stop offset="0.5584" stop-color="#F0BE7B"/>
<stop offset="0.6275" stop-color="#FFCB85"/>
<stop offset="0.7085" stop-color="#EEBC79"/>
<stop offset="0.8693" stop-color="#C0935B"/>
<stop offset="1" stop-color="#976F40"/>
</linearGradient>
<linearGradient id="paint3_linear_1_1781" x1="1139.49" y1="-290.092" x2="1155.99" y2="251.028" gradientUnits="userSpaceOnUse">
<stop stop-color="#BE965D"/>
<stop offset="0.2784" stop-color="#976F40"/>
<stop offset="0.4259" stop-color="#C99B61"/>
<stop offset="0.5584" stop-color="#F0BE7B"/>
<stop offset="0.6275" stop-color="#FFCB85"/>
<stop offset="0.7085" stop-color="#EEBC79"/>
<stop offset="0.8693" stop-color="#C0935B"/>
<stop offset="1" stop-color="#976F40"/>
</linearGradient>
<linearGradient id="paint4_linear_1_1781" x1="1162.03" y1="-290.78" x2="1178.53" y2="250.34" gradientUnits="userSpaceOnUse">
<stop stop-color="#BE965D"/>
<stop offset="0.2784" stop-color="#976F40"/>
<stop offset="0.4259" stop-color="#C99B61"/>
<stop offset="0.5584" stop-color="#F0BE7B"/>
<stop offset="0.6275" stop-color="#FFCB85"/>
<stop offset="0.7085" stop-color="#EEBC79"/>
<stop offset="0.8693" stop-color="#C0935B"/>
<stop offset="1" stop-color="#976F40"/>
</linearGradient>
<linearGradient id="paint5_linear_1_1781" x1="1184.57" y1="-291.468" x2="1201.07" y2="249.652" gradientUnits="userSpaceOnUse">
<stop stop-color="#BE965D"/>
<stop offset="0.2784" stop-color="#976F40"/>
<stop offset="0.4259" stop-color="#C99B61"/>
<stop offset="0.5584" stop-color="#F0BE7B"/>
<stop offset="0.6275" stop-color="#FFCB85"/>
<stop offset="0.7085" stop-color="#EEBC79"/>
<stop offset="0.8693" stop-color="#C0935B"/>
<stop offset="1" stop-color="#976F40"/>
</linearGradient>
<linearGradient id="paint6_linear_1_1781" x1="1139.32" y1="-290.086" x2="1155.81" y2="251.033" gradientUnits="userSpaceOnUse">
<stop stop-color="#BE965D"/>
<stop offset="0.2784" stop-color="#976F40"/>
<stop offset="0.4259" stop-color="#C99B61"/>
<stop offset="0.5584" stop-color="#F0BE7B"/>
<stop offset="0.6275" stop-color="#FFCB85"/>
<stop offset="0.7085" stop-color="#EEBC79"/>
<stop offset="0.8693" stop-color="#C0935B"/>
<stop offset="1" stop-color="#976F40"/>
</linearGradient>
<linearGradient id="paint7_linear_1_1781" x1="1161.86" y1="-290.775" x2="1178.36" y2="250.345" gradientUnits="userSpaceOnUse">
<stop stop-color="#BE965D"/>
<stop offset="0.2784" stop-color="#976F40"/>
<stop offset="0.4259" stop-color="#C99B61"/>
<stop offset="0.5584" stop-color="#F0BE7B"/>
<stop offset="0.6275" stop-color="#FFCB85"/>
<stop offset="0.7085" stop-color="#EEBC79"/>
<stop offset="0.8693" stop-color="#C0935B"/>
<stop offset="1" stop-color="#976F40"/>
</linearGradient>
<linearGradient id="paint8_linear_1_1781" x1="1184.4" y1="-291.462" x2="1200.9" y2="249.657" gradientUnits="userSpaceOnUse">
<stop stop-color="#BE965D"/>
<stop offset="0.2784" stop-color="#976F40"/>
<stop offset="0.4259" stop-color="#C99B61"/>
<stop offset="0.5584" stop-color="#F0BE7B"/>
<stop offset="0.6275" stop-color="#FFCB85"/>
<stop offset="0.7085" stop-color="#EEBC79"/>
<stop offset="0.8693" stop-color="#C0935B"/>
<stop offset="1" stop-color="#976F40"/>
</linearGradient>
<linearGradient id="paint9_linear_1_1781" x1="1116.6" y1="-289.394" x2="1133.1" y2="251.725" gradientUnits="userSpaceOnUse">
<stop stop-color="#BE965D"/>
<stop offset="0.2784" stop-color="#976F40"/>
<stop offset="0.4259" stop-color="#C99B61"/>
<stop offset="0.5584" stop-color="#F0BE7B"/>
<stop offset="0.6275" stop-color="#FFCB85"/>
<stop offset="0.7085" stop-color="#EEBC79"/>
<stop offset="0.8693" stop-color="#C0935B"/>
<stop offset="1" stop-color="#976F40"/>
</linearGradient>
<linearGradient id="paint10_linear_1_1781" x1="1139.14" y1="-290.083" x2="1155.64" y2="251.037" gradientUnits="userSpaceOnUse">
<stop stop-color="#BE965D"/>
<stop offset="0.2784" stop-color="#976F40"/>
<stop offset="0.4259" stop-color="#C99B61"/>
<stop offset="0.5584" stop-color="#F0BE7B"/>
<stop offset="0.6275" stop-color="#FFCB85"/>
<stop offset="0.7085" stop-color="#EEBC79"/>
<stop offset="0.8693" stop-color="#C0935B"/>
<stop offset="1" stop-color="#976F40"/>
</linearGradient>
<linearGradient id="paint11_linear_1_1781" x1="1161.69" y1="-290.77" x2="1178.18" y2="250.35" gradientUnits="userSpaceOnUse">
<stop stop-color="#BE965D"/>
<stop offset="0.2784" stop-color="#976F40"/>
<stop offset="0.4259" stop-color="#C99B61"/>
<stop offset="0.5584" stop-color="#F0BE7B"/>
<stop offset="0.6275" stop-color="#FFCB85"/>
<stop offset="0.7085" stop-color="#EEBC79"/>
<stop offset="0.8693" stop-color="#C0935B"/>
<stop offset="1" stop-color="#976F40"/>
</linearGradient>
<linearGradient id="paint12_linear_1_1781" x1="1184.23" y1="-291.457" x2="1200.73" y2="249.663" gradientUnits="userSpaceOnUse">
<stop stop-color="#BE965D"/>
<stop offset="0.2784" stop-color="#976F40"/>
<stop offset="0.4259" stop-color="#C99B61"/>
<stop offset="0.5584" stop-color="#F0BE7B"/>
<stop offset="0.6275" stop-color="#FFCB85"/>
<stop offset="0.7085" stop-color="#EEBC79"/>
<stop offset="0.8693" stop-color="#C0935B"/>
<stop offset="1" stop-color="#976F40"/>
</linearGradient>
<linearGradient id="paint13_linear_1_1781" x1="1116.43" y1="-289.389" x2="1132.93" y2="251.731" gradientUnits="userSpaceOnUse">
<stop stop-color="#BE965D"/>
<stop offset="0.2784" stop-color="#976F40"/>
<stop offset="0.4259" stop-color="#C99B61"/>
<stop offset="0.5584" stop-color="#F0BE7B"/>
<stop offset="0.6275" stop-color="#FFCB85"/>
<stop offset="0.7085" stop-color="#EEBC79"/>
<stop offset="0.8693" stop-color="#C0935B"/>
<stop offset="1" stop-color="#976F40"/>
</linearGradient>
<linearGradient id="paint14_linear_1_1781" x1="1138.97" y1="-290.077" x2="1155.47" y2="251.042" gradientUnits="userSpaceOnUse">
<stop stop-color="#BE965D"/>
<stop offset="0.2784" stop-color="#976F40"/>
<stop offset="0.4259" stop-color="#C99B61"/>
<stop offset="0.5584" stop-color="#F0BE7B"/>
<stop offset="0.6275" stop-color="#FFCB85"/>
<stop offset="0.7085" stop-color="#EEBC79"/>
<stop offset="0.8693" stop-color="#C0935B"/>
<stop offset="1" stop-color="#976F40"/>
</linearGradient>
<linearGradient id="paint15_linear_1_1781" x1="1161.52" y1="-290.764" x2="1178.01" y2="250.356" gradientUnits="userSpaceOnUse">
<stop stop-color="#BE965D"/>
<stop offset="0.2784" stop-color="#976F40"/>
<stop offset="0.4259" stop-color="#C99B61"/>
<stop offset="0.5584" stop-color="#F0BE7B"/>
<stop offset="0.6275" stop-color="#FFCB85"/>
<stop offset="0.7085" stop-color="#EEBC79"/>
<stop offset="0.8693" stop-color="#C0935B"/>
<stop offset="1" stop-color="#976F40"/>
</linearGradient>
<linearGradient id="paint16_linear_1_1781" x1="1184.06" y1="-291.451" x2="1200.56" y2="249.669" gradientUnits="userSpaceOnUse">
<stop stop-color="#BE965D"/>
<stop offset="0.2784" stop-color="#976F40"/>
<stop offset="0.4259" stop-color="#C99B61"/>
<stop offset="0.5584" stop-color="#F0BE7B"/>
<stop offset="0.6275" stop-color="#FFCB85"/>
<stop offset="0.7085" stop-color="#EEBC79"/>
<stop offset="0.8693" stop-color="#C0935B"/>
<stop offset="1" stop-color="#976F40"/>
</linearGradient>
<linearGradient id="paint17_linear_1_1781" x1="1093.72" y1="-288.697" x2="1110.22" y2="252.423" gradientUnits="userSpaceOnUse">
<stop stop-color="#BE965D"/>
<stop offset="0.2784" stop-color="#976F40"/>
<stop offset="0.4259" stop-color="#C99B61"/>
<stop offset="0.5584" stop-color="#F0BE7B"/>
<stop offset="0.6275" stop-color="#FFCB85"/>
<stop offset="0.7085" stop-color="#EEBC79"/>
<stop offset="0.8693" stop-color="#C0935B"/>
<stop offset="1" stop-color="#976F40"/>
</linearGradient>
<linearGradient id="paint18_linear_1_1781" x1="1116.26" y1="-289.385" x2="1132.76" y2="251.735" gradientUnits="userSpaceOnUse">
<stop stop-color="#BE965D"/>
<stop offset="0.2784" stop-color="#976F40"/>
<stop offset="0.4259" stop-color="#C99B61"/>
<stop offset="0.5584" stop-color="#F0BE7B"/>
<stop offset="0.6275" stop-color="#FFCB85"/>
<stop offset="0.7085" stop-color="#EEBC79"/>
<stop offset="0.8693" stop-color="#C0935B"/>
<stop offset="1" stop-color="#976F40"/>
</linearGradient>
<linearGradient id="paint19_linear_1_1781" x1="1138.8" y1="-290.073" x2="1155.3" y2="251.048" gradientUnits="userSpaceOnUse">
<stop stop-color="#BE965D"/>
<stop offset="0.2784" stop-color="#976F40"/>
<stop offset="0.4259" stop-color="#C99B61"/>
<stop offset="0.5584" stop-color="#F0BE7B"/>
<stop offset="0.6275" stop-color="#FFCB85"/>
<stop offset="0.7085" stop-color="#EEBC79"/>
<stop offset="0.8693" stop-color="#C0935B"/>
<stop offset="1" stop-color="#976F40"/>
</linearGradient>
<linearGradient id="paint20_linear_1_1781" x1="1161.34" y1="-290.759" x2="1177.84" y2="250.361" gradientUnits="userSpaceOnUse">
<stop stop-color="#BE965D"/>
<stop offset="0.2784" stop-color="#976F40"/>
<stop offset="0.4259" stop-color="#C99B61"/>
<stop offset="0.5584" stop-color="#F0BE7B"/>
<stop offset="0.6275" stop-color="#FFCB85"/>
<stop offset="0.7085" stop-color="#EEBC79"/>
<stop offset="0.8693" stop-color="#C0935B"/>
<stop offset="1" stop-color="#976F40"/>
</linearGradient>
<linearGradient id="paint21_linear_1_1781" x1="1183.88" y1="-291.447" x2="1200.38" y2="249.673" gradientUnits="userSpaceOnUse">
<stop stop-color="#BE965D"/>
<stop offset="0.2784" stop-color="#976F40"/>
<stop offset="0.4259" stop-color="#C99B61"/>
<stop offset="0.5584" stop-color="#F0BE7B"/>
<stop offset="0.6275" stop-color="#FFCB85"/>
<stop offset="0.7085" stop-color="#EEBC79"/>
<stop offset="0.8693" stop-color="#C0935B"/>
<stop offset="1" stop-color="#976F40"/>
</linearGradient>
<linearGradient id="paint22_linear_1_1781" x1="1093.71" y1="-289.035" x2="1110.21" y2="252.084" gradientUnits="userSpaceOnUse">
<stop stop-color="#BE965D"/>
<stop offset="0.2784" stop-color="#976F40"/>
<stop offset="0.4259" stop-color="#C99B61"/>
<stop offset="0.5584" stop-color="#F0BE7B"/>
<stop offset="0.6275" stop-color="#FFCB85"/>
<stop offset="0.7085" stop-color="#EEBC79"/>
<stop offset="0.8693" stop-color="#C0935B"/>
<stop offset="1" stop-color="#976F40"/>
</linearGradient>
<linearGradient id="paint23_linear_1_1781" x1="1116.09" y1="-289.379" x2="1132.58" y2="251.74" gradientUnits="userSpaceOnUse">
<stop stop-color="#BE965D"/>
<stop offset="0.2784" stop-color="#976F40"/>
<stop offset="0.4259" stop-color="#C99B61"/>
<stop offset="0.5584" stop-color="#F0BE7B"/>
<stop offset="0.6275" stop-color="#FFCB85"/>
<stop offset="0.7085" stop-color="#EEBC79"/>
<stop offset="0.8693" stop-color="#C0935B"/>
<stop offset="1" stop-color="#976F40"/>
</linearGradient>
<linearGradient id="paint24_linear_1_1781" x1="1138.63" y1="-290.066" x2="1155.13" y2="251.053" gradientUnits="userSpaceOnUse">
<stop stop-color="#BE965D"/>
<stop offset="0.2784" stop-color="#976F40"/>
<stop offset="0.4259" stop-color="#C99B61"/>
<stop offset="0.5584" stop-color="#F0BE7B"/>
<stop offset="0.6275" stop-color="#FFCB85"/>
<stop offset="0.7085" stop-color="#EEBC79"/>
<stop offset="0.8693" stop-color="#C0935B"/>
<stop offset="1" stop-color="#976F40"/>
</linearGradient>
<linearGradient id="paint25_linear_1_1781" x1="1161.17" y1="-290.753" x2="1177.67" y2="250.366" gradientUnits="userSpaceOnUse">
<stop stop-color="#BE965D"/>
<stop offset="0.2784" stop-color="#976F40"/>
<stop offset="0.4259" stop-color="#C99B61"/>
<stop offset="0.5584" stop-color="#F0BE7B"/>
<stop offset="0.6275" stop-color="#FFCB85"/>
<stop offset="0.7085" stop-color="#EEBC79"/>
<stop offset="0.8693" stop-color="#C0935B"/>
<stop offset="1" stop-color="#976F40"/>
</linearGradient>
<linearGradient id="paint26_linear_1_1781" x1="1183.71" y1="-291.441" x2="1200.21" y2="249.678" gradientUnits="userSpaceOnUse">
<stop stop-color="#BE965D"/>
<stop offset="0.2784" stop-color="#976F40"/>
<stop offset="0.4259" stop-color="#C99B61"/>
<stop offset="0.5584" stop-color="#F0BE7B"/>
<stop offset="0.6275" stop-color="#FFCB85"/>
<stop offset="0.7085" stop-color="#EEBC79"/>
<stop offset="0.8693" stop-color="#C0935B"/>
<stop offset="1" stop-color="#976F40"/>
</linearGradient>
<linearGradient id="paint27_linear_1_1781" x1="1070.83" y1="-287.999" x2="1087.33" y2="253.121" gradientUnits="userSpaceOnUse">
<stop stop-color="#BE965D"/>
<stop offset="0.2784" stop-color="#976F40"/>
<stop offset="0.4259" stop-color="#C99B61"/>
<stop offset="0.5584" stop-color="#F0BE7B"/>
<stop offset="0.6275" stop-color="#FFCB85"/>
<stop offset="0.7085" stop-color="#EEBC79"/>
<stop offset="0.8693" stop-color="#C0935B"/>
<stop offset="1" stop-color="#976F40"/>
</linearGradient>
<linearGradient id="paint28_linear_1_1781" x1="1093.37" y1="-288.687" x2="1109.87" y2="252.433" gradientUnits="userSpaceOnUse">
<stop stop-color="#BE965D"/>
<stop offset="0.2784" stop-color="#976F40"/>
<stop offset="0.4259" stop-color="#C99B61"/>
<stop offset="0.5584" stop-color="#F0BE7B"/>
<stop offset="0.6275" stop-color="#FFCB85"/>
<stop offset="0.7085" stop-color="#EEBC79"/>
<stop offset="0.8693" stop-color="#C0935B"/>
<stop offset="1" stop-color="#976F40"/>
</linearGradient>
<linearGradient id="paint29_linear_1_1781" x1="1115.91" y1="-289.375" x2="1132.41" y2="251.746" gradientUnits="userSpaceOnUse">
<stop stop-color="#BE965D"/>
<stop offset="0.2784" stop-color="#976F40"/>
<stop offset="0.4259" stop-color="#C99B61"/>
<stop offset="0.5584" stop-color="#F0BE7B"/>
<stop offset="0.6275" stop-color="#FFCB85"/>
<stop offset="0.7085" stop-color="#EEBC79"/>
<stop offset="0.8693" stop-color="#C0935B"/>
<stop offset="1" stop-color="#976F40"/>
</linearGradient>
<linearGradient id="paint30_linear_1_1781" x1="1138.46" y1="-290.061" x2="1154.96" y2="251.059" gradientUnits="userSpaceOnUse">
<stop stop-color="#BE965D"/>
<stop offset="0.2784" stop-color="#976F40"/>
<stop offset="0.4259" stop-color="#C99B61"/>
<stop offset="0.5584" stop-color="#F0BE7B"/>
<stop offset="0.6275" stop-color="#FFCB85"/>
<stop offset="0.7085" stop-color="#EEBC79"/>
<stop offset="0.8693" stop-color="#C0935B"/>
<stop offset="1" stop-color="#976F40"/>
</linearGradient>
<linearGradient id="paint31_linear_1_1781" x1="1161" y1="-290.75" x2="1177.5" y2="250.371" gradientUnits="userSpaceOnUse">
<stop stop-color="#BE965D"/>
<stop offset="0.2784" stop-color="#976F40"/>
<stop offset="0.4259" stop-color="#C99B61"/>
<stop offset="0.5584" stop-color="#F0BE7B"/>
<stop offset="0.6275" stop-color="#FFCB85"/>
<stop offset="0.7085" stop-color="#EEBC79"/>
<stop offset="0.8693" stop-color="#C0935B"/>
<stop offset="1" stop-color="#976F40"/>
</linearGradient>
<linearGradient id="paint32_linear_1_1781" x1="1183.54" y1="-291.437" x2="1200.04" y2="249.683" gradientUnits="userSpaceOnUse">
<stop stop-color="#BE965D"/>
<stop offset="0.2784" stop-color="#976F40"/>
<stop offset="0.4259" stop-color="#C99B61"/>
<stop offset="0.5584" stop-color="#F0BE7B"/>
<stop offset="0.6275" stop-color="#FFCB85"/>
<stop offset="0.7085" stop-color="#EEBC79"/>
<stop offset="0.8693" stop-color="#C0935B"/>
<stop offset="1" stop-color="#976F40"/>
</linearGradient>
<linearGradient id="paint33_linear_1_1781" x1="1070.66" y1="-287.994" x2="1087.16" y2="253.127" gradientUnits="userSpaceOnUse">
<stop stop-color="#BE965D"/>
<stop offset="0.2784" stop-color="#976F40"/>
<stop offset="0.4259" stop-color="#C99B61"/>
<stop offset="0.5584" stop-color="#F0BE7B"/>
<stop offset="0.6275" stop-color="#FFCB85"/>
<stop offset="0.7085" stop-color="#EEBC79"/>
<stop offset="0.8693" stop-color="#C0935B"/>
<stop offset="1" stop-color="#976F40"/>
</linearGradient>
<linearGradient id="paint34_linear_1_1781" x1="1093.2" y1="-288.681" x2="1109.7" y2="252.439" gradientUnits="userSpaceOnUse">
<stop stop-color="#BE965D"/>
<stop offset="0.2784" stop-color="#976F40"/>
<stop offset="0.4259" stop-color="#C99B61"/>
<stop offset="0.5584" stop-color="#F0BE7B"/>
<stop offset="0.6275" stop-color="#FFCB85"/>
<stop offset="0.7085" stop-color="#EEBC79"/>
<stop offset="0.8693" stop-color="#C0935B"/>
<stop offset="1" stop-color="#976F40"/>
</linearGradient>
<linearGradient id="paint35_linear_1_1781" x1="1115.74" y1="-289.369" x2="1132.24" y2="251.752" gradientUnits="userSpaceOnUse">
<stop stop-color="#BE965D"/>
<stop offset="0.2784" stop-color="#976F40"/>
<stop offset="0.4259" stop-color="#C99B61"/>
<stop offset="0.5584" stop-color="#F0BE7B"/>
<stop offset="0.6275" stop-color="#FFCB85"/>
<stop offset="0.7085" stop-color="#EEBC79"/>
<stop offset="0.8693" stop-color="#C0935B"/>
<stop offset="1" stop-color="#976F40"/>
</linearGradient>
<linearGradient id="paint36_linear_1_1781" x1="1138.29" y1="-290.056" x2="1154.79" y2="251.065" gradientUnits="userSpaceOnUse">
<stop stop-color="#BE965D"/>
<stop offset="0.2784" stop-color="#976F40"/>
<stop offset="0.4259" stop-color="#C99B61"/>
<stop offset="0.5584" stop-color="#F0BE7B"/>
<stop offset="0.6275" stop-color="#FFCB85"/>
<stop offset="0.7085" stop-color="#EEBC79"/>
<stop offset="0.8693" stop-color="#C0935B"/>
<stop offset="1" stop-color="#976F40"/>
</linearGradient>
<linearGradient id="paint37_linear_1_1781" x1="1160.83" y1="-290.744" x2="1177.33" y2="250.377" gradientUnits="userSpaceOnUse">
<stop stop-color="#BE965D"/>
<stop offset="0.2784" stop-color="#976F40"/>
<stop offset="0.4259" stop-color="#C99B61"/>
<stop offset="0.5584" stop-color="#F0BE7B"/>
<stop offset="0.6275" stop-color="#FFCB85"/>
<stop offset="0.7085" stop-color="#EEBC79"/>
<stop offset="0.8693" stop-color="#C0935B"/>
<stop offset="1" stop-color="#976F40"/>
</linearGradient>
<linearGradient id="paint38_linear_1_1781" x1="1183.37" y1="-291.431" x2="1199.87" y2="249.689" gradientUnits="userSpaceOnUse">
<stop stop-color="#BE965D"/>
<stop offset="0.2784" stop-color="#976F40"/>
<stop offset="0.4259" stop-color="#C99B61"/>
<stop offset="0.5584" stop-color="#F0BE7B"/>
<stop offset="0.6275" stop-color="#FFCB85"/>
<stop offset="0.7085" stop-color="#EEBC79"/>
<stop offset="0.8693" stop-color="#C0935B"/>
<stop offset="1" stop-color="#976F40"/>
</linearGradient>
<linearGradient id="paint39_linear_1_1781" x1="1047.95" y1="-287.302" x2="1064.44" y2="253.819" gradientUnits="userSpaceOnUse">
<stop stop-color="#BE965D"/>
<stop offset="0.2784" stop-color="#976F40"/>
<stop offset="0.4259" stop-color="#C99B61"/>
<stop offset="0.5584" stop-color="#F0BE7B"/>
<stop offset="0.6275" stop-color="#FFCB85"/>
<stop offset="0.7085" stop-color="#EEBC79"/>
<stop offset="0.8693" stop-color="#C0935B"/>
<stop offset="1" stop-color="#976F40"/>
</linearGradient>
<linearGradient id="paint40_linear_1_1781" x1="1070.49" y1="-287.99" x2="1086.99" y2="253.131" gradientUnits="userSpaceOnUse">
<stop stop-color="#BE965D"/>
<stop offset="0.2784" stop-color="#976F40"/>
<stop offset="0.4259" stop-color="#C99B61"/>
<stop offset="0.5584" stop-color="#F0BE7B"/>
<stop offset="0.6275" stop-color="#FFCB85"/>
<stop offset="0.7085" stop-color="#EEBC79"/>
<stop offset="0.8693" stop-color="#C0935B"/>
<stop offset="1" stop-color="#976F40"/>
</linearGradient>
<linearGradient id="paint41_linear_1_1781" x1="1093.03" y1="-288.678" x2="1109.53" y2="252.443" gradientUnits="userSpaceOnUse">
<stop stop-color="#BE965D"/>
<stop offset="0.2784" stop-color="#976F40"/>
<stop offset="0.4259" stop-color="#C99B61"/>
<stop offset="0.5584" stop-color="#F0BE7B"/>
<stop offset="0.6275" stop-color="#FFCB85"/>
<stop offset="0.7085" stop-color="#EEBC79"/>
<stop offset="0.8693" stop-color="#C0935B"/>
<stop offset="1" stop-color="#976F40"/>
</linearGradient>
<linearGradient id="paint42_linear_1_1781" x1="1115.57" y1="-289.364" x2="1132.07" y2="251.757" gradientUnits="userSpaceOnUse">
<stop stop-color="#BE965D"/>
<stop offset="0.2784" stop-color="#976F40"/>
<stop offset="0.4259" stop-color="#C99B61"/>
<stop offset="0.5584" stop-color="#F0BE7B"/>
<stop offset="0.6275" stop-color="#FFCB85"/>
<stop offset="0.7085" stop-color="#EEBC79"/>
<stop offset="0.8693" stop-color="#C0935B"/>
<stop offset="1" stop-color="#976F40"/>
</linearGradient>
<linearGradient id="paint43_linear_1_1781" x1="1138.11" y1="-290.053" x2="1154.61" y2="251.069" gradientUnits="userSpaceOnUse">
<stop stop-color="#BE965D"/>
<stop offset="0.2784" stop-color="#976F40"/>
<stop offset="0.4259" stop-color="#C99B61"/>
<stop offset="0.5584" stop-color="#F0BE7B"/>
<stop offset="0.6275" stop-color="#FFCB85"/>
<stop offset="0.7085" stop-color="#EEBC79"/>
<stop offset="0.8693" stop-color="#C0935B"/>
<stop offset="1" stop-color="#976F40"/>
</linearGradient>
<linearGradient id="paint44_linear_1_1781" x1="1160.65" y1="-290.74" x2="1177.15" y2="250.381" gradientUnits="userSpaceOnUse">
<stop stop-color="#BE965D"/>
<stop offset="0.2784" stop-color="#976F40"/>
<stop offset="0.4259" stop-color="#C99B61"/>
<stop offset="0.5584" stop-color="#F0BE7B"/>
<stop offset="0.6275" stop-color="#FFCB85"/>
<stop offset="0.7085" stop-color="#EEBC79"/>
<stop offset="0.8693" stop-color="#C0935B"/>
<stop offset="1" stop-color="#976F40"/>
</linearGradient>
<linearGradient id="paint45_linear_1_1781" x1="1047.77" y1="-287.296" x2="1064.27" y2="253.825" gradientUnits="userSpaceOnUse">
<stop stop-color="#BE965D"/>
<stop offset="0.2784" stop-color="#976F40"/>
<stop offset="0.4259" stop-color="#C99B61"/>
<stop offset="0.5584" stop-color="#F0BE7B"/>
<stop offset="0.6275" stop-color="#FFCB85"/>
<stop offset="0.7085" stop-color="#EEBC79"/>
<stop offset="0.8693" stop-color="#C0935B"/>
<stop offset="1" stop-color="#976F40"/>
</linearGradient>
<linearGradient id="paint46_linear_1_1781" x1="1070.32" y1="-287.984" x2="1086.82" y2="253.137" gradientUnits="userSpaceOnUse">
<stop stop-color="#BE965D"/>
<stop offset="0.2784" stop-color="#976F40"/>
<stop offset="0.4259" stop-color="#C99B61"/>
<stop offset="0.5584" stop-color="#F0BE7B"/>
<stop offset="0.6275" stop-color="#FFCB85"/>
<stop offset="0.7085" stop-color="#EEBC79"/>
<stop offset="0.8693" stop-color="#C0935B"/>
<stop offset="1" stop-color="#976F40"/>
</linearGradient>
<linearGradient id="paint47_linear_1_1781" x1="1092.86" y1="-288.671" x2="1109.36" y2="252.449" gradientUnits="userSpaceOnUse">
<stop stop-color="#BE965D"/>
<stop offset="0.2784" stop-color="#976F40"/>
<stop offset="0.4259" stop-color="#C99B61"/>
<stop offset="0.5584" stop-color="#F0BE7B"/>
<stop offset="0.6275" stop-color="#FFCB85"/>
<stop offset="0.7085" stop-color="#EEBC79"/>
<stop offset="0.8693" stop-color="#C0935B"/>
<stop offset="1" stop-color="#976F40"/>
</linearGradient>
<linearGradient id="paint48_linear_1_1781" x1="1115.4" y1="-289.358" x2="1131.9" y2="251.763" gradientUnits="userSpaceOnUse">
<stop stop-color="#BE965D"/>
<stop offset="0.2784" stop-color="#976F40"/>
<stop offset="0.4259" stop-color="#C99B61"/>
<stop offset="0.5584" stop-color="#F0BE7B"/>
<stop offset="0.6275" stop-color="#FFCB85"/>
<stop offset="0.7085" stop-color="#EEBC79"/>
<stop offset="0.8693" stop-color="#C0935B"/>
<stop offset="1" stop-color="#976F40"/>
</linearGradient>
<linearGradient id="paint49_linear_1_1781" x1="1137.94" y1="-290.045" x2="1154.44" y2="251.075" gradientUnits="userSpaceOnUse">
<stop stop-color="#BE965D"/>
<stop offset="0.2784" stop-color="#976F40"/>
<stop offset="0.4259" stop-color="#C99B61"/>
<stop offset="0.5584" stop-color="#F0BE7B"/>
<stop offset="0.6275" stop-color="#FFCB85"/>
<stop offset="0.7085" stop-color="#EEBC79"/>
<stop offset="0.8693" stop-color="#C0935B"/>
<stop offset="1" stop-color="#976F40"/>
</linearGradient>
<linearGradient id="paint50_linear_1_1781" x1="1160.48" y1="-290.734" x2="1176.98" y2="250.387" gradientUnits="userSpaceOnUse">
<stop stop-color="#BE965D"/>
<stop offset="0.2784" stop-color="#976F40"/>
<stop offset="0.4259" stop-color="#C99B61"/>
<stop offset="0.5584" stop-color="#F0BE7B"/>
<stop offset="0.6275" stop-color="#FFCB85"/>
<stop offset="0.7085" stop-color="#EEBC79"/>
<stop offset="0.8693" stop-color="#C0935B"/>
<stop offset="1" stop-color="#976F40"/>
</linearGradient>
<linearGradient id="paint51_linear_1_1781" x1="1116.77" y1="-289.4" x2="1133.27" y2="251.719" gradientUnits="userSpaceOnUse">
<stop stop-color="#BE965D"/>
<stop offset="0.2784" stop-color="#976F40"/>
<stop offset="0.4259" stop-color="#C99B61"/>
<stop offset="0.5584" stop-color="#F0BE7B"/>
<stop offset="0.6275" stop-color="#FFCB85"/>
<stop offset="0.7085" stop-color="#EEBC79"/>
<stop offset="0.8693" stop-color="#C0935B"/>
<stop offset="1" stop-color="#976F40"/>
</linearGradient>
<linearGradient id="paint52_linear_1_1781" x1="1094.06" y1="-288.707" x2="1110.56" y2="252.412" gradientUnits="userSpaceOnUse">
<stop stop-color="#BE965D"/>
<stop offset="0.2784" stop-color="#976F40"/>
<stop offset="0.4259" stop-color="#C99B61"/>
<stop offset="0.5584" stop-color="#F0BE7B"/>
<stop offset="0.6275" stop-color="#FFCB85"/>
<stop offset="0.7085" stop-color="#EEBC79"/>
<stop offset="0.8693" stop-color="#C0935B"/>
<stop offset="1" stop-color="#976F40"/>
</linearGradient>
<linearGradient id="paint53_linear_1_1781" x1="1071.35" y1="-288.015" x2="1087.84" y2="253.105" gradientUnits="userSpaceOnUse">
<stop stop-color="#BE965D"/>
<stop offset="0.2784" stop-color="#976F40"/>
<stop offset="0.4259" stop-color="#C99B61"/>
<stop offset="0.5584" stop-color="#F0BE7B"/>
<stop offset="0.6275" stop-color="#FFCB85"/>
<stop offset="0.7085" stop-color="#EEBC79"/>
<stop offset="0.8693" stop-color="#C0935B"/>
<stop offset="1" stop-color="#976F40"/>
</linearGradient>
<linearGradient id="paint54_linear_1_1781" x1="1093.89" y1="-288.702" x2="1110.39" y2="252.417" gradientUnits="userSpaceOnUse">
<stop stop-color="#BE965D"/>
<stop offset="0.2784" stop-color="#976F40"/>
<stop offset="0.4259" stop-color="#C99B61"/>
<stop offset="0.5584" stop-color="#F0BE7B"/>
<stop offset="0.6275" stop-color="#FFCB85"/>
<stop offset="0.7085" stop-color="#EEBC79"/>
<stop offset="0.8693" stop-color="#C0935B"/>
<stop offset="1" stop-color="#976F40"/>
</linearGradient>
<linearGradient id="paint55_linear_1_1781" x1="1048.63" y1="-287.323" x2="1065.13" y2="253.797" gradientUnits="userSpaceOnUse">
<stop stop-color="#BE965D"/>
<stop offset="0.2784" stop-color="#976F40"/>
<stop offset="0.4259" stop-color="#C99B61"/>
<stop offset="0.5584" stop-color="#F0BE7B"/>
<stop offset="0.6275" stop-color="#FFCB85"/>
<stop offset="0.7085" stop-color="#EEBC79"/>
<stop offset="0.8693" stop-color="#C0935B"/>
<stop offset="1" stop-color="#976F40"/>
</linearGradient>
<linearGradient id="paint56_linear_1_1781" x1="1071.17" y1="-288.01" x2="1087.67" y2="253.11" gradientUnits="userSpaceOnUse">
<stop stop-color="#BE965D"/>
<stop offset="0.2784" stop-color="#976F40"/>
<stop offset="0.4259" stop-color="#C99B61"/>
<stop offset="0.5584" stop-color="#F0BE7B"/>
<stop offset="0.6275" stop-color="#FFCB85"/>
<stop offset="0.7085" stop-color="#EEBC79"/>
<stop offset="0.8693" stop-color="#C0935B"/>
<stop offset="1" stop-color="#976F40"/>
</linearGradient>
<linearGradient id="paint57_linear_1_1781" x1="1025.92" y1="-286.631" x2="1042.42" y2="254.488" gradientUnits="userSpaceOnUse">
<stop stop-color="#BE965D"/>
<stop offset="0.2784" stop-color="#976F40"/>
<stop offset="0.4259" stop-color="#C99B61"/>
<stop offset="0.5584" stop-color="#F0BE7B"/>
<stop offset="0.6275" stop-color="#FFCB85"/>
<stop offset="0.7085" stop-color="#EEBC79"/>
<stop offset="0.8693" stop-color="#C0935B"/>
<stop offset="1" stop-color="#976F40"/>
</linearGradient>
<linearGradient id="paint58_linear_1_1781" x1="1048.46" y1="-287.317" x2="1064.96" y2="253.802" gradientUnits="userSpaceOnUse">
<stop stop-color="#BE965D"/>
<stop offset="0.2784" stop-color="#976F40"/>
<stop offset="0.4259" stop-color="#C99B61"/>
<stop offset="0.5584" stop-color="#F0BE7B"/>
<stop offset="0.6275" stop-color="#FFCB85"/>
<stop offset="0.7085" stop-color="#EEBC79"/>
<stop offset="0.8693" stop-color="#C0935B"/>
<stop offset="1" stop-color="#976F40"/>
</linearGradient>
<linearGradient id="paint59_linear_1_1781" x1="1071" y1="-288.005" x2="1087.5" y2="253.114" gradientUnits="userSpaceOnUse">
<stop stop-color="#BE965D"/>
<stop offset="0.2784" stop-color="#976F40"/>
<stop offset="0.4259" stop-color="#C99B61"/>
<stop offset="0.5584" stop-color="#F0BE7B"/>
<stop offset="0.6275" stop-color="#FFCB85"/>
<stop offset="0.7085" stop-color="#EEBC79"/>
<stop offset="0.8693" stop-color="#C0935B"/>
<stop offset="1" stop-color="#976F40"/>
</linearGradient>
<linearGradient id="paint60_linear_1_1781" x1="1003.2" y1="-285.938" x2="1019.7" y2="255.182" gradientUnits="userSpaceOnUse">
<stop stop-color="#BE965D"/>
<stop offset="0.2784" stop-color="#976F40"/>
<stop offset="0.4259" stop-color="#C99B61"/>
<stop offset="0.5584" stop-color="#F0BE7B"/>
<stop offset="0.6275" stop-color="#FFCB85"/>
<stop offset="0.7085" stop-color="#EEBC79"/>
<stop offset="0.8693" stop-color="#C0935B"/>
<stop offset="1" stop-color="#976F40"/>
</linearGradient>
<linearGradient id="paint61_linear_1_1781" x1="1025.75" y1="-286.625" x2="1042.25" y2="254.495" gradientUnits="userSpaceOnUse">
<stop stop-color="#BE965D"/>
<stop offset="0.2784" stop-color="#976F40"/>
<stop offset="0.4259" stop-color="#C99B61"/>
<stop offset="0.5584" stop-color="#F0BE7B"/>
<stop offset="0.6275" stop-color="#FFCB85"/>
<stop offset="0.7085" stop-color="#EEBC79"/>
<stop offset="0.8693" stop-color="#C0935B"/>
<stop offset="1" stop-color="#976F40"/>
</linearGradient>
<linearGradient id="paint62_linear_1_1781" x1="1048.29" y1="-287.312" x2="1064.79" y2="253.808" gradientUnits="userSpaceOnUse">
<stop stop-color="#BE965D"/>
<stop offset="0.2784" stop-color="#976F40"/>
<stop offset="0.4259" stop-color="#C99B61"/>
<stop offset="0.5584" stop-color="#F0BE7B"/>
<stop offset="0.6275" stop-color="#FFCB85"/>
<stop offset="0.7085" stop-color="#EEBC79"/>
<stop offset="0.8693" stop-color="#C0935B"/>
<stop offset="1" stop-color="#976F40"/>
</linearGradient>
<linearGradient id="paint63_linear_1_1781" x1="980.495" y1="-285.245" x2="996.993" y2="255.876" gradientUnits="userSpaceOnUse">
<stop stop-color="#BE965D"/>
<stop offset="0.2784" stop-color="#976F40"/>
<stop offset="0.4259" stop-color="#C99B61"/>
<stop offset="0.5584" stop-color="#F0BE7B"/>
<stop offset="0.6275" stop-color="#FFCB85"/>
<stop offset="0.7085" stop-color="#EEBC79"/>
<stop offset="0.8693" stop-color="#C0935B"/>
<stop offset="1" stop-color="#976F40"/>
</linearGradient>
<linearGradient id="paint64_linear_1_1781" x1="1003.03" y1="-285.934" x2="1019.53" y2="255.187" gradientUnits="userSpaceOnUse">
<stop stop-color="#BE965D"/>
<stop offset="0.2784" stop-color="#976F40"/>
<stop offset="0.4259" stop-color="#C99B61"/>
<stop offset="0.5584" stop-color="#F0BE7B"/>
<stop offset="0.6275" stop-color="#FFCB85"/>
<stop offset="0.7085" stop-color="#EEBC79"/>
<stop offset="0.8693" stop-color="#C0935B"/>
<stop offset="1" stop-color="#976F40"/>
</linearGradient>
<linearGradient id="paint65_linear_1_1781" x1="1025.58" y1="-286.62" x2="1042.08" y2="254.501" gradientUnits="userSpaceOnUse">
<stop stop-color="#BE965D"/>
<stop offset="0.2784" stop-color="#976F40"/>
<stop offset="0.4259" stop-color="#C99B61"/>
<stop offset="0.5584" stop-color="#F0BE7B"/>
<stop offset="0.6275" stop-color="#FFCB85"/>
<stop offset="0.7085" stop-color="#EEBC79"/>
<stop offset="0.8693" stop-color="#C0935B"/>
<stop offset="1" stop-color="#976F40"/>
</linearGradient>
<linearGradient id="paint66_linear_1_1781" x1="1048.12" y1="-287.307" x2="1064.62" y2="253.814" gradientUnits="userSpaceOnUse">
<stop stop-color="#BE965D"/>
<stop offset="0.2784" stop-color="#976F40"/>
<stop offset="0.4259" stop-color="#C99B61"/>
<stop offset="0.5584" stop-color="#F0BE7B"/>
<stop offset="0.6275" stop-color="#FFCB85"/>
<stop offset="0.7085" stop-color="#EEBC79"/>
<stop offset="0.8693" stop-color="#C0935B"/>
<stop offset="1" stop-color="#976F40"/>
</linearGradient>
<linearGradient id="paint67_linear_1_1781" x1="957.779" y1="-284.553" x2="974.278" y2="256.567" gradientUnits="userSpaceOnUse">
<stop stop-color="#BE965D"/>
<stop offset="0.2784" stop-color="#976F40"/>
<stop offset="0.4259" stop-color="#C99B61"/>
<stop offset="0.5584" stop-color="#F0BE7B"/>
<stop offset="0.6275" stop-color="#FFCB85"/>
<stop offset="0.7085" stop-color="#EEBC79"/>
<stop offset="0.8693" stop-color="#C0935B"/>
<stop offset="1" stop-color="#976F40"/>
</linearGradient>
<linearGradient id="paint68_linear_1_1781" x1="980.322" y1="-285.241" x2="996.821" y2="255.88" gradientUnits="userSpaceOnUse">
<stop stop-color="#BE965D"/>
<stop offset="0.2784" stop-color="#976F40"/>
<stop offset="0.4259" stop-color="#C99B61"/>
<stop offset="0.5584" stop-color="#F0BE7B"/>
<stop offset="0.6275" stop-color="#FFCB85"/>
<stop offset="0.7085" stop-color="#EEBC79"/>
<stop offset="0.8693" stop-color="#C0935B"/>
<stop offset="1" stop-color="#976F40"/>
</linearGradient>
<linearGradient id="paint69_linear_1_1781" x1="1002.86" y1="-285.928" x2="1019.36" y2="255.193" gradientUnits="userSpaceOnUse">
<stop stop-color="#BE965D"/>
<stop offset="0.2784" stop-color="#976F40"/>
<stop offset="0.4259" stop-color="#C99B61"/>
<stop offset="0.5584" stop-color="#F0BE7B"/>
<stop offset="0.6275" stop-color="#FFCB85"/>
<stop offset="0.7085" stop-color="#EEBC79"/>
<stop offset="0.8693" stop-color="#C0935B"/>
<stop offset="1" stop-color="#976F40"/>
</linearGradient>
<linearGradient id="paint70_linear_1_1781" x1="1025.41" y1="-286.614" x2="1041.91" y2="254.506" gradientUnits="userSpaceOnUse">
<stop stop-color="#BE965D"/>
<stop offset="0.2784" stop-color="#976F40"/>
<stop offset="0.4259" stop-color="#C99B61"/>
<stop offset="0.5584" stop-color="#F0BE7B"/>
<stop offset="0.6275" stop-color="#FFCB85"/>
<stop offset="0.7085" stop-color="#EEBC79"/>
<stop offset="0.8693" stop-color="#C0935B"/>
<stop offset="1" stop-color="#976F40"/>
</linearGradient>
<linearGradient id="paint71_linear_1_1781" x1="935.064" y1="-283.861" x2="951.563" y2="257.26" gradientUnits="userSpaceOnUse">
<stop stop-color="#BE965D"/>
<stop offset="0.2784" stop-color="#976F40"/>
<stop offset="0.4259" stop-color="#C99B61"/>
<stop offset="0.5584" stop-color="#F0BE7B"/>
<stop offset="0.6275" stop-color="#FFCB85"/>
<stop offset="0.7085" stop-color="#EEBC79"/>
<stop offset="0.8693" stop-color="#C0935B"/>
<stop offset="1" stop-color="#976F40"/>
</linearGradient>
<linearGradient id="paint72_linear_1_1781" x1="957.608" y1="-284.547" x2="974.107" y2="256.574" gradientUnits="userSpaceOnUse">
<stop stop-color="#BE965D"/>
<stop offset="0.2784" stop-color="#976F40"/>
<stop offset="0.4259" stop-color="#C99B61"/>
<stop offset="0.5584" stop-color="#F0BE7B"/>
<stop offset="0.6275" stop-color="#FFCB85"/>
<stop offset="0.7085" stop-color="#EEBC79"/>
<stop offset="0.8693" stop-color="#C0935B"/>
<stop offset="1" stop-color="#976F40"/>
</linearGradient>
<linearGradient id="paint73_linear_1_1781" x1="980.147" y1="-285.236" x2="996.646" y2="255.885" gradientUnits="userSpaceOnUse">
<stop stop-color="#BE965D"/>
<stop offset="0.2784" stop-color="#976F40"/>
<stop offset="0.4259" stop-color="#C99B61"/>
<stop offset="0.5584" stop-color="#F0BE7B"/>
<stop offset="0.6275" stop-color="#FFCB85"/>
<stop offset="0.7085" stop-color="#EEBC79"/>
<stop offset="0.8693" stop-color="#C0935B"/>
<stop offset="1" stop-color="#976F40"/>
</linearGradient>
<linearGradient id="paint74_linear_1_1781" x1="1002.69" y1="-285.922" x2="1019.19" y2="255.198" gradientUnits="userSpaceOnUse">
<stop stop-color="#BE965D"/>
<stop offset="0.2784" stop-color="#976F40"/>
<stop offset="0.4259" stop-color="#C99B61"/>
<stop offset="0.5584" stop-color="#F0BE7B"/>
<stop offset="0.6275" stop-color="#FFCB85"/>
<stop offset="0.7085" stop-color="#EEBC79"/>
<stop offset="0.8693" stop-color="#C0935B"/>
<stop offset="1" stop-color="#976F40"/>
</linearGradient>
<linearGradient id="paint75_linear_1_1781" x1="1025.23" y1="-286.61" x2="1041.73" y2="254.511" gradientUnits="userSpaceOnUse">
<stop stop-color="#BE965D"/>
<stop offset="0.2784" stop-color="#976F40"/>
<stop offset="0.4259" stop-color="#C99B61"/>
<stop offset="0.5584" stop-color="#F0BE7B"/>
<stop offset="0.6275" stop-color="#FFCB85"/>
<stop offset="0.7085" stop-color="#EEBC79"/>
<stop offset="0.8693" stop-color="#C0935B"/>
<stop offset="1" stop-color="#976F40"/>
</linearGradient>
</defs>
</svg>
