<svg width="54" height="54" viewBox="0 0 54 54" fill="none" xmlns="http://www.w3.org/2000/svg">
<circle cx="27.2805" cy="27.1668" r="26.3889" fill="#181818"/>
<path d="M27.2509 39.6191C34.1317 39.6191 39.7097 34.0411 39.7097 27.1603C39.7097 20.2794 34.1317 14.7014 27.2509 14.7014C20.3701 14.7014 14.7921 20.2794 14.7921 27.1603C14.7921 34.0411 20.3701 39.6191 27.2509 39.6191Z" stroke="white" stroke-width="2" stroke-linecap="round" stroke-linejoin="round"/>
<path d="M17.0762 34.35L18.5946 33.4286C18.7452 33.3357 18.8696 33.2059 18.9559 33.0514C19.0422 32.897 19.0876 32.723 19.0878 32.5461L19.1137 27.8611C19.1158 27.6668 19.1744 27.4774 19.2825 27.316L21.8521 23.2799C21.9292 23.1606 22.0297 23.0582 22.1474 22.9789C22.2652 22.8995 22.3978 22.8449 22.5373 22.8182C22.6768 22.7915 22.8202 22.7933 22.959 22.8236C23.0977 22.8539 23.2289 22.912 23.3446 22.9943L25.8882 24.8372C26.1077 24.9902 26.3748 25.0593 26.641 25.0319L30.729 24.4738C30.977 24.4397 31.2036 24.3148 31.3649 24.1234L34.246 20.8011C34.4169 20.5985 34.505 20.339 34.4926 20.0743L34.3499 16.9207" stroke="white" stroke-width="2" stroke-linecap="round" stroke-linejoin="round"/>
<path d="M34.9209 36.9846L33.5193 35.5829C33.3896 35.4534 33.2287 35.3595 33.0521 35.3104L30.2618 34.5836C30.0167 34.5166 29.8048 34.362 29.6661 34.1491C29.5273 33.9362 29.4715 33.6799 29.5091 33.4286L29.8076 31.3262C29.8372 31.1493 29.911 30.9829 30.0222 30.8422C30.1334 30.7015 30.2783 30.5912 30.4435 30.5215L34.3888 28.8733C34.572 28.7969 34.7733 28.7746 34.9689 28.8091C35.1644 28.8436 35.3459 28.9335 35.4919 29.068L38.7234 32.027" stroke="white" stroke-width="2" stroke-linecap="round" stroke-linejoin="round"/>
</svg>
