<svg width="50" height="50" viewBox="0 0 50 50" fill="none" xmlns="http://www.w3.org/2000/svg">
<circle cx="25" cy="25" r="25" fill="#181818"/>
<path d="M21.1453 25.062C21.9521 26.7281 23.2993 28.0718 24.9674 28.8743C25.0905 28.9326 25.2266 28.9578 25.3624 28.9475C25.4981 28.9372 25.6288 28.8917 25.7417 28.8155L28.1918 27.1789C28.3001 27.1054 28.4251 27.0606 28.5554 27.0486C28.6856 27.0367 28.8168 27.0578 28.9366 27.1103L33.5233 29.0802C33.68 29.1454 33.811 29.2604 33.896 29.4074C33.981 29.5543 34.0153 29.7252 33.9937 29.8936C33.8483 31.0282 33.2945 32.071 32.4358 32.8269C31.5772 33.5827 30.4726 33.9997 29.3287 34C25.7937 34 22.4035 32.5957 19.9039 30.0961C17.4043 27.5965 16 24.2063 16 20.6713C16.0003 19.5274 16.4173 18.4228 17.1731 17.5642C17.929 16.7055 18.9718 16.1517 20.1064 16.0063C20.2748 15.9847 20.4457 16.019 20.5926 16.104C20.7396 16.189 20.8546 16.32 20.9198 16.4767L22.8897 21.0732C22.941 21.1911 22.9624 21.3198 22.9521 21.448C22.9419 21.5762 22.9003 21.6999 22.8309 21.8082L21.1943 24.2975C21.1214 24.4101 21.0786 24.5395 21.07 24.6733C21.0615 24.8072 21.0874 24.941 21.1453 25.062V25.062Z" stroke="white" stroke-linecap="round" stroke-linejoin="round"/>
</svg>
