<svg width="81" height="72" viewBox="0 0 81 72" fill="none" xmlns="http://www.w3.org/2000/svg">
<path d="M35.0803 1.46352C35.2299 1.00287 35.8816 1.00287 36.0313 1.46353L37.1769 4.98924C37.2438 5.19525 37.4358 5.33473 37.6524 5.33473H41.3596C41.8439 5.33473 42.0453 5.95454 41.6535 6.23924L38.6543 8.41825C38.4791 8.54557 38.4057 8.77125 38.4727 8.97726L39.6182 12.503C39.7679 12.9636 39.2407 13.3467 38.8488 13.062L35.8497 10.883C35.6744 10.7557 35.4371 10.7557 35.2619 10.883L32.2627 13.062C31.8709 13.3467 31.3436 12.9636 31.4933 12.503L32.6389 8.97726C32.7058 8.77125 32.6325 8.54557 32.4573 8.41824L29.4581 6.23924C29.0663 5.95453 29.2676 5.33473 29.752 5.33473H33.4592C33.6758 5.33473 33.8677 5.19525 33.9347 4.98924L35.0803 1.46352Z" fill="#FFCC4A"/>
<path d="M15.0831 63.5324C15.3553 63.8045 15.2307 64.2692 14.859 64.3689L4.54939 67.1313C4.17761 67.2309 3.8374 66.8907 3.93702 66.5189L6.69946 56.2094C6.79908 55.8376 7.26381 55.7131 7.53598 55.9852L15.0831 63.5324Z" fill="#4EAF4E"/>
<path d="M76.8984 22.3105H29.3894C28.1967 22.3105 27.2299 23.2774 27.2299 24.47V56.8626C27.2299 58.0552 28.1967 59.0221 29.3894 59.0221H76.8984C78.0911 59.0221 79.0579 58.0552 79.0579 56.8626V24.47C79.0579 23.2774 78.0911 22.3105 76.8984 22.3105Z" fill="white" stroke="#181818" stroke-width="2" stroke-linecap="round" stroke-linejoin="round"/>
<path d="M76.8984 22.3105H29.3894C28.1967 22.3105 27.2299 23.2774 27.2299 24.47V56.8626C27.2299 58.0552 28.1967 59.0221 29.3894 59.0221H76.8984C78.0911 59.0221 79.0579 58.0552 79.0579 56.8626V24.47C79.0579 23.2774 78.0911 22.3105 76.8984 22.3105Z" fill="white" stroke="#181818" stroke-width="2" stroke-linecap="round" stroke-linejoin="round"/>
<path d="M76.8984 48.7285H29.3894C28.1967 48.7285 27.2299 48.9996 27.2299 49.334V58.4167C27.2299 58.7511 28.1967 59.0222 29.3894 59.0222H76.8984C78.0911 59.0222 79.0579 58.7511 79.0579 58.4167V49.334C79.0579 48.9996 78.0911 48.7285 76.8984 48.7285Z" fill="#4EAF4E" stroke="#181818" stroke-width="2" stroke-linecap="round" stroke-linejoin="round"/>
<path d="M61.7816 59.0215L70.4196 69.819" stroke="#181818" stroke-width="2" stroke-linecap="round" stroke-linejoin="round"/>
<path d="M44.5056 59.0215L35.8676 69.819" stroke="#181818" stroke-width="2" stroke-linecap="round" stroke-linejoin="round"/>
<path d="M44.5062 41.7461V48.2246" stroke="#181818" stroke-width="2" stroke-linecap="round" stroke-linejoin="round"/>
<path d="M53.1439 37.4277V48.2252" stroke="#181818" stroke-width="2" stroke-linecap="round" stroke-linejoin="round"/>
<path d="M61.7816 33.1074V48.2239" stroke="#181818" stroke-width="2" stroke-linecap="round" stroke-linejoin="round"/>
<path d="M53.1439 22.3105V15.832" stroke="#181818" stroke-width="2" stroke-linecap="round" stroke-linejoin="round"/>
</svg>
