<svg width="79" height="90" viewBox="0 0 79 90" fill="none" xmlns="http://www.w3.org/2000/svg">
<path d="M43.3024 8.46353C43.4521 8.00287 44.1038 8.00287 44.2535 8.46353L45.3765 11.9199C45.4434 12.1259 45.6354 12.2654 45.852 12.2654L49.4863 12.2654C49.9706 12.2654 50.172 12.8852 49.7802 13.1699L46.84 15.306C46.6648 15.4333 46.5914 15.659 46.6584 15.865L47.7814 19.3214C47.9311 19.782 47.4038 20.1651 47.012 19.8804L44.0718 17.7443C43.8966 17.6169 43.6593 17.6169 43.4841 17.7443L40.5439 19.8804C40.1521 20.1651 39.6248 19.782 39.7745 19.3214L40.8975 15.865C40.9645 15.659 40.8911 15.4333 40.7159 15.306L37.7757 13.1699C37.3839 12.8852 37.5853 12.2654 38.0696 12.2654L41.7039 12.2654C41.9205 12.2654 42.1124 12.1259 42.1794 11.9199L43.3024 8.46353Z" fill="#141414"/>
<path d="M16.1993 75.6292C16.4714 75.9014 16.3469 76.3661 15.9751 76.4657L5.94769 79.1526C5.57591 79.2522 5.2357 78.912 5.33532 78.5402L8.02216 68.5128C8.12178 68.141 8.58651 68.0165 8.85868 68.2886L16.1993 75.6292Z" fill="#4EAF4E"/>
<path d="M50.4311 41.1973C61.6397 42.2414 70.0846 46.6941 70.0846 52.0374C70.0846 58.1484 59.0909 63.0925 45.5177 63.0925C39.4988 63.0925 33.9713 62.1098 29.7028 60.513" fill="#4EAF4E"/>
<path d="M50.4311 41.1973C61.6397 42.2414 70.0846 46.6941 70.0846 52.0374C70.0846 58.1484 59.0909 63.0925 45.5177 63.0925C39.4988 63.0925 33.9713 62.1098 29.7028 60.513" stroke="#141414" stroke-width="2" stroke-linecap="round" stroke-linejoin="round"/>
<path d="M1.29651 37.2969V49.5803C1.29651 55.6913 12.2902 60.6354 25.8634 60.6354C39.4366 60.6354 50.4303 55.6913 50.4303 49.5803V37.2969" fill="white"/>
<path d="M1.29651 37.2969V49.5803C1.29651 55.6913 12.2902 60.6354 25.8634 60.6354C39.4366 60.6354 50.4303 55.6913 50.4303 49.5803V37.2969" stroke="#141414" stroke-width="2" stroke-linecap="round" stroke-linejoin="round"/>
<path d="M25.8634 48.3524C39.4313 48.3524 50.4303 43.4029 50.4303 37.2973C50.4303 31.1917 39.4313 26.2422 25.8634 26.2422C12.2955 26.2422 1.29651 31.1917 1.29651 37.2973C1.29651 43.4029 12.2955 48.3524 25.8634 48.3524Z" fill="#FFCC4A" stroke="#141414" stroke-width="2" stroke-linecap="round" stroke-linejoin="round"/>
<path d="M16.0367 47.4316V59.7151" stroke="#141414" stroke-width="2" stroke-linecap="round" stroke-linejoin="round"/>
<path d="M20.9508 60.4206V64.3206C20.9508 70.4316 31.9445 75.3757 45.5177 75.3757C59.0909 75.3757 70.0846 70.4316 70.0846 64.3206V52.0371" stroke="#141414" stroke-width="2" stroke-linecap="round" stroke-linejoin="round"/>
<path d="M55.3444 62.1719V74.4553" stroke="#141414" stroke-width="2" stroke-linecap="round" stroke-linejoin="round"/>
<path d="M35.6901 47.4316V74.4552" stroke="#141414" stroke-width="2" stroke-linecap="round" stroke-linejoin="round"/>
</svg>
