<svg width="84" height="90" viewBox="0 0 84 90" fill="none" xmlns="http://www.w3.org/2000/svg">
<path d="M64.0681 1.75259C64.2178 1.29193 64.8695 1.29193 65.0192 1.75259L65.9427 4.59493C66.0096 4.80094 66.2016 4.94042 66.4182 4.94042H69.4068C69.8912 4.94042 70.0926 5.56023 69.7007 5.84493L67.2829 7.60159C67.1077 7.72891 67.0343 7.9546 67.1013 8.16061L68.0248 11.0029C68.1745 11.4636 67.6472 11.8467 67.2554 11.562L64.8375 9.8053C64.6623 9.67798 64.425 9.67798 64.2497 9.8053L61.8319 11.562C61.4401 11.8467 60.9128 11.4636 61.0625 11.0029L61.986 8.16061C62.053 7.9546 61.9796 7.72891 61.8044 7.60159L59.3865 5.84493C58.9947 5.56023 59.1961 4.94042 59.6804 4.94042H62.6691C62.8857 4.94042 63.0776 4.80094 63.1446 4.59493L64.0681 1.75259Z" fill="#141414"/>
<path d="M14.3812 77.1691C14.6534 77.4412 14.5288 77.906 14.1571 78.0056L3.84749 80.768C3.4757 80.8676 3.13549 80.5274 3.23511 80.1557L5.99756 69.8461C6.09718 69.4743 6.56191 69.3498 6.83407 69.6219L14.3812 77.1691Z" fill="#4EAF4E"/>
<path d="M15.9832 61.689C19.7969 68.2945 26.0785 73.1145 33.446 75.0887C40.8135 77.0628 48.6636 76.0293 55.2691 72.2156C61.8747 68.4019 66.6947 62.1203 68.6688 54.7528C70.643 47.3852 69.6095 39.5352 65.7958 32.9296L40.8895 47.3093L15.9832 61.689Z" fill="#FFCC4A"/>
<path d="M40.6617 46.4798V17.4375" stroke="#141414" stroke-width="2" stroke-linecap="round" stroke-linejoin="round"/>
<path d="M65.8016 31.959L15.5221 61.0013" stroke="#141414" stroke-width="2" stroke-linecap="round" stroke-linejoin="round"/>
<path d="M12.1041 51.8044C11.7739 50.049 11.6118 48.2661 11.62 46.48C11.6162 40.4737 13.4767 34.6142 16.9447 29.7102C20.4127 24.8062 25.3173 21.0995 30.9816 19.1016V40.8833L12.1041 51.8044Z" fill="#4EAF4E" stroke="#141414" stroke-width="2" stroke-linecap="round" stroke-linejoin="round"/>
<path d="M12.1041 51.8044C11.7739 50.049 11.6118 48.2661 11.62 46.48C11.6162 40.4737 13.4767 34.6142 16.9447 29.7102C20.4127 24.8062 25.3173 21.0995 30.9816 19.1016V40.8833L12.1041 51.8044Z" stroke="#141414" stroke-width="2" stroke-linecap="round" stroke-linejoin="round"/>
<path d="M40.6619 17.4375C45.7509 17.4381 50.7503 18.7758 55.1595 21.3168C59.5687 23.8577 63.2329 27.5126 65.7849 31.9153C68.337 36.3181 69.6874 41.3142 69.7008 46.4031C69.7143 51.492 68.3903 56.4952 65.8615 60.9114C63.3328 65.3275 59.688 69.0017 55.2922 71.5659C50.8965 74.1301 45.9042 75.4942 40.8153 75.5217C35.7264 75.5492 30.7197 74.239 26.2966 71.7224C21.8734 69.2058 18.1892 65.5711 15.6129 61.1825" stroke="#141414" stroke-width="2" stroke-linecap="round" stroke-linejoin="round"/>
</svg>
