<svg width="86" height="61" viewBox="0 0 86 61" fill="none" xmlns="http://www.w3.org/2000/svg">
<path d="M77.7536 1.46352C77.9033 1.00287 78.555 1.00287 78.7046 1.46353L79.6701 4.43486C79.737 4.64087 79.929 4.78035 80.1456 4.78035H83.2699C83.7542 4.78035 83.9556 5.40016 83.5638 5.68486L81.0362 7.52125C80.8609 7.64857 80.7876 7.87426 80.8545 8.08027L81.82 11.0516C81.9697 11.5123 81.4424 11.8953 81.0506 11.6106L78.523 9.77423C78.3478 9.64691 78.1105 9.64691 77.9352 9.77423L75.4076 11.6106C75.0158 11.8953 74.4885 11.5123 74.6382 11.0516L75.6037 8.08027C75.6706 7.87426 75.5973 7.64857 75.422 7.52125L72.8945 5.68486C72.5026 5.40016 72.704 4.78035 73.1884 4.78035H76.3126C76.5292 4.78035 76.7212 4.64087 76.7881 4.43486L77.7536 1.46352Z" fill="#141414"/>
<path d="M12.1181 54.5339C12.3902 54.8061 12.2657 55.2708 11.8939 55.3704L3.84863 57.5261C3.47685 57.6258 3.13664 57.2856 3.23626 56.9138L5.39199 48.8685C5.49161 48.4967 5.95634 48.3722 6.2285 48.6443L12.1181 54.5339Z" fill="#4EAF4E"/>
<path d="M22.6879 28.377H79.1805V54.4474C79.1805 55.552 78.2851 56.4474 77.1805 56.4474H25.6879C24.031 56.4474 22.6879 55.1043 22.6879 53.4474V28.377Z" fill="#FFCC4A"/>
<path d="M64.7855 27.9375L22.6817 27.9375L22.6817 20.4777C22.6817 18.8209 24.0248 17.4777 25.6817 17.4777L62.7855 17.4777C63.8901 17.4777 64.7855 18.3731 64.7855 19.4777L64.7855 27.9375Z" fill="#4EAF4E" stroke="#141414" stroke-width="2"/>
<path d="M76.5338 17.2109H24.5886C23.3932 17.2109 22.4242 18.18 22.4242 19.3753V54.0055C22.4242 55.2008 23.3932 56.1698 24.5886 56.1698H76.5338C77.7291 56.1698 78.6982 55.2008 78.6982 54.0055V19.3753C78.6982 18.18 77.7291 17.2109 76.5338 17.2109Z" stroke="#141414" stroke-width="2" stroke-linecap="round" stroke-linejoin="round"/>
<path d="M61.3832 47.5117H70.0407" stroke="#141414" stroke-width="2" stroke-linecap="round" stroke-linejoin="round"/>
<path d="M48.3969 47.5117H52.7256" stroke="#141414" stroke-width="2" stroke-linecap="round" stroke-linejoin="round"/>
<path d="M22.4242 28.2754H78.6982" stroke="#141414" stroke-width="2" stroke-linecap="round" stroke-linejoin="round"/>
</svg>
