<svg width="102" height="69" viewBox="0 0 102 69" fill="none" xmlns="http://www.w3.org/2000/svg">
<path d="M94.7258 49.4284C94.8755 48.9677 95.5272 48.9677 95.6769 49.4284L96.6004 52.2707C96.6674 52.4767 96.8593 52.6162 97.0759 52.6162H100.065C100.549 52.6162 100.75 53.236 100.358 53.5207L97.9406 55.2774C97.7654 55.4047 97.692 55.6304 97.759 55.8364L98.6825 58.6787C98.8322 59.1394 98.3049 59.5224 97.9131 59.2377L95.4952 57.4811C95.32 57.3538 95.0827 57.3538 94.9075 57.4811L92.4896 59.2377C92.0978 59.5224 91.5705 59.1394 91.7202 58.6787L92.6437 55.8364C92.7107 55.6304 92.6373 55.4047 92.4621 55.2774L90.0443 53.5207C89.6524 53.236 89.8538 52.6162 90.3382 52.6162H93.3268C93.5434 52.6162 93.7354 52.4767 93.8023 52.2707L94.7258 49.4284Z" fill="#141414"/>
<path d="M15.0858 35.8917C15.358 36.1639 15.2334 36.6286 14.8616 36.7282L4.55208 39.4907C4.18029 39.5903 3.84008 39.2501 3.9397 38.8783L6.70215 28.5687C6.80177 28.197 7.2665 28.0724 7.53866 28.3446L15.0858 35.8917Z" fill="#4EAF4E"/>
<path d="M80.1753 21.7832H22.0276C20.7924 21.7832 19.7911 22.7845 19.7911 24.0197V55.3299C19.7911 56.5651 20.7924 57.5664 22.0276 57.5664H80.1753C81.4104 57.5664 82.4117 56.5651 82.4117 55.3299V24.0197C82.4117 22.7845 81.4104 21.7832 80.1753 21.7832Z" fill="#EBEBEB" stroke="#141414" stroke-width="2" stroke-linecap="round" stroke-linejoin="round"/>
<path d="M82.5187 41.7161L64.6099 57.7109L79.5187 57.7109C81.1755 57.7109 82.5187 56.3678 82.5187 54.7109L82.5187 41.7161Z" fill="#4EAF4E" stroke="black"/>
<path d="M19.6866 37.5203L37.5954 21.5254H22.6866C21.0298 21.5254 19.6866 22.8685 19.6866 24.5254V37.5203Z" fill="#4EAF4E" stroke="black"/>
<path d="M51.1012 48.6201C56.0418 48.6201 60.047 44.6149 60.047 39.6743C60.047 34.7337 56.0418 30.7285 51.1012 30.7285C46.1606 30.7285 42.1554 34.7337 42.1554 39.6743C42.1554 44.6149 46.1606 48.6201 51.1012 48.6201Z" fill="#FFCC4A" stroke="#141414" stroke-width="2" stroke-linecap="round" stroke-linejoin="round"/>
<path d="M64.5206 21.7832L82.4122 37.4383" stroke="#141414" stroke-width="2" stroke-linecap="round" stroke-linejoin="round"/>
<path d="M64.5206 57.5653L82.4122 41.9102" stroke="#141414" stroke-width="2" stroke-linecap="round" stroke-linejoin="round"/>
<path d="M37.6827 21.7832L19.7911 37.4383" stroke="#141414" stroke-width="2" stroke-linecap="round" stroke-linejoin="round"/>
<path d="M37.6827 57.5653L19.7911 41.9102" stroke="#141414" stroke-width="2" stroke-linecap="round" stroke-linejoin="round"/>
</svg>
