<svg width="44" height="44" viewBox="0 0 44 44" fill="none" xmlns="http://www.w3.org/2000/svg">
<circle cx="21.7646" cy="21.8267" r="21.7676" fill="#4EAF4E"/>
<path d="M18.9049 21.9663H24.4219" stroke="#0D0D0D" stroke-linecap="round" stroke-linejoin="round"/>
<path d="M18.9049 24.7246H24.4219" stroke="#0D0D0D" stroke-linecap="round" stroke-linejoin="round"/>
<path d="M15.4568 14.3804H27.87C28.0529 14.3804 28.2283 14.453 28.3576 14.5824C28.487 14.7117 28.5596 14.8871 28.5596 15.07V28.1728C28.5596 28.7215 28.3417 29.2477 27.9537 29.6357C27.5657 30.0237 27.0395 30.2417 26.4908 30.2417H16.8361C16.2874 30.2417 15.7612 30.0237 15.3732 29.6357C14.9852 29.2477 14.7672 28.7215 14.7672 28.1728V15.07C14.7672 14.8871 14.8399 14.7117 14.9692 14.5824C15.0985 14.453 15.2739 14.3804 15.4568 14.3804V14.3804Z" stroke="#0D0D0D" stroke-linecap="round" stroke-linejoin="round"/>
<path d="M17.5257 13.0012V15.7597" stroke="#0D0D0D" stroke-linecap="round" stroke-linejoin="round"/>
<path d="M21.6635 13.0012V15.7597" stroke="#0D0D0D" stroke-linecap="round" stroke-linejoin="round"/>
<path d="M25.8011 13.0012V15.7597" stroke="#0D0D0D" stroke-linecap="round" stroke-linejoin="round"/>
</svg>
