<svg width="54" height="53" viewBox="0 0 54 53" fill="none" xmlns="http://www.w3.org/2000/svg">
<circle cx="27.2805" cy="26.3889" r="26.3889" fill="#181818"/>
<path d="M26.8284 26.9961L18.7966 20.9722C18.6661 20.8731 18.5601 20.7453 18.4868 20.5987C18.4135 20.4521 18.3749 20.2906 18.3738 20.1267V15.371C18.3738 15.0907 18.4852 14.8219 18.6834 14.6237C18.8816 14.4256 19.1504 14.3142 19.4307 14.3142H34.2262C34.5065 14.3142 34.7753 14.4256 34.9735 14.6237C35.1717 14.8219 35.283 15.0907 35.283 15.371V20.0739C35.282 20.2378 35.2434 20.3993 35.1701 20.5458C35.0968 20.6924 34.9908 20.8202 34.8603 20.9194L26.8284 26.9961Z" stroke="white" stroke-width="2" stroke-linecap="round" stroke-linejoin="round"/>
<path d="M26.8284 26.9961L18.7966 33.02C18.6661 33.1191 18.5601 33.2469 18.4868 33.3935C18.4135 33.5401 18.3749 33.7016 18.3738 33.8655V38.6212C18.3738 38.9015 18.4852 39.1703 18.6834 39.3685C18.8816 39.5666 19.1504 39.678 19.4307 39.678H34.2262C34.5065 39.678 34.7753 39.5666 34.9735 39.3685C35.1717 39.1703 35.283 38.9015 35.283 38.6212V33.9183C35.282 33.7544 35.2434 33.5929 35.1701 33.4464C35.0968 33.2998 34.9908 33.172 34.8603 33.0728L26.8284 26.9961Z" stroke="white" stroke-width="2" stroke-linecap="round" stroke-linejoin="round"/>
</svg>
