<svg width="87" height="67" viewBox="0 0 87 67" fill="none" xmlns="http://www.w3.org/2000/svg">
<path d="M74.26 1.46352C74.4097 1.00287 75.0614 1.00287 75.2111 1.46353L76.1346 4.30587C76.2015 4.51188 76.3935 4.65136 76.6101 4.65136H79.5987C80.0831 4.65136 80.2845 5.27116 79.8926 5.55587L77.4748 7.31253C77.2995 7.43985 77.2262 7.66553 77.2932 7.87154L78.2167 10.7139C78.3664 11.1745 77.8391 11.5576 77.4473 11.2729L75.0294 9.51624C74.8542 9.38892 74.6169 9.38892 74.4416 9.51624L72.0238 11.2729C71.6319 11.5576 71.1047 11.1745 71.2544 10.7139L72.1779 7.87154C72.2449 7.66553 72.1715 7.43985 71.9963 7.31253L69.5784 5.55586C69.1866 5.27116 69.388 4.65136 69.8723 4.65136H72.8609C73.0776 4.65136 73.2695 4.51188 73.3365 4.30587L74.26 1.46352Z" fill="#141414"/>
<path d="M15.9725 43.9894C16.2447 44.2615 16.1202 44.7263 15.7484 44.8259L5.4388 47.5883C5.06701 47.688 4.7268 47.3478 4.82642 46.976L7.58886 36.6664C7.68848 36.2946 8.15322 36.1701 8.42538 36.4423L15.9725 43.9894Z" fill="#4EAF4E"/>
<rect x="28.6876" y="56.4277" width="51.8211" height="8.02848" fill="#4EAF4E"/>
<path d="M26.2325 34.5454H82.9631L54.5978 17.0898L26.2325 34.5454Z" fill="#FFCC4A" stroke="#141414" stroke-width="2" stroke-linecap="round" stroke-linejoin="round"/>
<path d="M34.9611 34.5449V56.3644" stroke="#141414" stroke-width="2" stroke-linecap="round" stroke-linejoin="round"/>
<path d="M48.0519 34.5449V56.3644" stroke="#141414" stroke-width="2" stroke-linecap="round" stroke-linejoin="round"/>
<path d="M61.1437 34.5449V56.3644" stroke="#141414" stroke-width="2" stroke-linecap="round" stroke-linejoin="round"/>
<path d="M74.2355 34.5449V56.3644" stroke="#141414" stroke-width="2" stroke-linecap="round" stroke-linejoin="round"/>
<path d="M28.4152 56.3652H80.7818" stroke="#141414" stroke-width="2" stroke-linecap="round" stroke-linejoin="round"/>
<path d="M24.0509 65.0918H85.1453" stroke="#141414" stroke-width="2" stroke-linecap="round" stroke-linejoin="round"/>
</svg>
