<svg width="44" height="44" viewBox="0 0 44 44" fill="none" xmlns="http://www.w3.org/2000/svg">
<circle cx="21.7676" cy="21.7676" r="21.7676" fill="#FFC42B"/>
<path d="M18.9047 22.054C19.6559 23.6053 20.9102 24.8564 22.4634 25.6036C22.578 25.6579 22.7047 25.6814 22.8311 25.6718C22.9575 25.6622 23.0792 25.6198 23.1843 25.5489L25.4655 24.025C25.5663 23.9567 25.6828 23.9149 25.804 23.9038C25.9253 23.8926 26.0474 23.9123 26.159 23.9611L30.4295 25.7953C30.5754 25.856 30.6974 25.963 30.7765 26.0999C30.8557 26.2368 30.8876 26.3958 30.8675 26.5526C30.7321 27.6091 30.2165 28.58 29.417 29.2837C28.6176 29.9874 27.5891 30.3757 26.524 30.376C23.2327 30.376 20.0762 29.0685 17.7489 26.7412C15.4216 24.4139 14.1141 21.2574 14.1141 17.9661C14.1143 16.901 14.5026 15.8725 15.2064 15.073C15.9101 14.2736 16.881 13.7579 17.9374 13.6226C18.0942 13.6024 18.2533 13.6344 18.3902 13.7135C18.527 13.7927 18.6341 13.9146 18.6948 14.0606L20.5289 18.3402C20.5766 18.45 20.5966 18.5699 20.587 18.6892C20.5775 18.8085 20.5387 18.9237 20.4742 19.0245L18.9503 21.3423C18.8825 21.4471 18.8426 21.5676 18.8347 21.6922C18.8267 21.8168 18.8508 21.9414 18.9047 22.054V22.054Z" stroke="#0D0D0D" stroke-linecap="round" stroke-linejoin="round"/>
</svg>
