<svg width="50" height="50" viewBox="0 0 50 50" fill="none" xmlns="http://www.w3.org/2000/svg">
<circle cx="25" cy="25" r="25" fill="#181818"/>
<path d="M24.9986 26.2001C26.7659 26.2001 28.1986 24.7675 28.1986 23.0001C28.1986 21.2328 26.7659 19.8001 24.9986 19.8001C23.2313 19.8001 21.7986 21.2328 21.7986 23.0001C21.7986 24.7675 23.2313 26.2001 24.9986 26.2001Z" stroke="white" stroke-linecap="round" stroke-linejoin="round"/>
<path d="M33 23C33 30.2 25 35.8 25 35.8C25 35.8 17 30.2 17 23C17 20.8783 17.8429 18.8434 19.3431 17.3431C20.8434 15.8429 22.8783 15 25 15C27.1217 15 29.1566 15.8429 30.6569 17.3431C32.1571 18.8434 33 20.8783 33 23V23Z" stroke="white" stroke-linecap="round" stroke-linejoin="round"/>
</svg>
