<svg width="25" height="24" viewBox="0 0 25 24" fill="none" xmlns="http://www.w3.org/2000/svg">
<path d="M17.0194 1.92487C18.3447 1.92868 19.6146 2.43698 20.5517 3.33876C21.4888 4.24054 22.0171 5.46252 22.021 6.73783V16.3627C22.0171 17.638 21.4888 18.86 20.5517 19.7618C19.6146 20.6635 18.3447 21.1718 17.0194 21.1757H7.01717C5.69187 21.1718 4.42198 20.6635 3.48485 19.7618C2.54772 18.86 2.01949 17.638 2.01553 16.3627V6.73783C2.01949 5.46252 2.54772 4.24054 3.48485 3.33876C4.42198 2.43698 5.69187 1.92868 7.01717 1.92487H17.0194ZM17.0194 0H7.01717C3.16601 0 0.0151978 3.03194 0.0151978 6.73783V16.3627C0.0151978 20.0686 3.16601 23.1005 7.01717 23.1005H17.0194C20.8705 23.1005 24.0214 20.0686 24.0214 16.3627V6.73783C24.0214 3.03194 20.8705 0 17.0194 0Z" fill="#181818"/>
<path d="M18.5192 6.7384C18.2225 6.7384 17.9324 6.65372 17.6856 6.49508C17.4389 6.33643 17.2466 6.11094 17.133 5.84713C17.0195 5.58331 16.9898 5.29301 17.0476 5.01295C17.1055 4.73288 17.2484 4.47562 17.4583 4.2737C17.6681 4.07179 17.9354 3.93428 18.2265 3.87857C18.5175 3.82286 18.8192 3.85146 19.0934 3.96073C19.3675 4.07001 19.6019 4.25506 19.7667 4.49249C19.9316 4.72992 20.0196 5.00906 20.0196 5.29461C20.02 5.48433 19.9815 5.67226 19.9062 5.84761C19.831 6.02296 19.7205 6.18228 19.5811 6.31643C19.4417 6.45058 19.2761 6.55691 19.0939 6.62933C18.9116 6.70174 18.7164 6.7388 18.5192 6.7384ZM12.0177 7.70058C12.8091 7.70058 13.5827 7.92639 14.2407 8.34946C14.8987 8.77253 15.4115 9.37386 15.7143 10.0774C16.0172 10.7809 16.0964 11.5551 15.942 12.302C15.7876 13.0489 15.4066 13.7349 14.847 14.2734C14.2874 14.8118 13.5745 15.1785 12.7983 15.3271C12.0222 15.4757 11.2176 15.3994 10.4865 15.108C9.7554 14.8166 9.13049 14.3231 8.69084 13.6899C8.25118 13.0568 8.01651 12.3123 8.01651 11.5508C8.01765 10.53 8.43956 9.55132 9.18969 8.8295C9.93982 8.10767 10.9569 7.70167 12.0177 7.70058ZM12.0177 5.7757C10.8307 5.7757 9.67039 6.11441 8.68344 6.74899C7.69649 7.38357 6.92726 8.28552 6.47302 9.34079C6.01877 10.3961 5.89992 11.5572 6.13149 12.6775C6.36307 13.7978 6.93466 14.8268 7.77399 15.6345C8.61332 16.4421 9.68269 16.9922 10.8469 17.215C12.0111 17.4378 13.2178 17.3235 14.3144 16.8864C15.411 16.4493 16.3484 15.709 17.0078 14.7593C17.6673 13.8096 18.0193 12.693 18.0193 11.5508C18.0193 10.0192 17.3869 8.55025 16.2614 7.4672C15.1359 6.38415 13.6094 5.7757 12.0177 5.7757Z" fill="#181818"/>
</svg>
