<svg width="23" height="22" viewBox="0 0 23 22" fill="none" xmlns="http://www.w3.org/2000/svg">
<path d="M10.6931 0.925587C10.9925 0.00427651 12.2959 0.00427508 12.5952 0.925586L14.483 6.73544C14.6168 7.14746 15.0008 7.42642 15.434 7.42642H21.5429C22.5116 7.42642 22.9144 8.66604 22.1306 9.23544L17.1885 12.8261C16.838 13.0808 16.6913 13.5321 16.8252 13.9442L18.7129 19.754C19.0123 20.6753 17.9578 21.4414 17.1741 20.872L12.232 17.2814C11.8815 17.0267 11.4069 17.0267 11.0564 17.2814L6.11423 20.872C5.33051 21.4414 4.27603 20.6753 4.57538 19.754L6.46312 13.9442C6.59699 13.5321 6.45033 13.0808 6.09985 12.8261L1.15769 9.23544C0.373979 8.66604 0.776753 7.42642 1.74548 7.42642H7.85432C8.28754 7.42642 8.6715 7.14746 8.80537 6.73544L10.6931 0.925587Z" fill="#FFCC4A"/>
</svg>
