<svg width="70" height="70" viewBox="0 0 70 70" fill="none" xmlns="http://www.w3.org/2000/svg">
<path d="M52.4514 52.4514C62.1432 42.7596 62.1867 27.0896 52.5486 17.4514C42.9104 7.81327 27.2404 7.85677 17.5486 17.5486C7.85677 27.2404 7.81326 42.9104 17.4514 52.5486C27.0896 62.1867 42.7596 62.1432 52.4514 52.4514Z" fill="#4CDBC4" stroke="black" stroke-width="0.625"/>
<path d="M33.7257 59.7168C40.4492 60.0288 47.2974 57.6053 52.4514 52.4513C57.6055 47.2972 60.029 40.449 59.717 33.7255L33.7257 59.7168Z" fill="#2C9984" stroke="black" stroke-width="0.625"/>
<path d="M39.517 16.0957L58.4319 35.0105L35.0107 58.4317L16.0959 39.5168L23.9932 23.993L39.517 16.0957Z" fill="white" stroke="black" stroke-width="0.625"/>
<path d="M56.673 33.2655L33.2587 56.6797L35.0107 58.4317L58.425 35.0175L56.673 33.2655Z" fill="#E6E9EE" stroke="black" stroke-width="0.625"/>
<path d="M42.9857 24.8979L24.8982 42.9854L37.6776 55.7647L55.7651 37.6773L42.9857 24.8979Z" fill="#324A5E" stroke="black" stroke-width="0.625"/>
<path d="M43.5665 29.0996L29.3204 43.3457L39.7156 53.741L53.9618 39.4948L43.5665 29.0996Z" fill="#FFD05B" stroke="black" stroke-width="0.625"/>
<path d="M46.301 31.8479L46.1636 31.7104L43.3862 34.4878L40.7822 31.8839L40.6717 31.9944L43.2757 34.5984L40.4568 37.4172L37.8529 34.8132L37.7423 34.9238L40.3463 37.5277L37.5275 40.3466L34.9235 37.7426L34.8129 37.8531L37.4169 40.4571L34.5981 43.2759L31.9941 40.672L31.8836 40.7825L34.4875 43.3865L31.9243 45.9497L32.0618 46.0871L34.625 43.5239L37.0091 45.908L34.4459 48.4712L34.5833 48.6086L37.1465 46.0454L39.5306 48.4295L36.9674 50.9927L37.1048 51.1301L39.668 48.5669L42.217 51.1159L42.3276 51.0054L39.7785 48.4564L42.5974 45.6376L45.1464 48.1866L45.2569 48.076L42.7079 45.527L45.5267 42.7082L48.0757 45.2572L48.1863 45.1467L45.6373 42.5977L48.4561 39.7788L51.0051 42.3278L51.1157 42.2173L48.5667 39.6683L51.344 36.8909L51.2066 36.7535L48.4292 39.5309L46.0451 37.1468L48.8225 34.3694L48.6851 34.232L45.9077 37.0093L43.5236 34.6252L46.301 31.8479ZM42.46 45.5002L39.6411 48.319L37.257 45.9349L40.0759 43.116L42.46 45.5002ZM39.9384 42.9786L37.1196 45.7975L34.7355 43.4133L37.5543 40.5945L39.9384 42.9786ZM45.3893 42.5708L42.5705 45.3896L40.1864 43.0055L43.0052 40.1867L45.3893 42.5708ZM42.8678 40.0493L40.049 42.8681L37.6649 40.484L40.4837 37.6651L42.8678 40.0493ZM48.3187 39.6414L45.4999 42.4602L43.1158 40.0761L45.9346 37.2573L48.3187 39.6414ZM45.7972 37.1199L42.9783 39.9387L40.5942 37.5546L43.4131 34.7358L45.7972 37.1199Z" fill="#F9B54C" stroke="black" stroke-width="0.625"/>
<path d="M24.8359 33.1817L19.8891 38.1284L21.648 39.8873L26.5947 34.9405L24.8359 33.1817Z" fill="#E6E9EE" stroke="black" stroke-width="0.625"/>
<path d="M31.4822 26.5352L26.5355 31.4819L28.2943 33.2408L33.2411 28.2941L31.4822 26.5352Z" fill="#E6E9EE" stroke="black" stroke-width="0.625"/>
<path d="M38.1216 19.896L33.1749 24.8428L34.9337 26.6017L39.8805 21.6549L38.1216 19.896Z" fill="#E6E9EE" stroke="black" stroke-width="0.625"/>
<path d="M42.5025 30.1634L41.7426 30.9233L42.0792 31.26L42.8392 30.5L42.5025 30.1634Z" fill="#E6E9EE" stroke="black" stroke-width="0.625"/>
<path d="M39.6078 33.0579L38.8478 33.8179L39.1844 34.1545L39.9444 33.3946L39.6078 33.0579Z" fill="#E6E9EE" stroke="black" stroke-width="0.625"/>
<path d="M36.7129 35.9529L35.9529 36.7129L36.2896 37.0496L37.0496 36.2896L36.7129 35.9529Z" fill="#E6E9EE" stroke="black" stroke-width="0.625"/>
<path d="M33.8181 38.8479L33.0581 39.6079L33.3948 39.9446L34.1547 39.1846L33.8181 38.8479Z" fill="#E6E9EE" stroke="black" stroke-width="0.625"/>
<path d="M30.9232 41.7425L30.1633 42.5024L30.4999 42.8391L31.2599 42.0791L30.9232 41.7425Z" fill="#E6E9EE" stroke="black" stroke-width="0.625"/>
<path d="M45.2302 32.8909L44.4702 33.6509L44.8069 33.9875L45.5669 33.2276L45.2302 32.8909Z" fill="#E6E9EE" stroke="black" stroke-width="0.625"/>
<path d="M42.3354 35.7854L41.5754 36.5454L41.912 36.8821L42.672 36.1221L42.3354 35.7854Z" fill="#E6E9EE" stroke="black" stroke-width="0.625"/>
<path d="M39.4405 38.6805L38.6805 39.4404L39.0172 39.7771L39.7772 39.0171L39.4405 38.6805Z" fill="#E6E9EE" stroke="black" stroke-width="0.625"/>
<path d="M36.5457 41.5755L35.7857 42.3354L36.1224 42.6721L36.8823 41.9121L36.5457 41.5755Z" fill="#E6E9EE" stroke="black" stroke-width="0.625"/>
<path d="M33.6509 44.47L32.8909 45.23L33.2276 45.5666L33.9876 44.8067L33.6509 44.47Z" fill="#E6E9EE" stroke="black" stroke-width="0.625"/>
<path d="M47.7586 35.4192L46.9986 36.1792L47.3353 36.5159L48.0952 35.7559L47.7586 35.4192Z" fill="#E6E9EE" stroke="black" stroke-width="0.625"/>
<path d="M44.8637 38.3142L44.1038 39.0742L44.4404 39.4109L45.2004 38.6509L44.8637 38.3142Z" fill="#E6E9EE" stroke="black" stroke-width="0.625"/>
<path d="M41.969 41.2088L41.209 41.9688L41.5456 42.3054L42.3056 41.5454L41.969 41.2088Z" fill="#E6E9EE" stroke="black" stroke-width="0.625"/>
<path d="M39.0741 44.1038L38.3141 44.8638L38.6508 45.2004L39.4108 44.4405L39.0741 44.1038Z" fill="#E6E9EE" stroke="black" stroke-width="0.625"/>
<path d="M36.1793 46.9988L35.4193 47.7588L35.756 48.0954L36.516 47.3355L36.1793 46.9988Z" fill="#E6E9EE" stroke="black" stroke-width="0.625"/>
<path d="M50.2801 37.9412L49.5201 38.7012L49.8568 39.0378L50.6168 38.2779L50.2801 37.9412Z" fill="#E6E9EE" stroke="black" stroke-width="0.625"/>
<path d="M47.3853 40.8357L46.6253 41.5957L46.962 41.9324L47.7219 41.1724L47.3853 40.8357Z" fill="#E6E9EE" stroke="black" stroke-width="0.625"/>
<path d="M44.4904 43.7303L43.7305 44.4902L44.0671 44.8269L44.8271 44.0669L44.4904 43.7303Z" fill="#E6E9EE" stroke="black" stroke-width="0.625"/>
<path d="M41.5956 46.6253L40.8356 47.3853L41.1723 47.7219L41.9323 46.9619L41.5956 46.6253Z" fill="#E6E9EE" stroke="black" stroke-width="0.625"/>
<path d="M38.7008 49.5203L37.9408 50.2803L38.2775 50.6169L39.0374 49.857L38.7008 49.5203Z" fill="#E6E9EE" stroke="black" stroke-width="0.625"/>
</svg>
