<svg width="24" height="19" viewBox="0 0 24 19" fill="none" xmlns="http://www.w3.org/2000/svg">
<path d="M23.9849 2.4875C23.1162 2.86467 22.1971 3.11316 21.2567 3.22511C22.245 2.64677 22.9883 1.72799 23.3471 0.641064C22.4126 1.18708 21.392 1.5702 20.3289 1.77399C19.8813 1.30517 19.3429 0.932205 18.7465 0.677773C18.1501 0.423342 17.5082 0.292756 16.8597 0.293953C14.2342 0.293953 12.1096 2.38626 12.1096 4.96548C12.1077 5.32424 12.1488 5.68193 12.2321 6.03092C10.3495 5.94272 8.50596 5.46281 6.81956 4.62187C5.13317 3.78093 3.64099 2.59749 2.43851 1.14727C2.01665 1.85794 1.79355 2.66879 1.79252 3.49508C1.79252 5.11493 2.63824 6.54676 3.91527 7.38561C3.15867 7.36767 2.41757 7.16756 1.75489 6.80227V6.86013C1.75489 9.12599 3.3952 11.011 5.56619 11.4401C5.15794 11.5488 4.73724 11.6039 4.31473 11.604C4.01493 11.6045 3.71581 11.5754 3.42173 11.5172C4.02527 13.3733 5.78184 14.7231 7.86261 14.7617C6.17184 16.0638 4.096 16.7676 1.96138 16.7624C1.58247 16.7619 1.20393 16.7393 0.827637 16.6949C2.9992 18.0806 5.52346 18.8135 8.09998 18.8065C16.8496 18.8065 21.6296 11.6859 21.6296 5.51025C21.6296 5.30777 21.6243 5.10529 21.6146 4.90763C22.5424 4.24815 23.3451 3.42861 23.9849 2.4875Z" fill="#181818"/>
</svg>
