<svg width="23" height="23" viewBox="0 0 23 23" fill="none" xmlns="http://www.w3.org/2000/svg">
<path d="M11.1912 0.121582C8.97777 0.121582 6.81407 0.777933 4.97369 2.00763C3.13332 3.23734 1.69892 4.98516 0.851882 7.03008C0.00484896 9.075 -0.216774 11.3252 0.21504 13.496C0.646854 15.6669 1.71271 17.661 3.27782 19.2261C4.84294 20.7912 6.83701 21.8571 9.00789 22.2889C11.1788 22.7207 13.4289 22.4991 15.4739 21.652C17.5188 20.805 19.2666 19.3706 20.4963 17.5302C21.726 15.6899 22.3823 13.5262 22.3823 11.3128C22.3767 8.34642 21.1958 5.5032 19.0982 3.40568C17.0007 1.30816 14.1575 0.12727 11.1912 0.121582V0.121582ZM15.065 7.86932C15.3204 7.86932 15.5701 7.94505 15.7824 8.08694C15.9948 8.22883 16.1603 8.4305 16.258 8.66645C16.3558 8.9024 16.3813 9.16204 16.3315 9.41252C16.2817 9.66301 16.1587 9.89309 15.9781 10.0737C15.7975 10.2543 15.5674 10.3773 15.317 10.4271C15.0665 10.4769 14.8068 10.4513 14.5709 10.3536C14.3349 10.2559 14.1333 10.0904 13.9914 9.87801C13.8495 9.66565 13.7738 9.416 13.7738 9.16061C13.7738 8.81813 13.9098 8.48969 14.152 8.24753C14.3941 8.00536 14.7226 7.86932 15.065 7.86932ZM7.31731 7.86932C7.5727 7.86932 7.82236 7.94505 8.03471 8.08694C8.24706 8.22883 8.41257 8.4305 8.5103 8.66645C8.60804 8.9024 8.63361 9.16204 8.58379 9.41252C8.53396 9.66301 8.41098 9.89309 8.23039 10.0737C8.0498 10.2543 7.81971 10.3773 7.56923 10.4271C7.31874 10.4769 7.05911 10.4513 6.82315 10.3536C6.5872 10.2559 6.38553 10.0904 6.24364 9.87801C6.10175 9.66565 6.02602 9.416 6.02602 9.16061C6.02602 8.81813 6.16207 8.48969 6.40423 8.24753C6.64639 8.00536 6.97484 7.86932 7.31731 7.86932ZM16.4101 14.3258C15.8813 15.242 15.1206 16.0028 14.2044 16.5318C13.2883 17.0608 12.2491 17.3393 11.1912 17.3393C10.1333 17.3393 9.09406 17.0608 8.17793 16.5318C7.2618 16.0028 6.50107 15.242 5.97222 14.3258C5.90484 14.228 5.85841 14.1174 5.83584 14.0009C5.81328 13.8843 5.81506 13.7643 5.84107 13.6485C5.86709 13.5327 5.91679 13.4235 5.98703 13.3278C6.05728 13.2321 6.14655 13.152 6.24926 13.0924C6.35196 13.0329 6.46587 12.9952 6.58382 12.9818C6.70177 12.9684 6.82123 12.9796 6.93467 13.0146C7.04811 13.0495 7.15309 13.1076 7.24301 13.1851C7.33294 13.2626 7.40586 13.3579 7.4572 13.4649C7.83632 14.1195 8.38086 14.6629 9.03622 15.0407C9.69158 15.4184 10.4347 15.6173 11.1912 15.6173C11.9476 15.6173 12.6908 15.4184 13.3461 15.0407C14.0015 14.6629 14.546 14.1195 14.9252 13.4649C15.0481 13.2865 15.2339 13.161 15.4453 13.1135C15.6567 13.0661 15.8782 13.1 16.0657 13.2087C16.2531 13.3174 16.3927 13.4927 16.4566 13.6998C16.5204 13.9069 16.5038 14.1304 16.4101 14.3258Z" fill="#4EAF4E"/>
</svg>
