<svg width="1440" height="408" viewBox="0 0 1440 408" fill="none" xmlns="http://www.w3.org/2000/svg">
<g clip-path="url(#clip0_22_150)">
<path d="M0 -24.147L80 11.7863C160 47.2799 320 119.806 480 110.465C640 101.125 800 12.1159 960 2.77548C1120 -6.56496 1280 65.9608 1440 74.5321C1600 83.5428 1760 29.6979 1920 11.7863C2080 -6.56497 2240 12.1159 2400 74.5321C2560 137.388 2720 245.078 2880 272C3040 298.922 3200 245.078 3360 227.166C3520 208.815 3680 227.496 3840 218.155C4000 208.815 4160 173.651 4320 155.299C4480 137.388 4640 137.388 4800 182.222C4960 227.496 5120 316.504 5280 352.767C5440 389.03 5600 370.349 5760 307.933C5920 245.078 6080 137.388 6240 101.455C6400 65.9608 6560 101.125 6720 128.377C6880 154.97 7040 173.651 7200 155.299C7360 137.388 7520 83.5428 7680 110.465C7840 137.388 8000 245.078 8160 281.011C8320 316.504 8480 281.34 8640 254.088C8800 227.496 8960 208.815 9120 191.233C9280 173.651 9440 154.97 9600 191.233C9760 227.496 9920 316.504 10080 343.757C10240 370.349 10400 335.185 10560 316.834C10720 298.922 10880 298.922 11040 307.933C11200 316.504 11360 335.185 11440 343.757L11520 352.767V460.457H11440C11360 460.457 11200 460.457 11040 460.457C10880 460.457 10720 460.457 10560 460.457C10400 460.457 10240 460.457 10080 460.457C9920 460.457 9760 460.457 9600 460.457C9440 460.457 9280 460.457 9120 460.457C8960 460.457 8800 460.457 8640 460.457C8480 460.457 8320 460.457 8160 460.457C8000 460.457 7840 460.457 7680 460.457C7520 460.457 7360 460.457 7200 460.457C7040 460.457 6880 460.457 6720 460.457C6560 460.457 6400 460.457 6240 460.457C6080 460.457 5920 460.457 5760 460.457C5600 460.457 5440 460.457 5280 460.457C5120 460.457 4960 460.457 4800 460.457C4640 460.457 4480 460.457 4320 460.457C4160 460.457 4000 460.457 3840 460.457C3680 460.457 3520 460.457 3360 460.457C3200 460.457 3040 460.457 2880 460.457C2720 460.457 2560 460.457 2400 460.457C2240 460.457 2080 460.457 1920 460.457C1760 460.457 1600 460.457 1440 460.457C1280 460.457 1120 460.457 960 460.457C800 460.457 640 460.457 480 460.457C320 460.457 160 460.457 80 460.457H0V-24.147Z" fill="#FF9900"/>
</g>
<defs>
<clipPath id="clip0_22_150">
<rect width="1440" height="408" fill="white"/>
</clipPath>
</defs>
</svg>
