<svg width="181" height="27" viewBox="0 0 181 27" fill="none" xmlns="http://www.w3.org/2000/svg">
<path d="M2.998 26C2.36333 26 1.79667 25.8073 1.298 25.422C0.799333 25.014 0.55 24.5153 0.55 23.926V4.274C0.55 3.68467 0.742667 3.19733 1.128 2.812C1.536 2.404 2.03467 2.2 2.624 2.2H12.416C13.5947 2.2 14.694 2.51733 15.714 3.152C16.7567 3.764 17.5953 4.62533 18.23 5.736C18.8647 6.824 19.182 8.082 19.182 9.51C19.182 10.3713 19.0007 11.21 18.638 12.026C18.298 12.842 17.822 13.5787 17.21 14.236C16.6207 14.8933 15.952 15.4033 15.204 15.766L15.238 14.984C15.8727 15.324 16.394 15.732 16.802 16.208C17.2327 16.6613 17.5613 17.16 17.788 17.704C18.0373 18.2253 18.1847 18.792 18.23 19.404C18.3207 19.9707 18.3773 20.4693 18.4 20.9C18.4453 21.3307 18.5133 21.6933 18.604 21.988C18.7173 22.2827 18.9213 22.5093 19.216 22.668C19.7147 22.9627 20.0207 23.3933 20.134 23.96C20.27 24.504 20.1453 24.9913 19.76 25.422C19.5107 25.7167 19.1933 25.9093 18.808 26C18.4227 26.068 18.0373 26.068 17.652 26C17.2667 25.9093 16.9493 25.796 16.7 25.66C16.3147 25.4333 15.9293 25.1047 15.544 24.674C15.1587 24.2207 14.8413 23.62 14.592 22.872C14.3653 22.124 14.252 21.1607 14.252 19.982C14.252 19.5967 14.184 19.2453 14.048 18.928C13.912 18.588 13.7193 18.3047 13.47 18.078C13.2207 17.8287 12.9033 17.6473 12.518 17.534C12.1327 17.398 11.6793 17.33 11.158 17.33H4.29L4.8 16.548V23.926C4.8 24.5153 4.64133 25.014 4.324 25.422C4.00667 25.8073 3.56467 26 2.998 26ZM4.324 13.828H12.246C12.654 13.828 13.0507 13.6467 13.436 13.284C13.8213 12.8987 14.1387 12.3887 14.388 11.754C14.6373 11.0967 14.762 10.3827 14.762 9.612C14.762 8.61467 14.49 7.78733 13.946 7.13C13.4247 6.45 12.858 6.11 12.246 6.11H4.392L4.8 5.022V14.644L4.324 13.828ZM31.9538 26.34C30.0271 26.34 28.3498 25.9433 26.9218 25.15C25.5164 24.334 24.4284 23.2347 23.6578 21.852C22.9098 20.4693 22.5358 18.9053 22.5358 17.16C22.5358 15.12 22.9438 13.386 23.7598 11.958C24.5984 10.5073 25.6864 9.39667 27.0238 8.626C28.3611 7.85533 29.7778 7.47 31.2738 7.47C32.4298 7.47 33.5178 7.708 34.5378 8.184C35.5804 8.66 36.4984 9.31733 37.2918 10.156C38.0851 10.972 38.7084 11.924 39.1618 13.012C39.6378 14.1 39.8758 15.256 39.8758 16.48C39.8531 17.024 39.6378 17.466 39.2298 17.806C38.8218 18.146 38.3458 18.316 37.8018 18.316H24.8138L23.7938 14.916H36.2718L35.5238 15.596V14.678C35.4784 14.0207 35.2404 13.4313 34.8098 12.91C34.4018 12.3887 33.8804 11.9807 33.2458 11.686C32.6338 11.3687 31.9764 11.21 31.2738 11.21C30.5938 11.21 29.9591 11.3007 29.3698 11.482C28.7804 11.6633 28.2704 11.9693 27.8398 12.4C27.4091 12.8307 27.0691 13.4087 26.8198 14.134C26.5704 14.8593 26.4458 15.7773 26.4458 16.888C26.4458 18.112 26.6951 19.1547 27.1938 20.016C27.7151 20.8547 28.3724 21.5007 29.1658 21.954C29.9818 22.3847 30.8431 22.6 31.7498 22.6C32.5884 22.6 33.2571 22.532 33.7558 22.396C34.2544 22.26 34.6511 22.1013 34.9458 21.92C35.2631 21.716 35.5464 21.546 35.7958 21.41C36.2038 21.206 36.5891 21.104 36.9518 21.104C37.4504 21.104 37.8584 21.274 38.1758 21.614C38.5158 21.954 38.6858 22.3507 38.6858 22.804C38.6858 23.416 38.3684 23.9713 37.7338 24.47C37.1444 24.9687 36.3171 25.4107 35.2518 25.796C34.1864 26.1587 33.0871 26.34 31.9538 26.34ZM44.0905 7.81C44.5211 7.81 44.9178 7.92333 45.2805 8.15C45.6431 8.354 45.9151 8.67133 46.0965 9.102L51.0945 20.526L50.3465 20.866L55.4465 9.136C55.8318 8.22933 56.4325 7.79867 57.2485 7.844C57.8151 7.844 58.2685 8.02533 58.6085 8.388C58.9711 8.728 59.1525 9.15867 59.1525 9.68C59.1525 9.83867 59.1185 10.0087 59.0505 10.19C59.0051 10.3713 58.9485 10.5413 58.8805 10.7L52.5225 24.708C52.1598 25.524 51.5818 25.9547 50.7885 26C50.3578 26.068 49.9385 25.9887 49.5305 25.762C49.1451 25.5353 48.8505 25.184 48.6465 24.708L42.3225 10.7C42.2771 10.5867 42.2205 10.4393 42.1525 10.258C42.1071 10.0767 42.0845 9.86133 42.0845 9.612C42.0845 9.204 42.2658 8.80733 42.6285 8.422C42.9911 8.014 43.4785 7.81 44.0905 7.81ZM70.7682 26.34C68.8416 26.34 67.1642 25.9433 65.7362 25.15C64.3309 24.334 63.2429 23.2347 62.4722 21.852C61.7242 20.4693 61.3502 18.9053 61.3502 17.16C61.3502 15.12 61.7582 13.386 62.5742 11.958C63.4129 10.5073 64.5009 9.39667 65.8382 8.626C67.1756 7.85533 68.5922 7.47 70.0882 7.47C71.2442 7.47 72.3322 7.708 73.3522 8.184C74.3949 8.66 75.3129 9.31733 76.1062 10.156C76.8996 10.972 77.5229 11.924 77.9762 13.012C78.4522 14.1 78.6902 15.256 78.6902 16.48C78.6676 17.024 78.4522 17.466 78.0442 17.806C77.6362 18.146 77.1602 18.316 76.6162 18.316H63.6282L62.6082 14.916H75.0862L74.3382 15.596V14.678C74.2929 14.0207 74.0549 13.4313 73.6242 12.91C73.2162 12.3887 72.6949 11.9807 72.0602 11.686C71.4482 11.3687 70.7909 11.21 70.0882 11.21C69.4082 11.21 68.7736 11.3007 68.1842 11.482C67.5949 11.6633 67.0849 11.9693 66.6542 12.4C66.2236 12.8307 65.8836 13.4087 65.6342 14.134C65.3849 14.8593 65.2602 15.7773 65.2602 16.888C65.2602 18.112 65.5096 19.1547 66.0082 20.016C66.5296 20.8547 67.1869 21.5007 67.9802 21.954C68.7962 22.3847 69.6576 22.6 70.5642 22.6C71.4029 22.6 72.0716 22.532 72.5702 22.396C73.0689 22.26 73.4656 22.1013 73.7602 21.92C74.0776 21.716 74.3609 21.546 74.6102 21.41C75.0182 21.206 75.4036 21.104 75.7662 21.104C76.2649 21.104 76.6729 21.274 76.9902 21.614C77.3302 21.954 77.5002 22.3507 77.5002 22.804C77.5002 23.416 77.1829 23.9713 76.5482 24.47C75.9589 24.9687 75.1316 25.4107 74.0662 25.796C73.0009 26.1587 71.9016 26.34 70.7682 26.34ZM86.6749 23.926C86.6749 24.5153 86.4709 25.014 86.0629 25.422C85.6776 25.8073 85.1903 26 84.6009 26C84.0343 26 83.5583 25.8073 83.1729 25.422C82.7876 25.014 82.5949 24.5153 82.5949 23.926V2.914C82.5949 2.32467 82.7876 1.83733 83.1729 1.452C83.5809 1.044 84.0796 0.84 84.6689 0.84C85.2583 0.84 85.7343 1.044 86.0969 1.452C86.4823 1.83733 86.6749 2.32467 86.6749 2.914V23.926Z" fill="black"/>
<path d="M106.311 7.47C106.9 7.47 107.388 7.66267 107.773 8.048C108.158 8.43333 108.351 8.932 108.351 9.544V23.926C108.351 24.5153 108.158 25.014 107.773 25.422C107.388 25.8073 106.9 26 106.311 26C105.722 26 105.234 25.8073 104.849 25.422C104.464 25.014 104.271 24.5153 104.271 23.926V22.26L105.019 22.566C105.019 22.8607 104.86 23.2233 104.543 23.654C104.226 24.062 103.795 24.47 103.251 24.878C102.707 25.286 102.061 25.6373 101.313 25.932C100.588 26.204 99.7943 26.34 98.933 26.34C97.369 26.34 95.9523 25.9433 94.683 25.15C93.4137 24.334 92.405 23.2233 91.657 21.818C90.9317 20.39 90.569 18.758 90.569 16.922C90.569 15.0633 90.9317 13.4313 91.657 12.026C92.405 10.598 93.4023 9.48733 94.649 8.694C95.8957 7.878 97.2783 7.47 98.797 7.47C99.7717 7.47 100.667 7.61733 101.483 7.912C102.299 8.20667 103.002 8.58067 103.591 9.034C104.203 9.48733 104.668 9.952 104.985 10.428C105.325 10.8813 105.495 11.2667 105.495 11.584L104.271 12.026V9.544C104.271 8.95467 104.464 8.46733 104.849 8.082C105.234 7.674 105.722 7.47 106.311 7.47ZM99.443 22.6C100.44 22.6 101.313 22.3507 102.061 21.852C102.809 21.3533 103.387 20.6733 103.795 19.812C104.226 18.9507 104.441 17.9873 104.441 16.922C104.441 15.834 104.226 14.8593 103.795 13.998C103.387 13.1367 102.809 12.4567 102.061 11.958C101.313 11.4593 100.44 11.21 99.443 11.21C98.4683 11.21 97.607 11.4593 96.859 11.958C96.111 12.4567 95.5217 13.1367 95.091 13.998C94.683 14.8593 94.479 15.834 94.479 16.922C94.479 17.9873 94.683 18.9507 95.091 19.812C95.5217 20.6733 96.111 21.3533 96.859 21.852C97.607 22.3507 98.4683 22.6 99.443 22.6ZM112.973 8.15H121.031C121.575 8.15 122.028 8.33133 122.391 8.694C122.753 9.05667 122.935 9.51 122.935 10.054C122.935 10.5753 122.753 11.0173 122.391 11.38C122.028 11.72 121.575 11.89 121.031 11.89H112.973C112.429 11.89 111.975 11.7087 111.613 11.346C111.25 10.9833 111.069 10.53 111.069 9.986C111.069 9.46467 111.25 9.034 111.613 8.694C111.975 8.33133 112.429 8.15 112.973 8.15ZM116.611 3.9C117.2 3.9 117.676 4.104 118.039 4.512C118.424 4.89733 118.617 5.38467 118.617 5.974V21.104C118.617 21.4213 118.673 21.682 118.787 21.886C118.923 22.09 119.093 22.2373 119.297 22.328C119.523 22.4187 119.761 22.464 120.011 22.464C120.283 22.464 120.532 22.4187 120.759 22.328C120.985 22.2147 121.246 22.158 121.541 22.158C121.858 22.158 122.141 22.3053 122.391 22.6C122.663 22.8947 122.799 23.3027 122.799 23.824C122.799 24.4587 122.447 24.98 121.745 25.388C121.065 25.796 120.328 26 119.535 26C119.059 26 118.526 25.966 117.937 25.898C117.37 25.8073 116.826 25.6147 116.305 25.32C115.806 25.0027 115.387 24.5267 115.047 23.892C114.707 23.2573 114.537 22.3847 114.537 21.274V5.974C114.537 5.38467 114.729 4.89733 115.115 4.512C115.523 4.104 116.021 3.9 116.611 3.9ZM130.523 23.926C130.523 24.5153 130.33 25.014 129.945 25.422C129.559 25.8073 129.072 26 128.483 26C127.893 26 127.406 25.8073 127.021 25.422C126.635 25.014 126.443 24.5153 126.443 23.926V9.884C126.443 9.29467 126.635 8.80733 127.021 8.422C127.406 8.014 127.893 7.81 128.483 7.81C129.072 7.81 129.559 8.014 129.945 8.422C130.33 8.80733 130.523 9.29467 130.523 9.884V23.926ZM128.449 5.6C127.678 5.6 127.134 5.47533 126.817 5.226C126.499 4.97667 126.341 4.53467 126.341 3.9V3.254C126.341 2.59667 126.511 2.15467 126.851 1.928C127.213 1.67867 127.757 1.554 128.483 1.554C129.276 1.554 129.831 1.67867 130.149 1.928C130.466 2.17733 130.625 2.61933 130.625 3.254V3.9C130.625 4.55733 130.455 5.01067 130.115 5.26C129.775 5.48667 129.219 5.6 128.449 5.6ZM152.362 16.922C152.362 18.7807 151.943 20.424 151.104 21.852C150.288 23.2573 149.177 24.3567 147.772 25.15C146.389 25.9433 144.837 26.34 143.114 26.34C141.391 26.34 139.827 25.9433 138.422 25.15C137.039 24.3567 135.929 23.2573 135.09 21.852C134.274 20.424 133.866 18.7807 133.866 16.922C133.866 15.0633 134.274 13.4313 135.09 12.026C135.929 10.598 137.039 9.48733 138.422 8.694C139.827 7.878 141.391 7.47 143.114 7.47C144.837 7.47 146.389 7.878 147.772 8.694C149.177 9.48733 150.288 10.598 151.104 12.026C151.943 13.4313 152.362 15.0633 152.362 16.922ZM148.282 16.922C148.282 15.766 148.044 14.7687 147.568 13.93C147.115 13.0687 146.491 12.4 145.698 11.924C144.927 11.448 144.066 11.21 143.114 11.21C142.162 11.21 141.289 11.448 140.496 11.924C139.725 12.4 139.102 13.0687 138.626 13.93C138.173 14.7687 137.946 15.766 137.946 16.922C137.946 18.0553 138.173 19.0527 138.626 19.914C139.102 20.7527 139.725 21.41 140.496 21.886C141.289 22.362 142.162 22.6 143.114 22.6C144.066 22.6 144.927 22.362 145.698 21.886C146.491 21.41 147.115 20.7527 147.568 19.914C148.044 19.0527 148.282 18.0553 148.282 16.922ZM165.657 7.47C167.334 7.47 168.603 7.82133 169.465 8.524C170.349 9.22667 170.949 10.1673 171.267 11.346C171.607 12.502 171.777 13.794 171.777 15.222V23.926C171.777 24.5153 171.584 25.014 171.199 25.422C170.813 25.8073 170.326 26 169.737 26C169.147 26 168.66 25.8073 168.275 25.422C167.889 25.014 167.697 24.5153 167.697 23.926V15.222C167.697 14.474 167.595 13.8053 167.391 13.216C167.209 12.604 166.869 12.1167 166.371 11.754C165.872 11.3913 165.158 11.21 164.229 11.21C163.322 11.21 162.551 11.3913 161.917 11.754C161.305 12.1167 160.829 12.604 160.489 13.216C160.171 13.8053 160.013 14.474 160.013 15.222V23.926C160.013 24.5153 159.82 25.014 159.435 25.422C159.049 25.8073 158.562 26 157.973 26C157.383 26 156.896 25.8073 156.511 25.422C156.125 25.014 155.933 24.5153 155.933 23.926V9.884C155.933 9.29467 156.125 8.80733 156.511 8.422C156.896 8.014 157.383 7.81 157.973 7.81C158.562 7.81 159.049 8.014 159.435 8.422C159.82 8.80733 160.013 9.29467 160.013 9.884V11.346L159.503 11.244C159.707 10.8587 160.001 10.4507 160.387 10.02C160.772 9.56667 161.225 9.14733 161.747 8.762C162.268 8.37667 162.857 8.07067 163.515 7.844C164.172 7.59467 164.886 7.47 165.657 7.47ZM177.989 25.966C177.331 25.966 176.821 25.796 176.459 25.456C176.119 25.0933 175.949 24.5833 175.949 23.926V23.348C175.949 22.6907 176.119 22.192 176.459 21.852C176.821 21.4893 177.331 21.308 177.989 21.308H178.431C179.088 21.308 179.587 21.4893 179.927 21.852C180.289 22.192 180.471 22.6907 180.471 23.348V23.926C180.471 24.5833 180.289 25.0933 179.927 25.456C179.587 25.796 179.088 25.966 178.431 25.966H177.989Z" fill="#FF9900"/>
</svg>
