<svg width="32" height="32" viewBox="0 0 32 32" fill="none" xmlns="http://www.w3.org/2000/svg">
<g clip-path="url(#clip0_139_76)">
<path fill-rule="evenodd" clip-rule="evenodd" d="M31.3672 27.7357C31.0561 28.5258 30.3384 29.6383 29.3205 30.4219C28.7329 30.8745 28.0313 31.3072 27.0676 31.5927C26.0403 31.8971 24.7749 32 23.2 32H8.8001C7.22534 32 5.95999 31.8971 4.93258 31.5927C3.96888 31.3072 3.2674 30.8745 2.67962 30.4219C1.66187 29.6382 0.943989 28.5258 0.632929 27.7357C0.00635821 26.1438 0 24.3376 0 23.2V8.79997C0 7.66243 0.00635821 5.85622 0.632929 4.26429C0.943989 3.47418 1.66174 2.36169 2.67962 1.57806C3.26727 1.12546 3.96888 0.692826 4.93258 0.407328C5.95986 0.102881 7.22521 0 8.8001 0H23.2002C24.7749 0 26.0403 0.102881 27.0677 0.407328C28.0314 0.692826 28.7329 1.12559 29.3206 1.57806C30.3384 2.36182 31.0563 3.47418 31.3673 4.26429C31.9939 5.85622 32.0003 7.66243 32.0003 8.79997V23.2C32.0001 24.3375 31.9938 26.1437 31.3672 27.7357Z" fill="url(#paint0_linear_139_76)"/>
<path d="M18.3207 18.3933C17.8405 17.8867 16.9971 17.5619 16.0014 17.5619C15.0057 17.5619 14.1623 17.8867 13.6821 18.3933C13.4316 18.6577 13.2991 18.9287 13.2573 19.3148C13.1765 20.0625 13.2219 20.7062 13.3095 21.7354C13.3929 22.7161 13.5514 24.024 13.7581 25.356C13.9053 26.3039 14.0248 26.8155 14.1337 27.1819C14.3102 27.7756 14.9698 28.2949 16.0014 28.2949C17.0329 28.2949 17.6926 27.7755 17.8691 27.1819C17.9779 26.8155 18.0975 26.3039 18.2446 25.356C18.4514 24.024 18.6098 22.7161 18.6933 21.7354C18.7809 20.7061 18.8263 20.0623 18.7454 19.3148C18.7037 18.9289 18.5712 18.6577 18.3207 18.3933ZM13.385 13.8822C13.385 15.3285 14.5575 16.501 16.0039 16.501C17.4503 16.501 18.6228 15.3285 18.6228 13.8822C18.6228 12.4358 17.4503 11.2633 16.0039 11.2633C14.5575 11.2633 13.385 12.4358 13.385 13.8822ZM15.9714 3.54704C9.84645 3.56447 4.82766 8.53341 4.75186 14.658C4.69031 19.6193 7.85738 23.8632 12.2798 25.4188C12.3871 25.4565 12.4961 25.3674 12.4792 25.2549C12.4212 24.8696 12.3665 24.4825 12.3163 24.1019C12.2985 23.9674 12.2128 23.8514 12.0885 23.7971C8.59306 22.27 6.15227 18.7644 6.19144 14.7037C6.24281 9.37477 10.5944 5.03036 15.9234 4.98725C21.3712 4.94325 25.8172 9.36219 25.8172 14.8C25.8172 18.82 23.3871 22.2826 19.9189 23.7975C19.7947 23.8518 19.7095 23.9681 19.6918 24.1026C19.6416 24.483 19.5869 24.87 19.529 25.2549C19.512 25.3674 19.621 25.4565 19.7283 25.4189C24.1084 23.8782 27.2571 19.7003 27.2571 14.8001C27.2568 8.58415 22.1912 3.52924 15.9714 3.54704ZM15.7681 8.70954C19.2402 8.57512 22.1077 11.3607 22.1077 14.8034C22.1077 16.5543 21.3659 18.1351 20.1803 19.2483C20.0797 19.3427 20.0256 19.4767 20.0334 19.6144C20.057 20.0332 20.0484 20.4402 20.0205 20.8998C20.013 21.0222 20.1504 21.1004 20.2517 21.0314C22.2399 19.6727 23.5476 17.3881 23.5476 14.8034C23.5476 10.5478 20.0029 7.10439 15.711 7.27073C11.7224 7.42537 8.52235 10.7139 8.47123 14.7053C8.43765 17.3303 9.75336 19.6559 11.7672 21.0316C11.8683 21.1007 12.0052 21.0224 11.9977 20.9C11.9697 20.4402 11.9612 20.0332 11.9847 19.6144C11.9925 19.4768 11.9386 19.3428 11.8382 19.2486C10.6156 18.1007 9.86477 16.4558 9.91258 14.6398C9.99677 11.444 12.5734 8.83328 15.7681 8.70954Z" fill="white"/>
</g>
<defs>
<linearGradient id="paint0_linear_139_76" x1="16.0001" y1="0" x2="16.0001" y2="32" gradientUnits="userSpaceOnUse">
<stop stop-color="#F452FF"/>
<stop offset="1" stop-color="#832BC1"/>
</linearGradient>
<clipPath id="clip0_139_76">
<rect width="32" height="32" fill="white"/>
</clipPath>
</defs>
</svg>
