<svg width="147" height="91" viewBox="0 0 147 91" fill="none" xmlns="http://www.w3.org/2000/svg">
<g clip-path="url(#clip0_139_226)">
<path fill-rule="evenodd" clip-rule="evenodd" d="M18.6849 0.218952C12.8838 2.83026 7.12218 5.36244 1.40003 8.1419C0.166813 8.73538 -0.34613 10.209 0.245816 11.4355C0.837763 12.6719 2.31747 13.1865 3.54083 12.593C9.23338 9.83331 14.9456 7.32097 20.7072 4.72945C21.9503 4.16564 22.503 2.70168 21.9506 1.46527C21.3882 0.218962 19.928 -0.344852 18.6849 0.218952Z" fill="#118DA8"/>
<path fill-rule="evenodd" clip-rule="evenodd" d="M61.3048 31.1094C52.8794 49.3985 45.3812 68.1029 37.3505 86.5601C36.8079 87.8163 37.3801 89.2704 38.6232 89.8144C39.8761 90.3584 41.3262 89.7945 41.8787 88.5383C49.8897 70.1108 57.368 51.4362 65.7835 33.1867C66.3557 31.9404 65.8134 30.4764 64.5801 29.9027C63.337 29.329 61.877 29.873 61.3048 31.1094Z" fill="#118DA8"/>
<path fill-rule="evenodd" clip-rule="evenodd" d="M133.592 35.8574C136.285 52.6727 139.452 69.4383 141.958 86.2832C142.165 87.6284 143.418 88.5581 144.76 88.3603C146.111 88.1625 147.039 86.8966 146.841 85.5514C144.326 68.6867 141.159 51.901 138.455 35.066C138.238 33.7208 136.976 32.8008 135.634 33.0184C134.282 33.2361 133.375 34.5023 133.592 35.8574Z" fill="#118DA8"/>
</g>
<defs>
<clipPath id="clip0_139_226">
<rect width="147" height="91" fill="white"/>
</clipPath>
</defs>
</svg>
