<svg width="160" height="33" viewBox="0 0 160 33" fill="none" xmlns="http://www.w3.org/2000/svg">
<g clip-path="url(#clip0_139_55)">
<path d="M12.4752 25.42C10.0019 25.42 7.87853 24.895 6.1052 23.845C4.33187 22.7717 2.96687 21.29 2.0102 19.4C1.05353 17.4867 0.575195 15.2817 0.575195 12.785C0.575195 10.2883 1.05353 8.08329 2.0102 6.16996C2.96687 4.25663 4.33187 2.76329 6.1052 1.68996C7.87853 0.616623 10.0019 0.0799561 12.4752 0.0799561C15.4152 0.0799561 17.8185 0.814955 19.6852 2.28496C21.5752 3.73163 22.7535 5.77329 23.2202 8.40996H18.2852C17.9819 7.07996 17.3285 6.04163 16.3252 5.29496C15.3452 4.52496 14.0385 4.13996 12.4052 4.13996C10.1419 4.13996 8.36853 4.90996 7.0852 6.44996C5.80187 7.98996 5.1602 10.1017 5.1602 12.785C5.1602 15.4683 5.80187 17.58 7.0852 19.12C8.36853 20.6367 10.1419 21.395 12.4052 21.395C14.0385 21.395 15.3452 21.045 16.3252 20.345C17.3285 19.6217 17.9819 18.63 18.2852 17.37H23.2202C22.7535 19.89 21.5752 21.8617 19.6852 23.285C17.8185 24.7083 15.4152 25.42 12.4752 25.42ZM32.3659 25.42C30.8725 25.42 29.6475 25.1867 28.6909 24.72C27.7342 24.23 27.0225 23.5883 26.5559 22.795C26.0892 22.0017 25.8559 21.1267 25.8559 20.17C25.8559 18.56 26.4859 17.2533 27.7459 16.25C29.0059 15.2467 30.8959 14.745 33.4159 14.745H37.8259V14.325C37.8259 13.135 37.4875 12.26 36.8109 11.7C36.1342 11.14 35.2942 10.86 34.2909 10.86C33.3809 10.86 32.5875 11.0817 31.9109 11.525C31.2342 11.945 30.8142 12.575 30.6509 13.415H26.2759C26.3925 12.155 26.8125 11.0583 27.5359 10.125C28.2825 9.19163 29.2392 8.47996 30.4059 7.98996C31.5725 7.47663 32.8792 7.21996 34.3259 7.21996C36.7992 7.21996 38.7475 7.83829 40.1709 9.07496C41.5942 10.3117 42.3059 12.0617 42.3059 14.325V25H38.4909L38.0709 22.2C37.5575 23.1333 36.8342 23.9033 35.9009 24.51C34.9909 25.1167 33.8125 25.42 32.3659 25.42ZM33.3809 21.92C34.6642 21.92 35.6559 21.5 36.3559 20.66C37.0792 19.82 37.5342 18.7817 37.7209 17.545H33.9059C32.7159 17.545 31.8642 17.7667 31.3509 18.21C30.8375 18.63 30.5809 19.155 30.5809 19.785C30.5809 20.4617 30.8375 20.9867 31.3509 21.36C31.8642 21.7333 32.5409 21.92 33.3809 21.92ZM53.0561 25.42C51.5161 25.42 50.1627 25.175 48.9961 24.685C47.8294 24.1717 46.8961 23.4717 46.1961 22.585C45.4961 21.6983 45.0761 20.6717 44.9361 19.505H49.4511C49.5911 20.1817 49.9644 20.765 50.5711 21.255C51.2011 21.7217 52.0061 21.955 52.9861 21.955C53.9661 21.955 54.6777 21.7567 55.1211 21.36C55.5877 20.9633 55.8211 20.5083 55.8211 19.995C55.8211 19.2483 55.4944 18.7467 54.8411 18.49C54.1877 18.21 53.2777 17.9417 52.1111 17.685C51.3644 17.5217 50.6061 17.3233 49.8361 17.09C49.0661 16.8567 48.3544 16.565 47.7011 16.215C47.0711 15.8417 46.5577 15.375 46.1611 14.815C45.7644 14.2317 45.5661 13.52 45.5661 12.68C45.5661 11.14 46.1727 9.84496 47.3861 8.79496C48.6227 7.74496 50.3494 7.21996 52.5661 7.21996C54.6194 7.21996 56.2527 7.69829 57.4661 8.65496C58.7027 9.61163 59.4377 10.93 59.6711 12.61H55.4361C55.1794 11.3267 54.2111 10.685 52.5311 10.685C51.6911 10.685 51.0377 10.8483 50.5711 11.175C50.1277 11.5017 49.9061 11.91 49.9061 12.4C49.9061 12.9133 50.2444 13.3217 50.9211 13.625C51.5977 13.9283 52.4961 14.2083 53.6161 14.465C54.8294 14.745 55.9377 15.06 56.9411 15.41C57.9677 15.7367 58.7844 16.2383 59.3911 16.915C59.9977 17.5683 60.3011 18.5133 60.3011 19.75C60.3244 20.8233 60.0444 21.7917 59.4611 22.655C58.8777 23.5183 58.0377 24.195 56.9411 24.685C55.8444 25.175 54.5494 25.42 53.0561 25.42ZM70.7579 25C68.9379 25 67.4795 24.5567 66.3829 23.67C65.2862 22.7833 64.7379 21.2083 64.7379 18.945V11.385H61.7629V7.63996H64.7379L65.2629 2.98496H69.2179V7.63996H73.9079V11.385H69.2179V18.98C69.2179 19.82 69.3929 20.4033 69.7429 20.73C70.1162 21.0333 70.7462 21.185 71.6329 21.185H73.8029V25H70.7579ZM83.0393 25.42C81.546 25.42 80.321 25.1867 79.3643 24.72C78.4076 24.23 77.696 23.5883 77.2293 22.795C76.7626 22.0017 76.5293 21.1267 76.5293 20.17C76.5293 18.56 77.1593 17.2533 78.4193 16.25C79.6793 15.2467 81.5693 14.745 84.0893 14.745H88.4993V14.325C88.4993 13.135 88.161 12.26 87.4843 11.7C86.8076 11.14 85.9676 10.86 84.9643 10.86C84.0543 10.86 83.261 11.0817 82.5843 11.525C81.9076 11.945 81.4876 12.575 81.3243 13.415H76.9493C77.066 12.155 77.486 11.0583 78.2093 10.125C78.956 9.19163 79.9126 8.47996 81.0793 7.98996C82.246 7.47663 83.5526 7.21996 84.9993 7.21996C87.4726 7.21996 89.421 7.83829 90.8443 9.07496C92.2676 10.3117 92.9793 12.0617 92.9793 14.325V25H89.1643L88.7443 22.2C88.231 23.1333 87.5076 23.9033 86.5743 24.51C85.6643 25.1167 84.486 25.42 83.0393 25.42ZM84.0543 21.92C85.3376 21.92 86.3293 21.5 87.0293 20.66C87.7526 19.82 88.2076 18.7817 88.3943 17.545H84.5793C83.3893 17.545 82.5376 17.7667 82.0243 18.21C81.511 18.63 81.2543 19.155 81.2543 19.785C81.2543 20.4617 81.511 20.9867 82.0243 21.36C82.5376 21.7333 83.2143 21.92 84.0543 21.92ZM99.7786 25L94.7036 7.63996H99.1486L102.158 20.135L105.658 7.63996H110.628L114.128 20.135L117.173 7.63996H121.618L116.508 25H111.853L108.143 12.015L104.433 25H99.7786ZM128.841 25.42C127.348 25.42 126.123 25.1867 125.166 24.72C124.21 24.23 123.498 23.5883 123.031 22.795C122.565 22.0017 122.331 21.1267 122.331 20.17C122.331 18.56 122.961 17.2533 124.221 16.25C125.481 15.2467 127.371 14.745 129.891 14.745H134.301V14.325C134.301 13.135 133.963 12.26 133.286 11.7C132.61 11.14 131.77 10.86 130.766 10.86C129.856 10.86 129.063 11.0817 128.386 11.525C127.71 11.945 127.29 12.575 127.126 13.415H122.751C122.868 12.155 123.288 11.0583 124.011 10.125C124.758 9.19163 125.715 8.47996 126.881 7.98996C128.048 7.47663 129.355 7.21996 130.801 7.21996C133.275 7.21996 135.223 7.83829 136.646 9.07496C138.07 10.3117 138.781 12.0617 138.781 14.325V25H134.966L134.546 22.2C134.033 23.1333 133.31 23.9033 132.376 24.51C131.466 25.1167 130.288 25.42 128.841 25.42ZM129.856 21.92C131.14 21.92 132.131 21.5 132.831 20.66C133.555 19.82 134.01 18.7817 134.196 17.545H130.381C129.191 17.545 128.34 17.7667 127.826 18.21C127.313 18.63 127.056 19.155 127.056 19.785C127.056 20.4617 127.313 20.9867 127.826 21.36C128.34 21.7333 129.016 21.92 129.856 21.92ZM143.945 32.7L147.97 23.845H146.92L140.165 7.63996H145.03L149.895 19.855L154.97 7.63996H159.73L148.705 32.7H143.945Z" fill="white"/>
</g>
<defs>
<clipPath id="clip0_139_55">
<rect width="160" height="33" fill="white"/>
</clipPath>
</defs>
</svg>
