<svg width="32" height="32" viewBox="0 0 32 32" fill="none" xmlns="http://www.w3.org/2000/svg">
<g clip-path="url(#clip0_139_111)">
<path d="M15.9989 0.0527344C7.18956 0.0527344 0.0478516 7.19426 0.0478516 16.0036C0.0478516 24.8133 7.18956 31.9543 15.9989 31.9543C24.8092 31.9543 31.9501 24.8133 31.9501 16.0036C31.9501 7.19483 24.8092 0.0534963 15.9987 0.0534963L15.9989 0.0527344ZM23.3139 23.0584C23.0282 23.527 22.4149 23.6756 21.9463 23.388C18.2012 21.1004 13.4865 20.5823 7.93414 21.8508C7.39909 21.9727 6.86575 21.6375 6.74385 21.1023C6.62137 20.567 6.95528 20.0337 7.49166 19.9118C13.5678 18.523 18.7798 19.1213 22.9844 21.6908C23.453 21.9784 23.6016 22.5899 23.3139 23.0584ZM25.2663 18.7146C24.9063 19.3004 24.1406 19.4851 23.5558 19.1251C19.2682 16.4891 12.7324 15.7259 7.66099 17.2653C7.00328 17.464 6.30861 17.0933 6.10899 16.4367C5.9109 15.779 6.28175 15.0857 6.93833 14.8857C12.7313 13.128 19.933 13.9794 24.8568 17.0051C25.4416 17.3651 25.6263 18.1308 25.2663 18.7148V18.7146ZM25.4339 14.192C20.293 11.1384 11.8111 10.8577 6.90271 12.3474C6.11452 12.5864 5.28099 12.1415 5.04214 11.3533C4.80328 10.5647 5.24785 9.73178 6.03661 9.49216C11.6711 7.78169 21.0377 8.11216 26.9566 11.6259C27.6671 12.0466 27.8995 12.9623 27.4785 13.6703C27.0595 14.3792 26.1414 14.6129 25.4347 14.192H25.4339Z" fill="#1ED760"/>
</g>
<defs>
<clipPath id="clip0_139_111">
<rect width="32" height="32" fill="white"/>
</clipPath>
</defs>
</svg>
