<svg width="32" height="32" viewBox="0 0 32 32" fill="none" xmlns="http://www.w3.org/2000/svg">
<g clip-path="url(#clip0_139_79)">
<path d="M31.6591 16C31.6591 24.8889 24.5265 32 15.8921 32C7.25782 32 0 24.8889 0 16C0 7.11112 7.13268 0 15.767 0C24.4013 0 31.6591 7.11112 31.6591 16Z" fill="url(#paint0_linear_139_79)"/>
<path d="M4.66955 17.069C4.67566 17.0161 4.71317 16.9789 4.76043 16.9789C4.80598 16.9789 4.84372 17.0161 4.85079 17.0687L5.04712 18.3457L4.85079 19.601C4.84349 19.6536 4.80621 19.6902 4.76043 19.6902C4.71314 19.6902 4.67566 19.6533 4.66955 19.6005L4.50391 18.3457L4.66955 17.069Z" fill="white"/>
<path d="M5.59817 16.1888C5.64591 16.1888 5.68464 16.2267 5.69244 16.2815L5.94551 18.3458L5.69219 20.3649C5.68441 20.4196 5.64566 20.4576 5.59817 20.4576C5.54995 20.4576 5.51024 20.4185 5.5039 20.3644L5.28125 18.3458L5.5039 16.2815C5.51047 16.2279 5.55018 16.1888 5.59817 16.1888Z" fill="white"/>
<path d="M9.0298 14.5498C9.03417 14.4534 9.10976 14.3774 9.20111 14.3774C9.29192 14.3774 9.36717 14.4534 9.37259 14.5498L9.57303 18.3476L9.37259 20.8022V20.8015C9.36725 20.8977 9.29192 20.9736 9.20111 20.9736C9.10976 20.9736 9.03443 20.8979 9.0298 20.802L8.85254 18.3476L9.0298 14.5498Z" fill="white"/>
<path d="M7.25248 15.8302C7.2581 15.7543 7.31534 15.6975 7.38549 15.6975C7.45491 15.6975 7.51215 15.7543 7.51826 15.8297L7.74528 18.3466L7.51826 20.7812C7.51215 20.8566 7.45491 20.9135 7.38549 20.9135C7.31532 20.9135 7.25783 20.8566 7.25248 20.7812L7.05273 18.3466L7.25248 15.8302Z" fill="white"/>
<path d="M11.2567 20.7619C11.2521 20.8806 11.16 20.9733 11.0468 20.9733C10.9327 20.9733 10.8404 20.8803 10.8368 20.7627L10.6826 18.3485L10.8368 13.2928C10.8405 13.1741 10.9328 13.0812 11.047 13.0812C11.1603 13.0812 11.2524 13.1739 11.257 13.2925L11.4307 18.3488L11.2567 20.7619Z" fill="white"/>
<path d="M15.112 20.6944C15.1091 20.8545 14.9805 20.9848 14.8246 20.9848C14.6686 20.9848 14.5396 20.8545 14.5371 20.6958C14.5371 20.6958 14.4287 18.3522 14.4287 18.3485L14.5371 12.511C14.5395 12.3506 14.6684 12.2203 14.8246 12.2203C14.9805 12.2203 15.1093 12.3509 15.112 12.5108L15.2333 18.3504L15.112 20.6944Z" fill="white"/>
<path d="M13.1702 20.724C13.1665 20.8649 13.0571 20.9754 12.9214 20.9754C12.7848 20.9754 12.6755 20.8649 12.6725 20.7255L12.541 18.3495L12.6723 13.2563C12.6752 13.1154 12.7846 13.0051 12.9213 13.0051C13.0569 13.0051 13.1662 13.1154 13.1699 13.2563L13.3178 18.3492L13.1702 20.7257V20.724Z" fill="white"/>
<path d="M8.4418 20.8012C8.43568 20.8875 8.37041 20.953 8.28974 20.953C8.20794 20.953 8.14293 20.8875 8.13751 20.8009L7.94922 18.3463L8.13751 16.0121C8.14267 15.9253 8.20794 15.8597 8.28974 15.8597C8.37067 15.8597 8.43594 15.9248 8.4418 16.011L8.65564 18.3463L8.4418 20.8012Z" fill="white"/>
<path d="M6.60156 20.7063C6.59474 20.7716 6.54699 20.8188 6.48806 20.8188C6.42812 20.8188 6.38037 20.7713 6.37452 20.7059L6.16309 18.3461L6.37452 15.8969C6.38061 15.8317 6.42834 15.7842 6.48804 15.7842C6.54698 15.7842 6.59472 15.8315 6.60179 15.8969L6.84174 18.3461L6.60156 20.7063Z" fill="white"/>
<path d="M13.6002 13.4426C13.6032 13.2903 13.7213 13.1714 13.8687 13.1714C14.0158 13.1714 14.1332 13.2903 14.1366 13.4421L14.2711 18.3499L14.1366 20.7111V20.7091C14.1332 20.8613 14.0158 20.98 13.8687 20.98C13.7211 20.98 13.6032 20.8611 13.6002 20.7108L13.4805 18.3497L13.6002 13.4426Z" fill="white"/>
<path d="M10.311 20.7863C10.3061 20.8938 10.2221 20.9782 10.1203 20.9782C10.0175 20.9782 9.93367 20.8938 9.92955 20.7873L9.76367 18.3483L9.92929 13.6817C9.93375 13.5742 10.0175 13.4899 10.1203 13.4899C10.2221 13.4899 10.3059 13.5739 10.311 13.6817L10.4981 18.3483L10.311 20.7863Z" fill="white"/>
<path d="M12.2098 20.7478V20.7475C12.2054 20.8764 12.1051 20.9777 11.9806 20.9777C11.8557 20.9777 11.7548 20.876 11.7514 20.7476L11.6084 18.3485L11.7512 13.1221C11.7545 12.9921 11.8554 12.8905 11.9806 12.8905C12.1051 12.8905 12.2059 12.9923 12.2098 13.1221L12.3706 18.3488L12.2098 20.7465V20.7475C12.2098 20.7472 12.2098 20.747 12.2098 20.7468V20.7478Z" fill="white"/>
<path d="M23.2917 15.5558C23.6235 15.4147 23.9877 15.3364 24.3694 15.3364C25.9079 15.3364 27.1551 16.6024 27.1551 18.164C27.1551 19.7255 25.9077 20.9914 24.3692 20.9914C24.3194 20.9914 16.6536 20.9875 16.6465 20.9867C16.4801 20.9696 16.3479 20.8255 16.3457 20.6525V11.6794C16.3477 11.5145 16.4037 11.4295 16.6139 11.3469C17.1549 11.1346 17.7676 11.009 18.396 11.009C20.9645 11.009 23.07 13.0078 23.2917 15.5558Z" fill="white"/>
<path d="M15.4685 11.982C15.471 11.8108 15.6084 11.6714 15.7757 11.6714C15.9426 11.6714 16.0799 11.8108 16.0824 11.9816L16.219 18.351L16.0824 20.6628V20.66C16.0799 20.8314 15.9426 20.9705 15.7757 20.9705C15.6084 20.9705 15.471 20.8314 15.4688 20.6625L15.3428 18.351L15.4685 11.982Z" fill="white"/>
</g>
<defs>
<linearGradient id="paint0_linear_139_79" x1="15.8296" y1="0" x2="15.8296" y2="32" gradientUnits="userSpaceOnUse">
<stop stop-color="#FF7602"/>
<stop offset="1" stop-color="#FF3502"/>
</linearGradient>
<clipPath id="clip0_139_79">
<rect width="32" height="32" fill="white"/>
</clipPath>
</defs>
</svg>
